<svg width="822" height="1122" fill="none" xmlns="http://www.w3.org/2000/svg"><rect width="822" height="1122" rx="50" fill="#F1F7EE"/><path d="M176.763 1053.4c0-6.4.933-12.03 2.8-16.9 1.933-4.87 4.467-8.63 7.6-11.3 6.133-5.2 13.067-7.8 20.8-7.8 7.8 0 14.8 1.7 21 5.1.867.47 1.3 1.13 1.3 2v12.9c0 1-.5 1.5-1.5 1.5h-5.6c-1 0-1.467-.5-1.4-1.5l.3-7c-4.133-2.8-8.833-4.2-14.1-4.2-12.8 0-19.2 8.53-19.2 25.6 0 5.33.633 10 1.9 14 1.267 3.93 3.5 7.2 6.7 9.8 3.2 2.6 7.467 3.9 12.8 3.9 5.333 0 9.333-1.07 12-3.2l-.4-7c-.067-1 .4-1.5 1.4-1.5h5.7c1 0 1.5.5 1.5 1.5v12.7c0 .93-.333 1.57-1 1.9-5.867 2.87-12.567 4.3-20.1 4.3-10.933 0-19.1-3.1-24.5-9.3-5.333-6.2-8-14.7-8-25.5Zm91.391 3.9v-3.5c0-4.73-1.334-7.7-4-8.9-1.267-.53-3.1-.8-5.5-.8-4.534 0-7.267 2.13-8.2 6.4-.2 1-.7 1.5-1.5 1.5h-6.4c-1.067 0-1.534-.5-1.4-1.5.266-4.87 2.233-8.43 5.9-10.7 3.666-2.27 8.333-3.4 14-3.4 11.933 0 17.9 5.47 17.9 16.4v26.3h4.3c1 0 1.5.5 1.5 1.5v4.9c0 1-.5 1.5-1.5 1.5h-11.8c-.867 0-1.367-.5-1.5-1.5l-.7-4.6c-3.6 4.87-8.8 7.3-15.6 7.3-4.267 0-7.8-1.1-10.6-3.3-2.8-2.27-4.2-5.87-4.2-10.8 0-6.47 2.7-10.9 8.1-13.3 4.466-2.07 9.8-3.2 16-3.4 1.266 0 3-.03 5.2-.1Zm.2 14.6v-7.7c-6.4 0-10.334.3-11.8.9-1.467.6-2.767 1.2-3.9 1.8-2.134 1.13-3.2 3.2-3.2 6.2 0 4.6 2.633 6.9 7.9 6.9 3.466 0 6.166-.8 8.1-2.4 1.933-1.67 2.9-3.57 2.9-5.7Zm37.388-26.2v25.2c0 3.13.4 5.4 1.2 6.8.8 1.4 2.3 2.1 4.5 2.1s4.333-.47 6.4-1.4c.733-.27 1.266 0 1.6.8l1.8 4.6c.066.2.1.5.1.9 0 .33-.334.7-1 1.1-3.2 1.6-7 2.4-11.4 2.4-5.934 0-9.834-1.53-11.7-4.6-1.334-2-2.1-3.93-2.3-5.8-.267-2.53-.4-5.2-.4-8v-24.1h-5.7c-1 0-1.5-.5-1.5-1.5v-5.2c0-1 .5-1.5 1.5-1.5h5.7V1024c0-1 .5-1.5 1.5-1.5h8.2c1 0 1.5.5 1.5 1.5v13.5h10.1c1 0 1.5.5 1.5 1.5v5.2c0 1-.5 1.5-1.5 1.5h-10.1Zm43.514 42.5c-7.933 0-13.767-2.3-17.5-6.9-3.667-4.67-5.5-10.8-5.5-18.4 0-7.67 1.967-14 5.9-19 3.933-5 9.6-7.5 17-7.5 3.667 0 6.8.7 9.4 2.1 2.667 1.33 4.7 3.17 6.1 5.5 2.667 4.53 4 9.77 4 15.7 0 2.8-.133 4.33-.4 4.6-.267.27-.767.4-1.5.4h-29.4c.333 4.8 1.5 8.53 3.5 11.2 2.067 2.6 5.6 3.9 10.6 3.9 3.667 0 7.433-.87 11.3-2.6.933-.47 1.6-.2 2 .8l1.9 4.6c.333.8.033 1.47-.9 2-4.4 2.4-9.9 3.6-16.5 3.6Zm-11.9-30.9h20.8c.133-8.33-3.133-12.5-9.8-12.5-3.933 0-6.733 1.27-8.4 3.8-1.6 2.47-2.467 5.37-2.6 8.7Zm83.326-11.6v35.5c0 4.27-.167 8.23-.5 11.9-.534 5.67-2.634 10.07-6.3 13.2-3.6 3.13-8.734 4.7-15.4 4.7-6.667 0-12.267-1-16.8-3-.8-.33-1.067-1-.8-2l1.8-5.3c.266-.93.933-1.2 2-.8 4.066 1.67 8.166 2.5 12.3 2.5 4.2 0 7.333-1 9.4-3 2.066-2 3.1-5.53 3.1-10.6v-7.8c-2.934 4.8-7.667 7.2-14.2 7.2-6.534 0-11.534-2.1-15-6.3-3.4-4.2-5.1-10.57-5.1-19.1 0-8.6 2-15.13 6-19.6 4.066-4.53 9.133-6.8 15.2-6.8 6.133 0 11.066 2.17 14.8 6.5l1-3.9c.333-1 .933-1.5 1.8-1.5h12.2c1 0 1.5.5 1.5 1.5v5.2c0 1-.5 1.5-1.5 1.5h-5.5Zm-11.2 22.6v-17.8c-.267-.4-.7-.9-1.3-1.5-.534-.6-1.767-1.37-3.7-2.3-1.867-1-3.9-1.5-6.1-1.5-3.534 0-6.4 1.33-8.6 4-2.2 2.6-3.3 6.8-3.3 12.6s.8 10.23 2.4 13.3c1.6 3 4.7 4.5 9.3 4.5 2.933 0 5.533-1.03 7.8-3.1 2.333-2.07 3.5-4.8 3.5-8.2Zm22.731-5.3c0-5 .767-9.33 2.3-13s3.533-6.43 6-8.3c4.733-3.53 9.867-5.3 15.4-5.3 4.067 0 7.5.63 10.3 1.9 2.8 1.27 4.967 2.73 6.5 4.4 1.6 1.67 2.933 4.07 4 7.2 1.133 3.13 1.7 6.8 1.7 11 0 8.93-2.267 15.73-6.8 20.4-4.467 4.6-10.2 6.9-17.2 6.9s-12.467-2.1-16.4-6.3c-3.867-4.27-5.8-10.57-5.8-18.9Zm23 17c4 0 6.9-1.47 8.7-4.4 1.867-3 2.8-7.43 2.8-13.3 0-5.87-.933-10.27-2.8-13.2-1.8-3-4.767-4.5-8.9-4.5-7.667 0-11.5 5.4-11.5 16.2 0 12.8 3.9 19.2 11.7 19.2Zm46.723-33.9c1.133-2.67 2.966-4.93 5.5-6.8 2.533-1.93 5.3-2.9 8.3-2.9 3 0 5.3.27 6.9.8.8.27 1.2.87 1.2 1.8v13.5c0 1-.5 1.5-1.5 1.5h-6.5c-1 0-1.467-.5-1.4-1.5l.4-5.8c-.334-.07-.9-.1-1.7-.1-3.067 0-5.6 1.27-7.6 3.8-2 2.47-3 5.8-3 10v18.7h11c1 0 1.5.5 1.5 1.5v4.9c0 1-.5 1.5-1.5 1.5h-27.5c-1 0-1.5-.5-1.5-1.5v-4.9c0-1 .5-1.5 1.5-1.5h5.3v-33.4h-5.4c-1 0-1.5-.5-1.5-1.5v-5.2c0-1 .5-1.5 1.5-1.5h13.2c.933 0 1.5.5 1.7 1.5l1.1 7.1Zm45.717 33h6.3c1 0 1.5.5 1.5 1.5v4.9c0 1-.5 1.5-1.5 1.5h-23.8c-1 0-1.5-.5-1.5-1.5v-4.9c0-1 .5-1.5 1.5-1.5h6.3v-33.4h-5.4c-1 0-1.5-.5-1.5-1.5v-5.2c0-1 .5-1.5 1.5-1.5h15.1c1 0 1.5.5 1.5 1.5v40.1Zm-12.1-50.5c-1.267-1.33-1.9-3.03-1.9-5.1s.633-3.77 1.9-5.1c1.333-1.4 3.066-2.1 5.2-2.1 2.2 0 3.933.7 5.2 2.1 1.333 1.33 2 3.03 2 5.1s-.667 3.77-2 5.1c-1.334 1.33-3.1 2-5.3 2-2.134 0-3.834-.67-5.1-2Zm47.394 59.6c-7.933 0-13.766-2.3-17.5-6.9-3.666-4.67-5.5-10.8-5.5-18.4 0-7.67 1.967-14 5.9-19 3.934-5 9.6-7.5 17-7.5 3.667 0 6.8.7 9.4 2.1 2.667 1.33 4.7 3.17 6.1 5.5 2.667 4.53 4 9.77 4 15.7 0 2.8-.133 4.33-.4 4.6-.266.27-.766.4-1.5.4h-29.4c.334 4.8 1.5 8.53 3.5 11.2 2.067 2.6 5.6 3.9 10.6 3.9 3.667 0 7.434-.87 11.3-2.6.934-.47 1.6-.2 2 .8l1.9 4.6c.334.8.034 1.47-.9 2-4.4 2.4-9.9 3.6-16.5 3.6Zm-11.9-30.9h20.8c.134-8.33-3.133-12.5-9.8-12.5-3.933 0-6.733 1.27-8.4 3.8-1.6 2.47-2.466 5.37-2.6 8.7Zm38.949-5.5c0-4.4 1.7-8.07 5.1-11 3.4-2.93 7.7-4.4 12.9-4.4s9.7.6 13.5 1.8c.934.27 1.4.87 1.4 1.8v10.6c0 1-.5 1.5-1.5 1.5h-5.8c-1.066 0-1.5-.5-1.3-1.5l.5-5.1c-2-1.07-4.2-1.6-6.6-1.6-5.333 0-8 1.87-8 5.6 0 1.93.867 3.47 2.6 4.6 1.734 1.13 3.834 2.07 6.3 2.8 2.467.67 4.934 1.47 7.4 2.4 2.534.87 4.667 2.4 6.4 4.6 1.734 2.13 2.6 4.87 2.6 8.2 0 5.07-1.766 9.03-5.3 11.9-3.533 2.8-8.5 4.2-14.9 4.2-4.466 0-9.166-.67-14.1-2-.866-.27-1.3-.9-1.3-1.9v-10.6c0-1 .5-1.5 1.5-1.5h5.8c1 0 1.467.5 1.4 1.5l-.3 5.2c1.8 1.33 4.367 2 7.7 2 5.934 0 8.9-2.1 8.9-6.3 0-2.13-.866-3.8-2.6-5-1.666-1.27-3.733-2.23-6.2-2.9a184.3 184.3 0 0 1-7.3-2.2c-2.466-.87-4.566-2.33-6.3-4.4-1.666-2.13-2.5-4.9-2.5-8.3ZM66.944 103.7h50.4c2.2 0 3.7.4 4.5 1.2.8.8 1.2 2.3 1.2 4.5v123.9h20.7c2.2-.2 3.7.1 4.5.9.8.8 1.2 2.3 1.2 4.5v12.6c0 2.2-.4 3.7-1.2 4.5-.8.8-2.3 1.2-4.5 1.2h-75c-2.2 0-3.7-.4-4.5-1.2-.8-.8-1.2-2.3-1.2-4.5v-12.6c0-2.2.4-3.7 1.2-4.5.8-.8 2.3-1.1 4.5-.9h20.7V127.4l-22.5 1.2c-2.2.2-3.7-.1-4.5-.9-.8-.8-1.2-2.3-1.2-4.5v-13.8c0-2.2.4-3.7 1.2-4.5.8-.8 2.3-1.2 4.5-1.2Zm98.96 77.7c0-14.8 2.2-27.8 6.6-39 4.6-11.2 10.7-20 18.3-26.4 15.2-12.2 33.1-18.3 53.7-18.3s37.9 6.5 51.9 19.5c14.2 13 21.3 33.5 21.3 61.5s-7.2 48.7-21.6 62.1c-14.4 13.2-33 19.8-55.8 19.8-22.8 0-40.9-6.7-54.3-20.1-13.4-13.6-20.1-33.3-20.1-59.1Zm35.1-.3c0 17 3.2 30.4 9.6 40.2 6.6 9.8 16.9 14.7 30.9 14.7s24.4-4.4 31.2-13.2c7-9 10.5-23.1 10.5-42.3 0-38.4-13.7-57.6-41.1-57.6-27.4 0-41.1 19.4-41.1 58.2Z" fill="#000"/><path d="M231.289 330.69a26.362 26.362 0 0 0-28.682-5.691 26.3 26.3 0 0 0-8.537 5.691l-5.071 5.057-5.071-5.057a26.356 26.356 0 0 0-18.61-7.687 26.356 26.356 0 0 0-18.61 7.687A26.212 26.212 0 0 0 139 349.249a26.212 26.212 0 0 0 7.708 18.559l5.071 5.058 33.689 33.597a5 5 0 0 0 7.061 0l33.689-33.597 5.071-5.058a26.222 26.222 0 0 0 5.707-8.514 26.184 26.184 0 0 0-5.707-28.604Z" fill="#F7081D"/><mask id="a" style="mask-type:alpha" maskUnits="userSpaceOnUse" x="189" y="323" width="50" height="85"><path fill="#D9D9D9" d="M189 323h50v84.916h-50z"/></mask><g mask="url(#a)"><path d="M231.289 330.69a26.362 26.362 0 0 0-28.682-5.691 26.3 26.3 0 0 0-8.537 5.691l-5.071 5.057-5.071-5.057a26.356 26.356 0 0 0-18.61-7.687 26.356 26.356 0 0 0-18.61 7.687A26.212 26.212 0 0 0 139 349.249a26.212 26.212 0 0 0 7.708 18.559l5.071 5.058 33.689 33.597a5 5 0 0 0 7.061 0l33.689-33.597 5.071-5.058a26.222 26.222 0 0 0 5.707-8.514 26.184 26.184 0 0 0-5.707-28.604Z" fill="#DC1021"/></g><path d="M562.395 432.53a94.225 94.225 0 0 0-30.565-20.375 94.417 94.417 0 0 0-72.115 0 94.203 94.203 0 0 0-30.565 20.375l-18.155 18.105-18.154-18.105c-17.669-17.621-41.634-27.521-66.622-27.521-24.989 0-48.954 9.9-66.623 27.521A93.838 93.838 0 0 0 232 498.972a93.834 93.834 0 0 0 27.596 66.442l18.154 18.105 119.122 118.799c7.806 7.785 20.44 7.785 28.246 0l119.123-118.799 18.154-18.105a93.929 93.929 0 0 0 20.43-30.482 93.713 93.713 0 0 0 0-71.92 93.929 93.929 0 0 0-20.43-30.482Z" fill="#F7081D"/><mask id="b" style="mask-type:alpha" maskUnits="userSpaceOnUse" x="411" y="405" width="179" height="304"><path fill="#D9D9D9" d="M411 405h179v304H411z"/></mask><g mask="url(#b)"><path d="M562.395 432.53a94.225 94.225 0 0 0-30.565-20.375 94.417 94.417 0 0 0-72.115 0 94.203 94.203 0 0 0-30.565 20.375l-18.155 18.105-18.154-18.105c-17.669-17.621-41.634-27.521-66.622-27.521-24.989 0-48.954 9.9-66.623 27.521A93.838 93.838 0 0 0 232 498.972a93.834 93.834 0 0 0 27.596 66.442l18.154 18.105 119.122 118.799c7.806 7.785 20.44 7.785 28.246 0l119.123-118.799 18.154-18.105a93.929 93.929 0 0 0 20.43-30.482 93.713 93.713 0 0 0 0-71.92 93.929 93.929 0 0 0-20.43-30.482Z" fill="#DC1021"/></g></svg>