<svg width="822" height="1122" fill="none" xmlns="http://www.w3.org/2000/svg"><rect width="822" height="1122" rx="50" fill="#F1F7EE"/><path d="M335.018 1063.6v17c0 .93-.466 1.63-1.4 2.1-2.866 1.53-6.433 2.83-10.7 3.9-4.2 1.07-8.666 1.6-13.4 1.6-4.666 0-9.133-.9-13.4-2.7-4.266-1.8-7.666-4.33-10.2-7.6-4.866-6.4-7.3-14.73-7.3-25 0-6.27.934-11.77 2.8-16.5 1.934-4.8 4.467-8.53 7.6-11.2 6.134-5.2 13.167-7.8 21.1-7.8 8 0 14.867 1.77 20.6 5.3.934.53 1.4 1.27 1.4 2.2v12.5c0 1-.5 1.5-1.5 1.5h-5.7c-1 0-1.466-.5-1.4-1.5l.3-6.7c-4.2-3-8.766-4.5-13.7-4.5-4.866 0-8.8 1.23-11.8 3.7-2.933 2.4-4.966 5.4-6.1 9-1.066 3.53-1.6 7.83-1.6 12.9 0 5 .6 9.5 1.8 13.5 1.267 4 3.5 7.33 6.7 10 3.267 2.67 7.467 4 12.6 4 5.2 0 9.534-1.17 13-3.5v-12.2h-6.4c-1 0-1.5-.5-1.5-1.5v-5c0-1 .5-1.5 1.5-1.5h22c1 0 1.5.5 1.5 1.5v5c0 1-.5 1.5-1.5 1.5h-5.3Zm29.432 15.5h6.3c1 0 1.5.5 1.5 1.5v4.9c0 1-.5 1.5-1.5 1.5h-23.8c-1 0-1.5-.5-1.5-1.5v-4.9c0-1 .5-1.5 1.5-1.5h6.3v-33.4h-5.4c-1 0-1.5-.5-1.5-1.5v-5.2c0-1 .5-1.5 1.5-1.5h15.1c1 0 1.5.5 1.5 1.5v40.1Zm-12.1-50.5c-1.267-1.33-1.9-3.03-1.9-5.1s.633-3.77 1.9-5.1c1.333-1.4 3.066-2.1 5.2-2.1 2.2 0 3.933.7 5.2 2.1 1.333 1.33 2 3.03 2 5.1s-.667 3.77-2 5.1c-1.334 1.33-3.1 2-5.3 2-2.134 0-3.834-.67-5.1-2Zm37.394 10.3 11.6 37 10.5-30.2h-5.1c-1 0-1.5-.5-1.5-1.5v-5.2c0-1 .5-1.5 1.5-1.5h14.6c.8 0 1.333.23 1.6.7.267.47.4.9.4 1.3 0 .33-.067.67-.2 1l-17.1 45.1c-.267.93-.933 1.4-2 1.4h-8.6c-.933 0-1.6-.47-2-1.4l-13.7-39.9h-5c-1 0-1.5-.5-1.5-1.5v-5.2c0-1 .5-1.5 1.5-1.5h13.1c1 0 1.633.47 1.9 1.4Zm61.856 49.3c-7.934 0-13.767-2.3-17.5-6.9-3.667-4.67-5.5-10.8-5.5-18.4 0-7.67 1.966-14 5.9-19 3.933-5 9.6-7.5 17-7.5 3.666 0 6.8.7 9.4 2.1 2.666 1.33 4.7 3.17 6.1 5.5 2.666 4.53 4 9.77 4 15.7 0 2.8-.134 4.33-.4 4.6-.267.27-.767.4-1.5.4h-29.4c.333 4.8 1.5 8.53 3.5 11.2 2.066 2.6 5.6 3.9 10.6 3.9 3.666 0 7.433-.87 11.3-2.6.933-.47 1.6-.2 2 .8l1.9 4.6c.333.8.033 1.47-.9 2-4.4 2.4-9.9 3.6-16.5 3.6Zm-11.9-30.9h20.8c.133-8.33-3.134-12.5-9.8-12.5-3.934 0-6.734 1.27-8.4 3.8-1.6 2.47-2.467 5.37-2.6 8.7Zm77.445-15c-5.867 0-9.2 2.87-10 8.6-.133.73-.333 1.23-.6 1.5-.267.27-.767.4-1.5.4h-5.2c-1.2 0-1.8-.5-1.8-1.5 0-5.47 1.9-9.73 5.7-12.8 3.8-3.07 8.733-4.6 14.8-4.6s10.8 1.43 14.2 4.3c3.467 2.8 5.2 7.03 5.2 12.7 0 9.07-5.833 17.1-17.5 24.1-1.867 1.13-4.1 2.4-6.7 3.8h20.6l-.4-5c-.067-.73.033-1.23.3-1.5s.767-.4 1.5-.4h4.7c.733 0 1.233.13 1.5.4.267.27.4.77.4 1.5v16.6c0 .73-.133 1.23-.4 1.5s-.767.4-1.5.4h-4.7c-.733 0-1.233-.13-1.5-.4-.267-.27-.367-.77-.3-1.5l.3-3.4h-34c-.733 0-1.233-.13-1.5-.4-.267-.27-.4-.77-.4-1.5v-4.1c0-1.2.567-2.07 1.7-2.6 6.933-3.6 12.767-7.27 17.5-11 5.933-4.6 8.9-9.83 8.9-15.7 0-2.93-.667-5.23-2-6.9s-3.767-2.5-7.3-2.5ZM120.845 107.9c-17.6 0-27.6 8.6-30 25.8-.4 2.2-1 3.7-1.8 4.5-.8.8-2.3 1.2-4.5 1.2h-15.6c-3.6 0-5.4-1.5-5.4-4.5 0-16.4 5.7-29.2 17.1-38.4 11.4-9.2 26.2-13.8 44.4-13.8s32.4 4.3 42.6 12.9c10.4 8.4 15.6 21.1 15.6 38.1 0 27.2-17.5 51.3-52.5 72.3-5.6 3.4-12.3 7.2-20.1 11.4h61.8l-1.2-15c-.2-2.2.1-3.7.9-4.5.8-.8 2.3-1.2 4.5-1.2h14.1c2.2 0 3.7.4 4.5 1.2.8.8 1.2 2.3 1.2 4.5v49.8c0 2.2-.4 3.7-1.2 4.5-.8.8-2.3 1.2-4.5 1.2h-14.1c-2.2 0-3.7-.4-4.5-1.2-.8-.8-1.1-2.3-.9-4.5l.9-10.2h-102c-2.2 0-3.7-.4-4.5-1.2-.8-.8-1.2-2.3-1.2-4.5V224c0-3.6 1.7-6.2 5.1-7.8 20.8-10.8 38.3-21.8 52.5-33 17.8-13.8 26.7-29.5 26.7-47.1 0-8.8-2-15.7-6-20.7s-11.3-7.5-21.9-7.5Z" fill="#000"/><path d="m413.882 658.027-63.638 63.137c-3.169 3.144-.942 8.549 3.522 8.549h127.275c4.464 0 6.691-5.405 3.522-8.549l-63.638-63.137a5 5 0 0 0-7.043 0Z" fill="#231F20"/><circle cx="298.667" cy="571" r="59.667" fill="#393335"/><circle cx="537.333" cy="571" r="59.667" fill="#231F20"/><rect x="417.641" y="535.2" width="50.12" height="50.12" rx="5" transform="rotate(45 417.641 535.2)" fill="#231F20"/><mask id="a" style="mask-type:alpha" maskUnits="userSpaceOnUse" x="384" y="537" width="34" height="68"><path fill="#D9D9D9" d="M384.586 537.586h33.413v66.827h-33.413z"/></mask><g mask="url(#a)"><rect x="417.639" y="535.199" width="50.12" height="50.12" rx="5" transform="rotate(45 417.639 535.199)" fill="#393335"/></g><circle cx="418.001" cy="451.667" r="59.667" fill="#231F20"/><mask id="b" style="mask-type:alpha" maskUnits="userSpaceOnUse" x="358" y="392" width="60" height="120"><path fill="#D9D9D9" d="M358.334 392h59.667v119.333h-59.667z"/></mask><g mask="url(#b)"><circle cx="418.001" cy="451.667" r="59.667" fill="#393335"/></g><mask id="c" style="mask-type:alpha" maskUnits="userSpaceOnUse" x="348" y="656" width="69" height="74"><path fill="#D9D9D9" d="M348 656h69v74h-69z"/></mask><g mask="url(#c)"><path d="m413.882 658.027-63.638 63.137c-3.169 3.144-.942 8.549 3.522 8.549h127.275c4.464 0 6.691-5.405 3.522-8.549l-63.638-63.137a5 5 0 0 0-7.043 0Z" fill="#393335"/></g><path d="m135.424 398.731-16.311 16.182c-1.268 1.258-.377 3.42 1.409 3.42h32.622c1.785 0 2.676-2.162 1.408-3.42l-16.311-16.182a1.999 1.999 0 0 0-2.817 0Z" fill="#231F20"/><circle cx="103.667" cy="374" r="16.667" fill="#393335"/><circle cx="170.333" cy="374" r="16.667" fill="#231F20"/><path d="M135.486 365.414a2 2 0 0 1 2.829 0l7.071 7.071a2 2 0 0 1 0 2.829l-7.071 7.071a2 2 0 0 1-2.829 0l-7.071-7.071a2 2 0 0 1 0-2.829l7.071-7.071Z" fill="#231F20"/><mask id="d" style="mask-type:alpha" maskUnits="userSpaceOnUse" x="127" y="364" width="11" height="20"><path fill="#D9D9D9" d="M127.668 364.666h9.333v18.667h-9.333z"/></mask><g mask="url(#d)"><rect x="136.9" y="364" width="14" height="14" rx="2" transform="rotate(45 136.9 364)" fill="#393335"/></g><circle cx="137.001" cy="340.667" r="16.667" fill="#231F20"/><mask id="e" style="mask-type:alpha" maskUnits="userSpaceOnUse" x="120" y="324" width="17" height="34"><path fill="#D9D9D9" d="M120.332 324h16.667v33.333h-16.667z"/></mask><g mask="url(#e)"><circle cx="136.999" cy="340.667" r="16.667" fill="#393335"/></g><mask id="f" style="mask-type:alpha" maskUnits="userSpaceOnUse" x="117" y="397" width="20" height="22"><path fill="#D9D9D9" d="M117.447 397.743h19.274v20.67h-19.274z"/></mask><g mask="url(#f)"><path d="m135.424 398.731-16.311 16.182c-1.268 1.258-.377 3.42 1.409 3.42h32.622c1.785 0 2.676-2.162 1.408-3.42l-16.311-16.182a1.999 1.999 0 0 0-2.817 0Z" fill="#393335"/></g></svg>