<svg width="822" height="1122" fill="none" xmlns="http://www.w3.org/2000/svg"><rect width="822" height="1122" rx="50" fill="#F1F7EE"/><path d="M251.633 1019.1c8.533-.4 14.866-.6 19-.6 4.133 0 7.2.1 9.2.3 2.066.13 4.4.47 7 1 2.6.53 4.9 1.27 6.9 2.2 2.066.87 4.133 2.13 6.2 3.8 2.066 1.67 3.8 3.6 5.2 5.8 3.066 5.07 4.6 11.6 4.6 19.6 0 12.07-3.334 21.07-10 27-6.667 5.87-15.767 8.8-27.3 8.8h-20.8c-1 0-1.5-.5-1.5-1.5v-4.9c0-1 .5-1.5 1.5-1.5h5.2v-51.9h-5.2c-1 0-1.5-.5-1.5-1.5v-5.1c0-1 .5-1.5 1.5-1.5Zm23 60.1c7.333 0 13-2.4 17-7.2 4.066-4.8 6.1-11.37 6.1-19.7s-1.9-14.67-5.7-19c-3.734-4.33-9.6-6.5-17.6-6.5h-6.4v52.4h6.6Zm59.371-33.1c1.133-2.67 2.967-4.93 5.5-6.8 2.533-1.93 5.3-2.9 8.3-2.9 3 0 5.3.27 6.9.8.8.27 1.2.87 1.2 1.8v13.5c0 1-.5 1.5-1.5 1.5h-6.5c-1 0-1.467-.5-1.4-1.5l.4-5.8c-.333-.07-.9-.1-1.7-.1-3.067 0-5.6 1.27-7.6 3.8-2 2.47-3 5.8-3 10v18.7h11c1 0 1.5.5 1.5 1.5v4.9c0 1-.5 1.5-1.5 1.5h-27.5c-1 0-1.5-.5-1.5-1.5v-4.9c0-1 .5-1.5 1.5-1.5h5.3v-33.4h-5.4c-1 0-1.5-.5-1.5-1.5v-5.2c0-1 .5-1.5 1.5-1.5h13.2c.933 0 1.5.5 1.7 1.5l1.1 7.1Zm45.717 33h6.3c1 0 1.5.5 1.5 1.5v4.9c0 1-.5 1.5-1.5 1.5h-23.8c-1 0-1.5-.5-1.5-1.5v-4.9c0-1 .5-1.5 1.5-1.5h6.3v-33.4h-5.4c-1 0-1.5-.5-1.5-1.5v-5.2c0-1 .5-1.5 1.5-1.5h15.1c1 0 1.5.5 1.5 1.5v40.1Zm-12.1-50.5c-1.267-1.33-1.9-3.03-1.9-5.1s.633-3.77 1.9-5.1c1.333-1.4 3.067-2.1 5.2-2.1 2.2 0 3.933.7 5.2 2.1 1.333 1.33 2 3.03 2 5.1s-.667 3.77-2 5.1c-1.333 1.33-3.1 2-5.3 2-2.133 0-3.833-.67-5.1-2Zm23.395 15.7v-5.3c0-1 .5-1.5 1.5-1.5h13.6c.866 0 1.4.5 1.6 1.5l.9 5.8c3.733-5.6 9.066-8.4 16-8.4 10.333 0 15.5 5.67 15.5 17v25.7h5.8c1 0 1.5.5 1.5 1.5v4.9c0 1-.5 1.5-1.5 1.5h-21.8c-1 0-1.5-.5-1.5-1.5v-4.9c0-1 .5-1.5 1.5-1.5h4.8v-20.7c0-4.2-.534-7.27-1.6-9.2-1.067-1.93-3.267-2.9-6.6-2.9-3.334 0-6.1 1-8.3 3-2.2 2-3.3 4.27-3.3 6.8v23h6.2c1 0 1.5.5 1.5 1.5v4.9c0 1-.5 1.5-1.5 1.5h-22.7c-1 0-1.5-.5-1.5-1.5v-4.9c0-1 .5-1.5 1.5-1.5h5.3v-33.4h-5.4c-1 0-1.5-.47-1.5-1.4Zm78.451-30.4v39.9h5.1l15.5-15.2c.734-.73 1.6-1.1 2.6-1.1h7.8c1 0 1.5.5 1.5 1.5v5.2c0 1-.5 1.5-1.5 1.5h-6.1l-11 10.7 13.7 22.7h5.9c1 0 1.5.5 1.5 1.5v4.9c0 1-.5 1.5-1.5 1.5h-12.9c-.933 0-1.7-.43-2.3-1.3l-15-24.2h-3.3v17.6h5.3c1 0 1.5.5 1.5 1.5v4.9c0 1-.5 1.5-1.5 1.5h-21.8c-1 0-1.5-.5-1.5-1.5v-4.9c0-1 .5-1.5 1.5-1.5h5.3v-58.6h-5.4c-1 0-1.5-.5-1.5-1.5v-5.1c0-1 .5-1.5 1.5-1.5h15.1c1 0 1.5.5 1.5 1.5Zm77.86 87.2c-13.2 0-19.8-5.73-19.8-17.2 0-1 .6-1.5 1.8-1.5h5.6c.8 0 1.3.13 1.5.4.267.2.467.7.6 1.5.267 3.07 1.234 5.23 2.9 6.5 1.667 1.33 4.267 2 7.8 2 3.534 0 6.234-.87 8.1-2.6 1.934-1.73 2.9-4.7 2.9-8.9 0-7.13-3.566-10.87-10.7-11.2-.733-.07-1.766-.1-3.1-.1h-2.9c-.733 0-1.233-.13-1.5-.4-.266-.27-.4-.77-.4-1.5v-4.4c0-.73.134-1.2.4-1.4.267-.27 1.434-.47 3.5-.6 2.067-.13 3.567-.27 4.5-.4 6-1.13 9-4.57 9-10.3 0-5.8-3.033-8.7-9.1-8.7-6.066 0-9.433 2.87-10.1 8.6-.133.73-.333 1.23-.6 1.5-.266.27-.766.4-1.5.4h-5.3c-.733 0-1.233-.13-1.5-.4-.266-.27-.366-.77-.3-1.5.267-5.6 2.267-9.83 6-12.7 3.8-2.87 8.667-4.3 14.6-4.3 5.934 0 10.5 1.37 13.7 4.1 3.267 2.73 4.9 6.63 4.9 11.7 0 7.27-4.3 12.47-12.9 15.6 3.934.53 7.3 2.17 10.1 4.9 2.8 2.67 4.2 6.4 4.2 11.2 0 6-2.033 10.77-6.1 14.3-4.066 3.6-9.5 5.4-16.3 5.4ZM123.39 264.3c-39.6 0-59.4-17.2-59.4-51.6 0-3 1.8-4.5 5.4-4.5h16.8c2.4 0 3.9.4 4.5 1.2.8.6 1.4 2.1 1.8 4.5.8 9.2 3.7 15.7 8.7 19.5 5 4 12.8 6 23.4 6 10.6 0 18.7-2.6 24.3-7.8 5.8-5.2 8.7-14.1 8.7-26.7 0-21.4-10.7-32.6-32.1-33.6-2.2-.2-5.3-.3-9.3-.3h-8.7c-2.2 0-3.7-.4-4.5-1.2-.8-.8-1.2-2.3-1.2-4.5v-13.2c0-2.2.4-3.6 1.2-4.2.8-.8 4.3-1.4 10.5-1.8 6.2-.4 10.7-.8 13.5-1.2 18-3.4 27-13.7 27-30.9 0-17.4-9.1-26.1-27.3-26.1-18.2 0-28.3 8.6-30.3 25.8-.4 2.2-1 3.7-1.8 4.5-.8.8-2.3 1.2-4.5 1.2h-15.9c-2.2 0-3.7-.4-4.5-1.2-.8-.8-1.1-2.3-.9-4.5.8-16.8 6.8-29.5 18-38.1 11.4-8.6 26-12.9 43.8-12.9 17.8 0 31.5 4.1 41.1 12.3 9.8 8.2 14.7 19.9 14.7 35.1 0 21.8-12.9 37.4-38.7 46.8 11.8 1.6 21.9 6.5 30.3 14.7 8.4 8 12.6 19.2 12.6 33.6 0 18-6.1 32.3-18.3 42.9-12.2 10.8-28.5 16.2-48.9 16.2Z" fill="#000"/><path d="M265.605 655.873a94.209 94.209 0 0 0 30.565 20.375 94.417 94.417 0 0 0 72.115 0 94.187 94.187 0 0 0 30.565-20.375l18.155-18.105 18.154 18.105c17.669 17.622 41.634 27.521 66.622 27.521 24.989 0 48.954-9.899 66.623-27.521A93.834 93.834 0 0 0 596 589.431c0-24.92-9.927-48.82-27.596-66.442l-18.154-18.105-119.122-118.799c-7.806-7.785-20.44-7.785-28.246 0L283.759 504.884l-18.154 18.105a93.929 93.929 0 0 0-20.43 30.482 93.717 93.717 0 0 0 0 71.92 93.929 93.929 0 0 0 20.43 30.482ZM413.479 686.897l-60.03 59.557c-3.169 3.144-.942 8.549 3.522 8.549H477.03c4.464 0 6.69-5.405 3.521-8.549l-60.029-59.557a5 5 0 0 0-7.043 0Z" fill="#231F20"/><mask id="a" style="mask-type:alpha" maskUnits="userSpaceOnUse" x="238" y="379" width="179" height="376"><path fill="#D9D9D9" d="M238 379h179v376H238z"/></mask><g mask="url(#a)" fill="#393335"><path d="m413.479 686.897-60.03 59.557c-3.169 3.144-.942 8.549 3.522 8.549H477.03c4.464 0 6.69-5.405 3.521-8.549l-60.029-59.557a5 5 0 0 0-7.043 0ZM265.605 655.873a94.209 94.209 0 0 0 30.565 20.375 94.417 94.417 0 0 0 72.115 0 94.187 94.187 0 0 0 30.565-20.375l18.155-18.105 18.154 18.105c17.669 17.622 41.634 27.521 66.622 27.521 24.989 0 48.954-9.899 66.623-27.521A93.834 93.834 0 0 0 596 589.431c0-24.92-9.927-48.82-27.596-66.442l-18.154-18.105-119.122-118.799c-7.806-7.785-20.44-7.785-28.246 0L283.759 504.884l-18.154 18.105a93.929 93.929 0 0 0-20.43 30.482 93.717 93.717 0 0 0 0 71.92 93.929 93.929 0 0 0 20.43 30.482Z"/></g><path d="M93.711 402.294a26.324 26.324 0 0 0 8.538 5.692 26.38 26.38 0 0 0 20.144 0 26.32 26.32 0 0 0 8.537-5.692l5.071-5.057 5.071 5.057a26.353 26.353 0 0 0 18.61 7.688c6.98 0 13.674-2.765 18.61-7.688A26.212 26.212 0 0 0 186 383.735a26.212 26.212 0 0 0-7.708-18.559l-5.071-5.057-33.689-33.598a5 5 0 0 0-7.061 0l-33.689 33.598-5.071 5.057a26.24 26.24 0 0 0-5.707 8.514 26.182 26.182 0 0 0 5.707 28.604ZM134.592 411.382l-15.303 15.183c-1.268 1.257-.377 3.419 1.408 3.419h30.607c1.785 0 2.676-2.162 1.408-3.419l-15.303-15.183a1.999 1.999 0 0 0-2.817 0Z" fill="#231F20"/><mask id="b" style="mask-type:alpha" maskUnits="userSpaceOnUse" x="86" y="324" width="50" height="106"><path fill="#D9D9D9" d="M86 324.955h50v105.028H86z"/></mask><g mask="url(#b)" fill="#393335"><path d="m134.592 411.382-15.303 15.183c-1.268 1.257-.377 3.419 1.408 3.419h30.607c1.785 0 2.676-2.162 1.408-3.419l-15.303-15.183a1.999 1.999 0 0 0-2.817 0ZM93.711 402.294a26.324 26.324 0 0 0 8.538 5.692 26.38 26.38 0 0 0 20.144 0 26.32 26.32 0 0 0 8.537-5.692l5.071-5.057 5.071 5.057a26.353 26.353 0 0 0 18.61 7.688c6.98 0 13.674-2.765 18.61-7.688A26.212 26.212 0 0 0 186 383.735a26.212 26.212 0 0 0-7.708-18.559l-5.071-5.057-33.689-33.598a5 5 0 0 0-7.061 0l-33.689 33.598-5.071 5.057a26.24 26.24 0 0 0-5.707 8.514 26.182 26.182 0 0 0 5.707 28.604Z"/></g></svg>