<svg width="822" height="1122" fill="none" xmlns="http://www.w3.org/2000/svg"><rect width="822" height="1122" rx="50" fill="#F1F7EE"/><path d="M226.999 1063.6v17c0 .93-.467 1.63-1.4 2.1-2.867 1.53-6.434 2.83-10.7 3.9-4.2 1.07-8.667 1.6-13.4 1.6-4.667 0-9.134-.9-13.4-2.7-4.267-1.8-7.667-4.33-10.2-7.6-4.867-6.4-7.3-14.73-7.3-25 0-6.27.933-11.77 2.8-16.5 1.933-4.8 4.466-8.53 7.6-11.2 6.133-5.2 13.166-7.8 21.1-7.8 8 0 14.866 1.77 20.6 5.3.933.53 1.4 1.27 1.4 2.2v12.5c0 1-.5 1.5-1.5 1.5h-5.7c-1 0-1.467-.5-1.4-1.5l.3-6.7c-4.2-3-8.767-4.5-13.7-4.5-4.867 0-8.8 1.23-11.8 3.7-2.934 2.4-4.967 5.4-6.1 9-1.067 3.53-1.6 7.83-1.6 12.9 0 5 .6 9.5 1.8 13.5 1.266 4 3.5 7.33 6.7 10 3.266 2.67 7.466 4 12.6 4 5.2 0 9.533-1.17 13-3.5v-12.2h-6.4c-1 0-1.5-.5-1.5-1.5v-5c0-1 .5-1.5 1.5-1.5h22c1 0 1.5.5 1.5 1.5v5c0 1-.5 1.5-1.5 1.5h-5.3Zm29.431 15.5h6.3c1 0 1.5.5 1.5 1.5v4.9c0 1-.5 1.5-1.5 1.5h-23.8c-1 0-1.5-.5-1.5-1.5v-4.9c0-1 .5-1.5 1.5-1.5h6.3v-33.4h-5.4c-1 0-1.5-.5-1.5-1.5v-5.2c0-1 .5-1.5 1.5-1.5h15.1c1 0 1.5.5 1.5 1.5v40.1Zm-12.1-50.5c-1.267-1.33-1.9-3.03-1.9-5.1s.633-3.77 1.9-5.1c1.333-1.4 3.067-2.1 5.2-2.1 2.2 0 3.933.7 5.2 2.1 1.333 1.33 2 3.03 2 5.1s-.667 3.77-2 5.1c-1.333 1.33-3.1 2-5.3 2-2.133 0-3.833-.67-5.1-2Zm40.895 17.5c1.133-2.67 2.966-4.93 5.5-6.8 2.533-1.93 5.3-2.9 8.3-2.9 3 0 5.3.27 6.9.8.8.27 1.2.87 1.2 1.8v13.5c0 1-.5 1.5-1.5 1.5h-6.5c-1 0-1.467-.5-1.4-1.5l.4-5.8c-.334-.07-.9-.1-1.7-.1-3.067 0-5.6 1.27-7.6 3.8-2 2.47-3 5.8-3 10v18.7h11c1 0 1.5.5 1.5 1.5v4.9c0 1-.5 1.5-1.5 1.5h-27.5c-1 0-1.5-.5-1.5-1.5v-4.9c0-1 .5-1.5 1.5-1.5h5.3v-33.4h-5.4c-1 0-1.5-.5-1.5-1.5v-5.2c0-1 .5-1.5 1.5-1.5h13.2c.933 0 1.5.5 1.7 1.5l1.1 7.1Zm45.717-32.2v65.2h6.3c1 0 1.5.5 1.5 1.5v4.9c0 1-.5 1.5-1.5 1.5h-23.8c-1 0-1.5-.5-1.5-1.5v-4.9c0-1 .5-1.5 1.5-1.5h6.3v-58.5h-5.4c-1 0-1.5-.5-1.5-1.5v-5.2c0-1 .5-1.5 1.5-1.5h15.1c1 0 1.5.5 1.5 1.5Zm14.394 37.9c0-4.4 1.7-8.07 5.1-11 3.4-2.93 7.7-4.4 12.9-4.4s9.7.6 13.5 1.8c.934.27 1.4.87 1.4 1.8v10.6c0 1-.5 1.5-1.5 1.5h-5.8c-1.066 0-1.5-.5-1.3-1.5l.5-5.1c-2-1.07-4.2-1.6-6.6-1.6-5.333 0-8 1.87-8 5.6 0 1.93.867 3.47 2.6 4.6 1.734 1.13 3.834 2.07 6.3 2.8 2.467.67 4.934 1.47 7.4 2.4 2.534.87 4.667 2.4 6.4 4.6 1.734 2.13 2.6 4.87 2.6 8.2 0 5.07-1.766 9.03-5.3 11.9-3.533 2.8-8.5 4.2-14.9 4.2-4.466 0-9.166-.67-14.1-2-.866-.27-1.3-.9-1.3-1.9v-10.6c0-1 .5-1.5 1.5-1.5h5.8c1 0 1.467.5 1.4 1.5l-.3 5.2c1.8 1.33 4.367 2 7.7 2 5.934 0 8.9-2.1 8.9-6.3 0-2.13-.866-3.8-2.6-5-1.666-1.27-3.733-2.23-6.2-2.9a184.3 184.3 0 0 1-7.3-2.2c-2.466-.87-4.566-2.33-6.3-4.4-1.666-2.13-2.5-4.9-2.5-8.3Zm108.06 27.3h4.3c1 0 1.5.5 1.5 1.5v4.9c0 1-.5 1.5-1.5 1.5h-11.3c-.866 0-1.366-.5-1.5-1.5l-.8-5.9c-3.4 5.73-8.833 8.6-16.3 8.6-6.533 0-11.566-2.03-15.1-6.1-3.533-4.13-5.3-10.5-5.3-19.1 0-8.67 2.034-15.27 6.1-19.8 4.134-4.53 9.434-6.8 15.9-6.8 2.934 0 5.534.57 7.8 1.7 2.267 1.07 3.934 2.37 5 3.9v-21.3h-5.3c-1 0-1.5-.5-1.5-1.5v-5.3c0-1 .5-1.5 1.5-1.5h15c1 0 1.5.5 1.5 1.5v65.2Zm-11.2-10.9v-17.6c-.866-1.33-2.4-2.57-4.6-3.7-2.133-1.13-4.3-1.7-6.5-1.7-8.266 0-12.4 5.6-12.4 16.8 0 8.6 1.867 13.97 5.6 16.1 1.6.93 3.8 1.4 6.6 1.4s5.367-1.03 7.7-3.1c2.4-2.07 3.6-4.8 3.6-8.2Zm40.001-22.1c1.134-2.67 2.967-4.93 5.5-6.8 2.534-1.93 5.3-2.9 8.3-2.9 3 0 5.3.27 6.9.8.8.27 1.2.87 1.2 1.8v13.5c0 1-.5 1.5-1.5 1.5h-6.5c-1 0-1.466-.5-1.4-1.5l.4-5.8c-.333-.07-.9-.1-1.7-.1-3.066 0-5.6 1.27-7.6 3.8-2 2.47-3 5.8-3 10v18.7h11c1 0 1.5.5 1.5 1.5v4.9c0 1-.5 1.5-1.5 1.5h-27.5c-1 0-1.5-.5-1.5-1.5v-4.9c0-1 .5-1.5 1.5-1.5h5.3v-33.4h-5.4c-1 0-1.5-.5-1.5-1.5v-5.2c0-1 .5-1.5 1.5-1.5h13.2c.934 0 1.5.5 1.7 1.5l1.1 7.1Zm45.717 33h6.3c1 0 1.5.5 1.5 1.5v4.9c0 1-.5 1.5-1.5 1.5h-23.8c-1 0-1.5-.5-1.5-1.5v-4.9c0-1 .5-1.5 1.5-1.5h6.3v-33.4h-5.4c-1 0-1.5-.5-1.5-1.5v-5.2c0-1 .5-1.5 1.5-1.5h15.1c1 0 1.5.5 1.5 1.5v40.1Zm-12.1-50.5c-1.266-1.33-1.9-3.03-1.9-5.1s.634-3.77 1.9-5.1c1.334-1.4 3.067-2.1 5.2-2.1 2.2 0 3.934.7 5.2 2.1 1.334 1.33 2 3.03 2 5.1s-.666 3.77-2 5.1c-1.333 1.33-3.1 2-5.3 2-2.133 0-3.833-.67-5.1-2Zm23.395 15.7v-5.3c0-1 .5-1.5 1.5-1.5h13.6c.867 0 1.4.5 1.6 1.5l.9 5.8c3.733-5.6 9.067-8.4 16-8.4 10.333 0 15.5 5.67 15.5 17v25.7h5.8c1 0 1.5.5 1.5 1.5v4.9c0 1-.5 1.5-1.5 1.5h-21.8c-1 0-1.5-.5-1.5-1.5v-4.9c0-1 .5-1.5 1.5-1.5h4.8v-20.7c0-4.2-.533-7.27-1.6-9.2-1.067-1.93-3.267-2.9-6.6-2.9-3.333 0-6.1 1-8.3 3-2.2 2-3.3 4.27-3.3 6.8v23h6.2c1 0 1.5.5 1.5 1.5v4.9c0 1-.5 1.5-1.5 1.5h-22.7c-1 0-1.5-.5-1.5-1.5v-4.9c0-1 .5-1.5 1.5-1.5h5.3v-33.4h-5.4c-1 0-1.5-.47-1.5-1.4Zm78.452-30.4v39.9h5.1l15.5-15.2c.733-.73 1.6-1.1 2.6-1.1h7.8c1 0 1.5.5 1.5 1.5v5.2c0 1-.5 1.5-1.5 1.5h-6.1l-11 10.7 13.7 22.7h5.9c1 0 1.5.5 1.5 1.5v4.9c0 1-.5 1.5-1.5 1.5h-12.9c-.934 0-1.7-.43-2.3-1.3l-15-24.2h-3.3v17.6h5.3c1 0 1.5.5 1.5 1.5v4.9c0 1-.5 1.5-1.5 1.5h-21.8c-1 0-1.5-.5-1.5-1.5v-4.9c0-1 .5-1.5 1.5-1.5h5.3v-58.6h-5.4c-1 0-1.5-.5-1.5-1.5v-5.1c0-1 .5-1.5 1.5-1.5h15.1c1 0 1.5.5 1.5 1.5Z" fill="#000"/><path d="m246.142 546.858 150.716-150.716c7.81-7.81 20.474-7.81 28.284 0l150.716 150.716c7.81 7.81 7.81 20.474 0 28.284L425.142 725.858c-7.81 7.81-20.474 7.81-28.284 0L246.142 575.142c-7.81-7.81-7.81-20.474 0-28.284Z" fill="#F7081D"/><mask id="a" style="mask-type:alpha" maskUnits="userSpaceOnUse" x="411" y="390" width="171" height="342"><path fill="#D9D9D9" d="M411 390h171v342H411z"/></mask><g mask="url(#a)"><path d="m246.142 546.858 150.716-150.716c7.81-7.81 20.474-7.81 28.284 0l150.716 150.716c7.81 7.81 7.81 20.474 0 28.284L425.142 725.858c-7.81 7.81-20.474 7.81-28.284 0L246.142 575.142c-7.81-7.81-7.81-20.474 0-28.284Z" fill="#DC1021"/></g><path d="m83.535 366.464 42.929-42.928a5 5 0 0 1 7.072 0l42.928 42.928a5 5 0 0 1 0 7.072l-42.928 42.928a5 5 0 0 1-7.072 0l-42.928-42.928a5.001 5.001 0 0 1 0-7.072Z" fill="#F7081D"/><mask id="b" style="mask-type:alpha" maskUnits="userSpaceOnUse" x="130" y="322" width="48" height="96"><rect x="130" y="322.235" width="47.765" height="95.531" rx="5" fill="#D9D9D9"/></mask><g mask="url(#b)"><path d="m83.535 366.464 42.929-42.928a5 5 0 0 1 7.072 0l42.928 42.928a5 5 0 0 1 0 7.072l-42.928 42.928a5 5 0 0 1-7.072 0l-42.928-42.928a5.001 5.001 0 0 1 0-7.072Z" fill="#DC1021"/></g><path d="M197.138 226.5h-24.9v38.7c0 2.2-.4 3.7-1.2 4.5-.8.8-2.3 1.2-4.5 1.2h-21.6c-2.2 0-3.7-.4-4.5-1.2-.8-.8-1.2-2.3-1.2-4.5v-38.7h-73.2c-2.2 0-3.7-.4-4.5-1.2-.8-.8-1.2-2.3-1.2-4.5v-13.2c0-4 1-7.5 3-10.5l71.1-114.6c2-3.2 4.9-4.8 8.7-4.8h23.7c2.2 0 3.7.4 4.5 1.2.8.8 1.2 2.3 1.2 4.5v117.9h24.6c2.2 0 3.7.4 4.5 1.2.8.8 1.2 2.3 1.2 4.5v13.8c0 2.2-.4 3.7-1.2 4.5-.8.8-2.3 1.2-4.5 1.2Zm-57.6-113.7-54.6 88.5h54.6v-88.5Z" fill="#000"/></svg>