<svg width="822" height="1122" fill="none" xmlns="http://www.w3.org/2000/svg"><rect width="822" height="1122" rx="50" fill="#F1F7EE"/><path d="M343.977 1087h-6.6c-1 0-1.7-.47-2.1-1.4l-19.4-49.3v42.8h6.3c1 0 1.5.5 1.5 1.5v4.9c0 1-.5 1.5-1.5 1.5h-20.3c-1 0-1.5-.5-1.5-1.5v-4.9c0-1 .5-1.5 1.5-1.5h5.3v-51.9h-5.3c-1 0-1.5-.5-1.5-1.5v-5.1c0-1 .5-1.5 1.5-1.5h17.5c1.067 0 1.733.47 2 1.4l20.6 53.7 21.1-53.7c.267-.93.933-1.4 2-1.4h16.7c1 0 1.5.5 1.5 1.5v5.1c0 1-.5 1.5-1.5 1.5h-5.3v51.9h5.3c1 0 1.5.5 1.5 1.5v4.9c0 1-.5 1.5-1.5 1.5h-22c-1 0-1.5-.5-1.5-1.5v-4.9c0-1 .5-1.5 1.5-1.5h6v-42.7l-19.7 49.2c-.4.93-1.1 1.4-2.1 1.4Zm76.118-29.7v-3.5c0-4.73-1.333-7.7-4-8.9-1.267-.53-3.1-.8-5.5-.8-4.533 0-7.267 2.13-8.2 6.4-.2 1-.7 1.5-1.5 1.5h-6.4c-1.067 0-1.533-.5-1.4-1.5.267-4.87 2.233-8.43 5.9-10.7 3.667-2.27 8.333-3.4 14-3.4 11.933 0 17.9 5.47 17.9 16.4v26.3h4.3c1 0 1.5.5 1.5 1.5v4.9c0 1-.5 1.5-1.5 1.5h-11.8c-.867 0-1.367-.5-1.5-1.5l-.7-4.6c-3.6 4.87-8.8 7.3-15.6 7.3-4.267 0-7.8-1.1-10.6-3.3-2.8-2.27-4.2-5.87-4.2-10.8 0-6.47 2.7-10.9 8.1-13.3 4.467-2.07 9.8-3.2 16-3.4 1.267 0 3-.03 5.2-.1Zm.2 14.6v-7.7c-6.4 0-10.333.3-11.8.9-1.467.6-2.767 1.2-3.9 1.8-2.133 1.13-3.2 3.2-3.2 6.2 0 4.6 2.633 6.9 7.9 6.9 3.467 0 6.167-.8 8.1-2.4 1.933-1.67 2.9-3.57 2.9-5.7Zm37.388-26.2v25.2c0 3.13.4 5.4 1.2 6.8.8 1.4 2.3 2.1 4.5 2.1s4.334-.47 6.4-1.4c.734-.27 1.267 0 1.6.8l1.8 4.6c.067.2.1.5.1.9 0 .33-.333.7-1 1.1-3.2 1.6-7 2.4-11.4 2.4-5.933 0-9.833-1.53-11.7-4.6-1.333-2-2.1-3.93-2.3-5.8-.266-2.53-.4-5.2-.4-8v-24.1h-5.7c-1 0-1.5-.5-1.5-1.5v-5.2c0-1 .5-1.5 1.5-1.5h5.7V1024c0-1 .5-1.5 1.5-1.5h8.2c1 0 1.5.5 1.5 1.5v13.5h10.1c1 0 1.5.5 1.5 1.5v5.2c0 1-.5 1.5-1.5 1.5h-10.1Zm43.514 42.5c-7.933 0-13.766-2.3-17.5-6.9-3.666-4.67-5.5-10.8-5.5-18.4 0-7.67 1.967-14 5.9-19 3.934-5 9.6-7.5 17-7.5 3.667 0 6.8.7 9.4 2.1 2.667 1.33 4.7 3.17 6.1 5.5 2.667 4.53 4 9.77 4 15.7 0 2.8-.133 4.33-.4 4.6-.266.27-.766.4-1.5.4h-29.4c.334 4.8 1.5 8.53 3.5 11.2 2.067 2.6 5.6 3.9 10.6 3.9 3.667 0 7.434-.87 11.3-2.6.934-.47 1.6-.2 2 .8l1.9 4.6c.334.8.034 1.47-.9 2-4.4 2.4-9.9 3.6-16.5 3.6Zm-11.9-30.9h20.8c.134-8.33-3.133-12.5-9.8-12.5-3.933 0-6.733 1.27-8.4 3.8-1.6 2.47-2.466 5.37-2.6 8.7ZM61.773 223.1c0-22.6 13-40.8 39-54.6-10-5.8-17.5-12-22.5-18.6-5-6.8-7.5-15.7-7.5-26.7 0-16.2 5.9-28.7 17.7-37.5 11.8-9 26.3-13.5 43.5-13.5 17.4 0 30.9 4.1 40.5 12.3 9.6 8 14.4 17.8 14.4 29.4 0 11.4-2.9 20.7-8.7 27.9-5.6 7-13.7 14-24.3 21 16.2 7 27.5 14.4 33.9 22.2 6.4 7.6 9.6 17.9 9.6 30.9 0 17-6.2 30.7-18.6 41.1-12.4 10.4-29.6 15.6-51.6 15.6-21.8 0-38.2-4.5-49.2-13.5-10.8-9.2-16.2-21.2-16.2-36Zm102.3-3c0-10.8-4.9-19.4-14.7-25.8-7-4.6-15.4-9.1-25.2-13.5-20.4 11.8-30.6 25.2-30.6 40.2 0 18.6 11.7 27.9 35.1 27.9 23.6 0 35.4-9.6 35.4-28.8Zm-8.4-102.9c0-14.4-8-21.6-24-21.6-8.4 0-15.2 2-20.4 6-5.2 4-7.8 9.8-7.8 17.4 0 7.6 2.3 13.9 6.9 18.9 4.6 5 11.1 9.7 19.5 14.1 5.4-3.8 9.6-7 12.6-9.6 3.2-2.6 6.2-6.2 9-10.8 2.8-4.6 4.2-9.4 4.2-14.4Z" fill="#000"/><path d="m407.882 658.027-63.638 63.137c-3.169 3.144-.942 8.549 3.522 8.549h127.275c4.464 0 6.691-5.405 3.522-8.549l-63.638-63.137a5 5 0 0 0-7.043 0Z" fill="#231F20"/><circle cx="292.667" cy="571" r="59.667" fill="#393335"/><circle cx="531.334" cy="571" r="59.667" fill="#231F20"/><rect x="411.64" y="535.2" width="50.12" height="50.12" rx="5" transform="rotate(45 411.64 535.2)" fill="#231F20"/><mask id="a" style="mask-type:alpha" maskUnits="userSpaceOnUse" x="378" y="537" width="34" height="68"><path fill="#D9D9D9" d="M378.586 537.586h33.413v66.827h-33.413z"/></mask><g mask="url(#a)"><rect x="411.64" y="535.199" width="50.12" height="50.12" rx="5" transform="rotate(45 411.64 535.199)" fill="#393335"/></g><circle cx="412" cy="451.667" r="59.667" fill="#231F20"/><mask id="b" style="mask-type:alpha" maskUnits="userSpaceOnUse" x="352" y="392" width="61" height="120"><path fill="#D9D9D9" d="M352.334 392h59.667v119.333h-59.667z"/></mask><g mask="url(#b)"><circle cx="412.001" cy="451.667" r="59.667" fill="#393335"/></g><mask id="c" style="mask-type:alpha" maskUnits="userSpaceOnUse" x="342" y="656" width="69" height="74"><path fill="#D9D9D9" d="M342 656h69v74h-69z"/></mask><g mask="url(#c)"><path d="m407.882 658.027-63.638 63.137c-3.169 3.144-.942 8.549 3.522 8.549h127.275c4.464 0 6.691-5.405 3.522-8.549l-63.638-63.137a5 5 0 0 0-7.043 0Z" fill="#393335"/></g><path d="m129.425 398.731-16.311 16.182c-1.268 1.258-.377 3.42 1.409 3.42h32.622c1.785 0 2.676-2.162 1.408-3.42l-16.311-16.182a1.999 1.999 0 0 0-2.817 0Z" fill="#231F20"/><circle cx="97.667" cy="374" r="16.667" fill="#393335"/><circle cx="164.333" cy="374" r="16.667" fill="#231F20"/><path d="M129.485 365.414a2 2 0 0 1 2.829 0l7.071 7.071a2 2 0 0 1 0 2.829l-7.071 7.071a2 2 0 0 1-2.829 0l-7.071-7.071a2 2 0 0 1 0-2.829l7.071-7.071Z" fill="#231F20"/><mask id="d" style="mask-type:alpha" maskUnits="userSpaceOnUse" x="121" y="364" width="10" height="20"><path fill="#D9D9D9" d="M121.667 364.666H131v18.667h-9.333z"/></mask><g mask="url(#d)"><rect x="130.899" y="364" width="14" height="14" rx="2" transform="rotate(45 130.899 364)" fill="#393335"/></g><circle cx="131" cy="340.667" r="16.667" fill="#231F20"/><mask id="e" style="mask-type:alpha" maskUnits="userSpaceOnUse" x="114" y="324" width="17" height="34"><path fill="#D9D9D9" d="M114.332 324h16.667v33.333h-16.667z"/></mask><g mask="url(#e)"><circle cx="130.999" cy="340.667" r="16.667" fill="#393335"/></g><mask id="f" style="mask-type:alpha" maskUnits="userSpaceOnUse" x="111" y="397" width="20" height="22"><path fill="#D9D9D9" d="M111.447 397.743h19.274v20.67h-19.274z"/></mask><g mask="url(#f)"><path d="m129.425 398.731-16.311 16.182c-1.268 1.258-.377 3.42 1.409 3.42h32.622c1.785 0 2.676-2.162 1.408-3.42l-16.311-16.182a1.999 1.999 0 0 0-2.817 0Z" fill="#393335"/></g></svg>