<svg width="822" height="1122" fill="none" xmlns="http://www.w3.org/2000/svg"><rect width="822" height="1122" rx="50" fill="#F1F7EE"/><path d="M121.334 1085.5v-4.9c0-1 .5-1.5 1.5-1.5h5.3v-51.9h-5.2c-1 0-1.5-.5-1.5-1.5v-5.1c0-1.07.5-1.6 1.5-1.6 8-.33 15.6-.5 22.8-.5 7.2 0 12.933 1.4 17.2 4.2 4.333 2.73 6.5 6.67 6.5 11.8 0 3.73-1.167 7-3.5 9.8-2.267 2.73-4.967 4.73-8.1 6 5.133.8 9.033 2.7 11.7 5.7 2.733 3 4.1 6.67 4.1 11 0 5.67-2.1 10.27-6.3 13.8-4.2 3.47-9.767 5.43-16.7 5.9-2.867.2-7.467.3-13.8.3h-14c-1 0-1.5-.5-1.5-1.5Zm18-30v23.8h4.5c5.866 0 10.4-.93 13.6-2.8 3.266-1.87 4.9-5.1 4.9-9.7 0-7.53-5.267-11.3-15.8-11.3h-7.2Zm0-28.9v20.6h3.8c9.866 0 14.8-3.43 14.8-10.3 0-3.87-1.2-6.53-3.6-8-2.4-1.53-5.834-2.3-10.3-2.3h-4.7Zm87.791 52.5h4.4c1 0 1.5.5 1.5 1.5v4.9c0 1-.5 1.5-1.5 1.5h-11.2c-.8 0-1.3-.5-1.5-1.5l-.9-5.6c-4.267 5.53-9.867 8.3-16.8 8.3-10.8 0-16.2-5.67-16.2-17v-25.5h-5.3c-1 0-1.5-.5-1.5-1.5v-5.2c0-1 .5-1.5 1.5-1.5h15c1 0 1.5.5 1.5 1.5v29.2c0 4 .5 6.87 1.5 8.6 1.067 1.67 3.267 2.5 6.6 2.5 3.4 0 6.2-1 8.4-3s3.3-4.27 3.3-6.8v-23.8h-6.3c-1 0-1.5-.5-1.5-1.5v-5.2c0-1 .5-1.5 1.5-1.5h16c1 0 1.5.5 1.5 1.5v40.1Zm14.463-27.3c0-4.4 1.7-8.07 5.1-11 3.4-2.93 7.7-4.4 12.9-4.4s9.7.6 13.5 1.8c.934.27 1.4.87 1.4 1.8v10.6c0 1-.5 1.5-1.5 1.5h-5.8c-1.066 0-1.5-.5-1.3-1.5l.5-5.1c-2-1.07-4.2-1.6-6.6-1.6-5.333 0-8 1.87-8 5.6 0 1.93.867 3.47 2.6 4.6 1.734 1.13 3.834 2.07 6.3 2.8 2.467.67 4.934 1.47 7.4 2.4 2.534.87 4.667 2.4 6.4 4.6 1.734 2.13 2.6 4.87 2.6 8.2 0 5.07-1.766 9.03-5.3 11.9-3.533 2.8-8.5 4.2-14.9 4.2-4.466 0-9.166-.67-14.1-2-.866-.27-1.3-.9-1.3-1.9v-10.6c0-1 .5-1.5 1.5-1.5h5.8c1 0 1.467.5 1.4 1.5l-.3 5.2c1.8 1.33 4.367 2 7.7 2 5.934 0 8.9-2.1 8.9-6.3 0-2.13-.866-3.8-2.6-5-1.666-1.27-3.733-2.23-6.2-2.9a184.3 184.3 0 0 1-7.3-2.2c-2.466-.87-4.566-2.33-6.3-4.4-1.666-2.13-2.5-4.9-2.5-8.3Zm57.464-6.1v25.2c0 3.13.4 5.4 1.2 6.8.8 1.4 2.3 2.1 4.5 2.1s4.334-.47 6.4-1.4c.734-.27 1.267 0 1.6.8l1.8 4.6c.067.2.1.5.1.9 0 .33-.333.7-1 1.1-3.2 1.6-7 2.4-11.4 2.4-5.933 0-9.833-1.53-11.7-4.6-1.333-2-2.1-3.93-2.3-5.8-.266-2.53-.4-5.2-.4-8v-24.1h-5.7c-1 0-1.5-.5-1.5-1.5v-5.2c0-1 .5-1.5 1.5-1.5h5.7V1024c0-1 .5-1.5 1.5-1.5h8.2c1 0 1.5.5 1.5 1.5v13.5h10.1c1 0 1.5.5 1.5 1.5v5.2c0 1-.5 1.5-1.5 1.5h-10.1Zm69.834 11.6v-3.5c0-4.73-1.333-7.7-4-8.9-1.267-.53-3.1-.8-5.5-.8-4.533 0-7.267 2.13-8.2 6.4-.2 1-.7 1.5-1.5 1.5h-6.4c-1.067 0-1.533-.5-1.4-1.5.267-4.87 2.233-8.43 5.9-10.7 3.667-2.27 8.333-3.4 14-3.4 11.933 0 17.9 5.47 17.9 16.4v26.3h4.3c1 0 1.5.5 1.5 1.5v4.9c0 1-.5 1.5-1.5 1.5h-11.8c-.867 0-1.367-.5-1.5-1.5l-.7-4.6c-3.6 4.87-8.8 7.3-15.6 7.3-4.267 0-7.8-1.1-10.6-3.3-2.8-2.27-4.2-5.87-4.2-10.8 0-6.47 2.7-10.9 8.1-13.3 4.467-2.07 9.8-3.2 16-3.4 1.267 0 3-.03 5.2-.1Zm.2 14.6v-7.7c-6.4 0-10.333.3-11.8.9-1.467.6-2.767 1.2-3.9 1.8-2.133 1.13-3.2 3.2-3.2 6.2 0 4.6 2.633 6.9 7.9 6.9 3.467 0 6.167-.8 8.1-2.4 1.933-1.67 2.9-3.57 2.9-5.7Zm59.461-25.8c1.133-2.67 2.967-4.93 5.5-6.8 2.533-1.93 5.3-2.9 8.3-2.9 3 0 5.3.27 6.9.8.8.27 1.2.87 1.2 1.8v13.5c0 1-.5 1.5-1.5 1.5h-6.5c-1 0-1.467-.5-1.4-1.5l.4-5.8c-.333-.07-.9-.1-1.7-.1-3.067 0-5.6 1.27-7.6 3.8-2 2.47-3 5.8-3 10v18.7h11c1 0 1.5.5 1.5 1.5v4.9c0 1-.5 1.5-1.5 1.5h-27.5c-1 0-1.5-.5-1.5-1.5v-4.9c0-1 .5-1.5 1.5-1.5h5.3v-33.4h-5.4c-1 0-1.5-.5-1.5-1.5v-5.2c0-1 .5-1.5 1.5-1.5h13.2c.933 0 1.5.5 1.7 1.5l1.1 7.1Zm27.117-27v-5.2c0-1 .5-1.5 1.5-1.5h15.1c1 0 1.5.5 1.5 1.5v30.8c3.733-5.53 8.9-8.3 15.5-8.3 10.333 0 15.5 5.67 15.5 17v25.7h5.9c1 0 1.5.5 1.5 1.5v4.9c0 1-.5 1.5-1.5 1.5h-21.9c-1 0-1.5-.5-1.5-1.5v-4.9c0-1 .5-1.5 1.5-1.5h4.8v-20.7c0-4.2-.533-7.27-1.6-9.2-1.067-1.93-3.267-2.9-6.6-2.9-3.333 0-6.1 1-8.3 3-2.2 2-3.3 4.27-3.3 6.8v23h6.1c1 0 1.5.5 1.5 1.5v4.9c0 1-.5 1.5-1.5 1.5h-22.7c-1 0-1.5-.5-1.5-1.5v-4.9c0-1 .5-1.5 1.5-1.5h5.4v-58.5h-5.4c-1 0-1.5-.5-1.5-1.5Zm74.363 19.8 11.7 36.4 10.4-29.6h-5.1c-1 0-1.5-.5-1.5-1.5v-5.2c0-1 .5-1.5 1.5-1.5h14.6c.8 0 1.334.23 1.6.7.267.47.4.9.4 1.3 0 .33-.066.67-.2 1l-21.4 55.9c-1 2.53-1.866 4.47-2.6 5.8-.666 1.4-1.633 2.87-2.9 4.4-2.466 2.93-6.1 4.4-10.9 4.4-4.8 0-8.733-.73-11.8-2.2-.533-.27-.8-.6-.8-1s.034-.7.1-.9l1.7-4.9c.267-.87.9-1.17 1.9-.9 3.2 1.07 5.8 1.6 7.8 1.6 2.067 0 3.634-.53 4.7-1.6 1.134-1 2.3-3.13 3.5-6.4l2.5-6.6-15.2-42.4h-5c-1 0-1.5-.5-1.5-1.5v-5.2c0-1 .5-1.5 1.5-1.5h13.1c1 0 1.634.47 1.9 1.4Zm37.856 5.3v-5.2c0-1 .5-1.5 1.5-1.5h13.7c.866 0 1.366.5 1.5 1.5l.8 5.8c3.466-5.6 8.666-8.4 15.6-8.4 6.933 0 11.5 2.93 13.7 8.8 3.6-5.87 8.833-8.8 15.7-8.8 10.333 0 15.5 5.67 15.5 17v25.7h5.7c1 0 1.5.5 1.5 1.5v4.9c0 1-.5 1.5-1.5 1.5h-22c-1 0-1.5-.5-1.5-1.5v-4.9c0-1 .5-1.5 1.5-1.5h5.1v-20.7c0-4.2-.534-7.27-1.6-9.2-1.067-1.93-3.234-2.9-6.5-2.9-3.2 0-5.767.87-7.7 2.6-1.934 1.73-2.9 3.77-2.9 6.1v24.1h4.8c1 0 1.5.5 1.5 1.5v4.9c0 1-.5 1.5-1.5 1.5h-20.5c-1 0-1.5-.5-1.5-1.5v-4.9c0-1 .5-1.5 1.5-1.5h4.5v-20.7c0-4.2-.534-7.27-1.6-9.2-1.067-1.93-3.267-2.9-6.6-2.9-3.267 0-5.867 1-7.8 3-1.867 1.93-2.8 4.2-2.8 6.8v23h6.1c1 0 1.5.5 1.5 1.5v4.9c0 1-.5 1.5-1.5 1.5h-22.6c-1 0-1.5-.5-1.5-1.5v-4.9c0-1 .5-1.5 1.5-1.5h5.3v-33.4h-5.4c-1 0-1.5-.5-1.5-1.5Zm113.258 44c-7.934 0-13.767-2.3-17.5-6.9-3.667-4.67-5.5-10.8-5.5-18.4 0-7.67 1.966-14 5.9-19 3.933-5 9.6-7.5 17-7.5 3.666 0 6.8.7 9.4 2.1 2.666 1.33 4.7 3.17 6.1 5.5 2.666 4.53 4 9.77 4 15.7 0 2.8-.134 4.33-.4 4.6-.267.27-.767.4-1.5.4h-29.4c.333 4.8 1.5 8.53 3.5 11.2 2.066 2.6 5.6 3.9 10.6 3.9 3.666 0 7.433-.87 11.3-2.6.933-.47 1.6-.2 2 .8l1.9 4.6c.333.8.033 1.47-.9 2-4.4 2.4-9.9 3.6-16.5 3.6Zm-11.9-30.9h20.8c.133-8.33-3.134-12.5-9.8-12.5-3.934 0-6.734 1.27-8.4 3.8-1.6 2.47-2.467 5.37-2.6 8.7Z" fill="#000"/><path d="m246.142 546.858 150.716-150.716c7.81-7.81 20.474-7.81 28.284 0l150.716 150.716c7.81 7.81 7.81 20.474 0 28.284L425.142 725.858c-7.81 7.81-20.474 7.81-28.284 0L246.142 575.142c-7.81-7.81-7.81-20.474 0-28.284Z" fill="#F7081D"/><mask id="a" style="mask-type:alpha" maskUnits="userSpaceOnUse" x="411" y="390" width="171" height="342"><path fill="#D9D9D9" d="M411 390h171v342H411z"/></mask><g mask="url(#a)"><path d="m246.142 546.858 150.716-150.716c7.81-7.81 20.474-7.81 28.284 0l150.716 150.716c7.81 7.81 7.81 20.474 0 28.284L425.142 725.858c-7.81 7.81-20.474 7.81-28.284 0L246.142 575.142c-7.81-7.81-7.81-20.474 0-28.284Z" fill="#DC1021"/></g><path d="m83.535 366.464 42.929-42.928a5 5 0 0 1 7.072 0l42.928 42.928a5 5 0 0 1 0 7.072l-42.928 42.928a5 5 0 0 1-7.072 0l-42.928-42.928a5.001 5.001 0 0 1 0-7.072Z" fill="#F7081D"/><mask id="b" style="mask-type:alpha" maskUnits="userSpaceOnUse" x="130" y="322" width="48" height="96"><rect x="130" y="322.235" width="47.765" height="95.531" rx="5" fill="#D9D9D9"/></mask><g mask="url(#b)"><path d="m83.535 366.464 42.929-42.928a5 5 0 0 1 7.072 0l42.928 42.928a5 5 0 0 1 0 7.072l-42.928 42.928a5 5 0 0 1-7.072 0l-42.928-42.928a5.001 5.001 0 0 1 0-7.072Z" fill="#DC1021"/></g><path d="M119.815 274.6c-33 0-50.6-14.9-52.8-44.7-.2-2.2.1-3.7.9-4.5.8-.8 2.3-1.2 4.5-1.2h16.5c2.4 0 4 .4 4.8 1.2.8.6 1.6 3.2 2.4 7.8 2.2 10.8 10.5 16.2 24.9 16.2 28.8 0 43.7-22.1 44.7-66.3-10.6 14.8-25.8 22.2-45.6 22.2-19.6 0-34.4-5.8-44.4-17.4-10-11.6-15-27.2-15-46.8 0-19.8 6-36.1 18-48.9 12-13 29.2-19.5 51.6-19.5 46 0 69 30.3 69 90.9 0 74-26.5 111-79.5 111Zm9.3-95.4c9.2 0 17-2.5 23.4-7.5 6.6-5 10.6-11.9 12-20.7.4-2.2.6-5.7.6-10.5 0-11.8-2.8-21.9-8.4-30.3-5.6-8.6-14.8-12.9-27.6-12.9-23.6 0-35.4 13.7-35.4 41.1 0 27.2 11.8 40.8 35.4 40.8Z" fill="#000"/></svg>