<svg width="822" height="1128" fill="none" xmlns="http://www.w3.org/2000/svg"><rect y="6" width="822" height="1122" rx="50" fill="#F1F7EE"/><path d="m246.142 552.858 150.716-150.716c7.81-7.81 20.474-7.81 28.284 0l150.716 150.716c7.81 7.81 7.81 20.474 0 28.284L425.142 731.858c-7.81 7.81-20.474 7.81-28.284 0L246.142 581.142c-7.81-7.81-7.81-20.474 0-28.284Z" fill="#F7081D"/><mask id="a" style="mask-type:alpha" maskUnits="userSpaceOnUse" x="411" y="396" width="171" height="342"><path fill="#D9D9D9" d="M411 396h171v342H411z"/></mask><g mask="url(#a)"><path d="m246.142 552.858 150.716-150.716c7.81-7.81 20.474-7.81 28.284 0l150.716 150.716c7.81 7.81 7.81 20.474 0 28.284L425.142 731.858c-7.81 7.81-20.474 7.81-28.284 0L246.142 581.142c-7.81-7.81-7.81-20.474 0-28.284Z" fill="#DC1021"/></g><path d="m58.535 279.464 42.929-42.928a5 5 0 0 1 7.072 0l42.928 42.928a5 5 0 0 1 0 7.072l-42.928 42.928a5 5 0 0 1-7.072 0l-42.928-42.928a5.001 5.001 0 0 1 0-7.072Z" fill="#F7081D"/><mask id="b" style="mask-type:alpha" maskUnits="userSpaceOnUse" x="105" y="235" width="48" height="96"><rect x="105" y="235.235" width="47.765" height="95.531" rx="5" fill="#D9D9D9"/></mask><g mask="url(#b)"><path d="m58.535 279.464 42.929-42.928a5 5 0 0 1 7.072 0l42.928 42.928a5 5 0 0 1 0 7.072l-42.928 42.928a5 5 0 0 1-7.072 0l-42.928-42.928a5.001 5.001 0 0 1 0-7.072Z" fill="#DC1021"/></g><path d="m78.8 155.2-9.2 27h12c2 0 3 1 3 3v9.8c0 2-1 3-3 3H39c-2 0-3-1-3-3v-9.8c0-2 1-3 3-3h11.8L90.8 65c.8-1.867 2.133-2.8 4-2.8h19.4c1.867 0 3.2.933 4 2.8l40.4 117.2h13.6c2 0 3 1 3 3v9.8c0 2-1 3-3 3H122c-2 0-3-1-3-3v-9.8c0-2 1-3 3-3h12.4l-9.4-27H78.8Zm23-73.8-19 58.8h37.8l-18.8-58.8ZM269.669 1066.87l-10.8-43.72h-3.9c-.75 0-1.125-.38-1.125-1.13v-3.82c0-.75.375-1.13 1.125-1.13h18.75c.75 0 1.125.38 1.125 1.13v3.82c0 .75-.375 1.13-1.125 1.13h-5.325l8.025 34.87 10.95-39.9c.2-.7.675-1.05 1.425-1.05h6.15c.75 0 1.225.35 1.425 1.05l10.875 40.13 8.625-35.1h-4.95c-.75 0-1.125-.38-1.125-1.13v-3.82c0-.75.375-1.13 1.125-1.13h15.825c.75 0 1.125.38 1.125 1.13v3.82c0 .75-.375 1.13-1.125 1.13h-3.975l-11.55 43.72c-.2.75-.675 1.13-1.425 1.13h-7.05c-.75 0-1.225-.35-1.425-1.05l-10.5-37.35-10.05 37.35c-.2.7-.675 1.05-1.425 1.05h-8.25c-.75 0-1.225-.38-1.425-1.13Zm77.174-21.15v-2.62c0-3.55-1-5.78-3-6.68-.95-.4-2.325-.6-4.125-.6-3.4 0-5.45 1.6-6.15 4.8-.15.75-.525 1.13-1.125 1.13h-4.8c-.8 0-1.15-.38-1.05-1.13.2-3.65 1.675-6.32 4.425-8.02 2.75-1.7 6.25-2.55 10.5-2.55 8.95 0 13.425 4.1 13.425 12.3v19.72h3.225c.75 0 1.125.38 1.125 1.13v3.67c0 .75-.375 1.13-1.125 1.13h-8.85c-.65 0-1.025-.38-1.125-1.13l-.525-3.45c-2.7 3.65-6.6 5.48-11.7 5.48-3.2 0-5.85-.83-7.95-2.48-2.1-1.7-3.15-4.4-3.15-8.1 0-4.85 2.025-8.17 6.075-9.97 3.35-1.55 7.35-2.4 12-2.55.95 0 2.25-.03 3.9-.08Zm.15 10.95v-5.77c-4.8 0-7.75.22-8.85.67-1.1.45-2.075.9-2.925 1.35-1.6.85-2.4 2.4-2.4 4.65 0 3.45 1.975 5.18 5.925 5.18 2.6 0 4.625-.6 6.075-1.8 1.45-1.25 2.175-2.68 2.175-4.28Zm28.041-19.65v18.9c0 2.35.3 4.05.9 5.1.6 1.05 1.725 1.58 3.375 1.58s3.25-.35 4.8-1.05c.55-.2.95 0 1.2.6l1.35 3.45c.05.15.075.37.075.67 0 .25-.25.53-.75.83-2.4 1.2-5.25 1.8-8.55 1.8-4.45 0-7.375-1.15-8.775-3.45-1-1.5-1.575-2.95-1.725-4.35-.2-1.9-.3-3.9-.3-6v-18.08h-4.275c-.75 0-1.125-.37-1.125-1.12v-3.9c0-.75.375-1.13 1.125-1.13h4.275v-10.12c0-.75.375-1.13 1.125-1.13h6.15c.75 0 1.125.38 1.125 1.13v10.12h7.575c.75 0 1.125.38 1.125 1.13v3.9c0 .75-.375 1.12-1.125 1.12h-7.575Zm32.636 31.88c-5.95 0-10.325-1.73-13.125-5.18-2.75-3.5-4.125-8.1-4.125-13.8 0-5.75 1.475-10.5 4.425-14.25 2.95-3.75 7.2-5.62 12.75-5.62 2.75 0 5.1.52 7.05 1.57 2 1 3.525 2.38 4.575 4.13 2 3.4 3 7.32 3 11.77 0 2.1-.1 3.25-.3 3.45-.2.2-.575.3-1.125.3h-22.05c.25 3.6 1.125 6.4 2.625 8.4 1.55 1.95 4.2 2.93 7.95 2.93 2.75 0 5.575-.65 8.475-1.95.7-.35 1.2-.15 1.5.6l1.425 3.45c.25.6.025 1.1-.675 1.5-3.3 1.8-7.425 2.7-12.375 2.7Zm-8.925-23.18h15.6c.1-6.25-2.35-9.37-7.35-9.37-2.95 0-5.05.95-6.3 2.85-1.2 1.85-1.85 4.02-1.95 6.52Zm40.744-8.4c.85-2 2.225-3.7 4.125-5.1 1.9-1.45 3.975-2.17 6.225-2.17 2.25 0 3.975.2 5.175.6.6.2.9.65.9 1.35v10.12c0 .75-.375 1.13-1.125 1.13h-4.875c-.75 0-1.1-.38-1.05-1.13l.3-4.35c-.25-.05-.675-.07-1.275-.07-2.3 0-4.2.95-5.7 2.85-1.5 1.85-2.25 4.35-2.25 7.5v14.02h8.25c.75 0 1.125.38 1.125 1.13v3.67c0 .75-.375 1.13-1.125 1.13h-20.625c-.75 0-1.125-.38-1.125-1.13v-3.67c0-.75.375-1.13 1.125-1.13h3.975v-25.05h-4.05c-.75 0-1.125-.37-1.125-1.12v-3.9c0-.75.375-1.13 1.125-1.13h9.9c.7 0 1.125.38 1.275 1.13l.825 5.32Zm34.513-.37v25.12h7.95c.75 0 1.125.38 1.125 1.13v3.67c0 .75-.375 1.13-1.125 1.13h-21c-.75 0-1.125-.38-1.125-1.13v-3.67c0-.75.375-1.13 1.125-1.13h4.65v-25.12h-4.65c-.75 0-1.125-.38-1.125-1.13V1032c0-.75.375-1.13 1.125-1.13h4.65v-7.27c0-6 1.875-9.83 5.625-11.48 1.55-.7 3.675-1.05 6.375-1.05s5.45.63 8.25 1.88c.45.2.675.45.675.75s-.025.52-.075.67l-1.125 3.75c-.25.6-.675.78-1.275.53-2-.9-3.9-1.35-5.7-1.35-1.8 0-2.975.6-3.525 1.8-.55 1.15-.825 3.25-.825 6.3v5.47h9.075c.75 0 1.125.38 1.125 1.13v3.82c0 .75-.375 1.13-1.125 1.13h-9.075Zm34.706 8.77v-2.62c0-3.55-1-5.78-3-6.68-.95-.4-2.325-.6-4.125-.6-3.4 0-5.45 1.6-6.15 4.8-.15.75-.525 1.13-1.125 1.13h-4.8c-.8 0-1.15-.38-1.05-1.13.2-3.65 1.675-6.32 4.425-8.02 2.75-1.7 6.25-2.55 10.5-2.55 8.95 0 13.425 4.1 13.425 12.3v19.72h3.225c.75 0 1.125.38 1.125 1.13v3.67c0 .75-.375 1.13-1.125 1.13h-8.85c-.65 0-1.025-.38-1.125-1.13l-.525-3.45c-2.7 3.65-6.6 5.48-11.7 5.48-3.2 0-5.85-.83-7.95-2.48-2.1-1.7-3.15-4.4-3.15-8.1 0-4.85 2.025-8.17 6.075-9.97 3.35-1.55 7.35-2.4 12-2.55.95 0 2.25-.03 3.9-.08Zm.15 10.95v-5.77c-4.8 0-7.75.22-8.85.67-1.1.45-2.075.9-2.925 1.35-1.6.85-2.4 2.4-2.4 4.65 0 3.45 1.975 5.18 5.925 5.18 2.6 0 4.625-.6 6.075-1.8 1.45-1.25 2.175-2.68 2.175-4.28Zm30.031-43.5v48.9h4.725c.75 0 1.125.38 1.125 1.13v3.67c0 .75-.375 1.13-1.125 1.13h-17.85c-.75 0-1.125-.38-1.125-1.13v-3.67c0-.75.375-1.13 1.125-1.13h4.725v-43.87h-4.05c-.75 0-1.125-.38-1.125-1.13v-3.9c0-.75.375-1.12 1.125-1.12h11.325c.75 0 1.125.37 1.125 1.12Zm22.046 0v48.9h4.725c.75 0 1.125.38 1.125 1.13v3.67c0 .75-.375 1.13-1.125 1.13h-17.85c-.75 0-1.125-.38-1.125-1.13v-3.67c0-.75.375-1.13 1.125-1.13h4.725v-43.87h-4.05c-.75 0-1.125-.38-1.125-1.13v-3.9c0-.75.375-1.12 1.125-1.12h11.325c.75 0 1.125.37 1.125 1.12Z" fill="#000"/></svg>