<svg width="822" height="1134" viewBox="0 0 822 1134" fill="none" xmlns="http://www.w3.org/2000/svg">
<rect width="822" height="1134" rx="50" fill="#F1F7EE"/>
<ellipse cx="129.5" cy="418.933" rx="3.5" ry="3.53743" fill="#393335"/>
<ellipse cx="149.5" cy="418.933" rx="3.5" ry="3.53743" fill="#393335"/>
<ellipse cx="169.5" cy="418.933" rx="3.5" ry="3.53743" fill="#393335"/>
<ellipse cx="189.5" cy="418.933" rx="3.5" ry="3.53743" fill="#393335"/>
<ellipse cx="209.5" cy="418.933" rx="3.5" ry="3.53743" fill="#393335"/>
<ellipse cx="229.5" cy="418.933" rx="3.5" ry="3.53743" fill="#393335"/>
<ellipse cx="529.5" cy="418.933" rx="3.5" ry="3.53743" fill="#393335"/>
<ellipse cx="549.5" cy="418.933" rx="3.5" ry="3.53743" fill="#393335"/>
<ellipse cx="569.5" cy="418.933" rx="3.5" ry="3.53743" fill="#393335"/>
<ellipse cx="589.5" cy="418.933" rx="3.5" ry="3.53743" fill="#393335"/>
<ellipse cx="609.5" cy="418.933" rx="3.5" ry="3.53743" fill="#393335"/>
<ellipse cx="629.5" cy="418.933" rx="3.5" ry="3.53743" fill="#393335"/>
<ellipse cx="649.5" cy="418.933" rx="3.5" ry="3.53743" fill="#393335"/>
<ellipse cx="669.5" cy="418.933" rx="3.5" ry="3.53743" fill="#393335"/>
<ellipse cx="689.5" cy="418.933" rx="3.5" ry="3.53743" fill="#393335"/>
<ellipse cx="129.5" cy="396.698" rx="3.5" ry="3.53743" fill="#393335"/>
<ellipse cx="149.5" cy="396.698" rx="3.5" ry="3.53743" fill="#393335"/>
<ellipse cx="169.5" cy="396.698" rx="3.5" ry="3.53743" fill="#393335"/>
<ellipse cx="189.5" cy="396.698" rx="3.5" ry="3.53743" fill="#393335"/>
<ellipse cx="209.5" cy="396.698" rx="3.5" ry="3.53743" fill="#393335"/>
<ellipse cx="229.5" cy="396.698" rx="3.5" ry="3.53743" fill="#393335"/>
<ellipse cx="529.5" cy="396.698" rx="3.5" ry="3.53743" fill="#393335"/>
<ellipse cx="549.5" cy="396.698" rx="3.5" ry="3.53743" fill="#393335"/>
<ellipse cx="569.5" cy="396.698" rx="3.5" ry="3.53743" fill="#393335"/>
<ellipse cx="589.5" cy="396.698" rx="3.5" ry="3.53743" fill="#393335"/>
<ellipse cx="609.5" cy="396.698" rx="3.5" ry="3.53743" fill="#393335"/>
<ellipse cx="629.5" cy="396.698" rx="3.5" ry="3.53743" fill="#393335"/>
<ellipse cx="649.5" cy="396.698" rx="3.5" ry="3.53743" fill="#393335"/>
<ellipse cx="669.5" cy="396.698" rx="3.5" ry="3.53743" fill="#393335"/>
<ellipse cx="689.5" cy="396.698" rx="3.5" ry="3.53743" fill="#393335"/>
<ellipse cx="129.5" cy="374.463" rx="3.5" ry="3.53743" fill="#393335"/>
<ellipse cx="149.5" cy="374.463" rx="3.5" ry="3.53743" fill="#393335"/>
<ellipse cx="169.5" cy="374.463" rx="3.5" ry="3.53743" fill="#393335"/>
<ellipse cx="189.5" cy="374.463" rx="3.5" ry="3.53743" fill="#393335"/>
<ellipse cx="209.5" cy="374.463" rx="3.5" ry="3.53743" fill="#393335"/>
<ellipse cx="229.5" cy="374.463" rx="3.5" ry="3.53743" fill="#393335"/>
<ellipse cx="529.5" cy="374.463" rx="3.5" ry="3.53743" fill="#393335"/>
<ellipse cx="549.5" cy="374.463" rx="3.5" ry="3.53743" fill="#393335"/>
<ellipse cx="569.5" cy="374.463" rx="3.5" ry="3.53743" fill="#393335"/>
<ellipse cx="589.5" cy="374.463" rx="3.5" ry="3.53743" fill="#393335"/>
<ellipse cx="609.5" cy="374.463" rx="3.5" ry="3.53743" fill="#393335"/>
<ellipse cx="629.5" cy="374.463" rx="3.5" ry="3.53743" fill="#393335"/>
<ellipse cx="649.5" cy="374.463" rx="3.5" ry="3.53743" fill="#393335"/>
<ellipse cx="669.5" cy="374.463" rx="3.5" ry="3.53743" fill="#393335"/>
<ellipse cx="689.5" cy="374.463" rx="3.5" ry="3.53743" fill="#393335"/>
<ellipse cx="129.5" cy="352.227" rx="3.5" ry="3.53743" fill="#393335"/>
<ellipse cx="149.5" cy="352.227" rx="3.5" ry="3.53743" fill="#393335"/>
<ellipse cx="169.5" cy="352.227" rx="3.5" ry="3.53743" fill="#393335"/>
<ellipse cx="189.5" cy="352.227" rx="3.5" ry="3.53743" fill="#393335"/>
<ellipse cx="209.5" cy="352.227" rx="3.5" ry="3.53743" fill="#393335"/>
<ellipse cx="229.5" cy="352.227" rx="3.5" ry="3.53743" fill="#393335"/>
<ellipse cx="529.5" cy="352.227" rx="3.5" ry="3.53743" fill="#393335"/>
<ellipse cx="549.5" cy="352.227" rx="3.5" ry="3.53743" fill="#393335"/>
<ellipse cx="569.5" cy="352.227" rx="3.5" ry="3.53743" fill="#393335"/>
<ellipse cx="589.5" cy="352.227" rx="3.5" ry="3.53743" fill="#393335"/>
<ellipse cx="609.5" cy="352.227" rx="3.5" ry="3.53743" fill="#393335"/>
<ellipse cx="629.5" cy="352.227" rx="3.5" ry="3.53743" fill="#393335"/>
<ellipse cx="649.5" cy="352.227" rx="3.5" ry="3.53743" fill="#393335"/>
<ellipse cx="669.5" cy="352.227" rx="3.5" ry="3.53743" fill="#393335"/>
<ellipse cx="689.5" cy="352.227" rx="3.5" ry="3.53743" fill="#393335"/>
<ellipse cx="129.5" cy="329.992" rx="3.5" ry="3.53743" fill="#393335"/>
<ellipse cx="149.5" cy="329.992" rx="3.5" ry="3.53743" fill="#393335"/>
<ellipse cx="169.5" cy="329.992" rx="3.5" ry="3.53743" fill="#393335"/>
<ellipse cx="189.5" cy="329.992" rx="3.5" ry="3.53743" fill="#393335"/>
<ellipse cx="209.5" cy="329.992" rx="3.5" ry="3.53743" fill="#393335"/>
<ellipse cx="229.5" cy="329.992" rx="3.5" ry="3.53743" fill="#393335"/>
<ellipse cx="529.5" cy="329.992" rx="3.5" ry="3.53743" fill="#393335"/>
<ellipse cx="549.5" cy="329.992" rx="3.5" ry="3.53743" fill="#393335"/>
<ellipse cx="569.5" cy="329.992" rx="3.5" ry="3.53743" fill="#393335"/>
<ellipse cx="589.5" cy="329.992" rx="3.5" ry="3.53743" fill="#393335"/>
<ellipse cx="609.5" cy="329.992" rx="3.5" ry="3.53743" fill="#393335"/>
<ellipse cx="629.5" cy="329.992" rx="3.5" ry="3.53743" fill="#393335"/>
<ellipse cx="649.5" cy="329.992" rx="3.5" ry="3.53743" fill="#393335"/>
<ellipse cx="669.5" cy="329.992" rx="3.5" ry="3.53743" fill="#393335"/>
<ellipse cx="689.5" cy="329.992" rx="3.5" ry="3.53743" fill="#393335"/>
<ellipse cx="129.5" cy="307.757" rx="3.5" ry="3.53743" fill="#393335"/>
<ellipse cx="149.5" cy="307.757" rx="3.5" ry="3.53743" fill="#393335"/>
<ellipse cx="169.5" cy="307.757" rx="3.5" ry="3.53743" fill="#393335"/>
<ellipse cx="189.5" cy="307.757" rx="3.5" ry="3.53743" fill="#393335"/>
<ellipse cx="209.5" cy="307.757" rx="3.5" ry="3.53743" fill="#393335"/>
<ellipse cx="229.5" cy="307.757" rx="3.5" ry="3.53743" fill="#393335"/>
<ellipse cx="249.5" cy="307.757" rx="3.5" ry="3.53743" fill="#393335"/>
<ellipse cx="269.5" cy="307.757" rx="3.5" ry="3.53743" fill="#393335"/>
<ellipse cx="289.5" cy="307.757" rx="3.5" ry="3.53743" fill="#393335"/>
<ellipse cx="309.5" cy="307.757" rx="3.5" ry="3.53743" fill="#393335"/>
<ellipse cx="329.5" cy="307.757" rx="3.5" ry="3.53743" fill="#393335"/>
<ellipse cx="349.5" cy="307.757" rx="3.5" ry="3.53743" fill="#393335"/>
<ellipse cx="369.5" cy="307.757" rx="3.5" ry="3.53743" fill="#393335"/>
<ellipse cx="389.5" cy="307.757" rx="3.5" ry="3.53743" fill="#393335"/>
<ellipse cx="409.5" cy="307.757" rx="3.5" ry="3.53743" fill="#393335"/>
<ellipse cx="429.5" cy="307.757" rx="3.5" ry="3.53743" fill="#393335"/>
<ellipse cx="449.5" cy="307.757" rx="3.5" ry="3.53743" fill="#393335"/>
<ellipse cx="469.5" cy="307.757" rx="3.5" ry="3.53743" fill="#393335"/>
<ellipse cx="489.5" cy="307.757" rx="3.5" ry="3.53743" fill="#393335"/>
<ellipse cx="509.5" cy="307.757" rx="3.5" ry="3.53743" fill="#393335"/>
<ellipse cx="529.5" cy="307.757" rx="3.5" ry="3.53743" fill="#393335"/>
<ellipse cx="549.5" cy="307.757" rx="3.5" ry="3.53743" fill="#393335"/>
<ellipse cx="569.5" cy="307.757" rx="3.5" ry="3.53743" fill="#393335"/>
<ellipse cx="589.5" cy="307.757" rx="3.5" ry="3.53743" fill="#393335"/>
<ellipse cx="609.5" cy="307.757" rx="3.5" ry="3.53743" fill="#393335"/>
<ellipse cx="629.5" cy="307.757" rx="3.5" ry="3.53743" fill="#393335"/>
<ellipse cx="649.5" cy="307.757" rx="3.5" ry="3.53743" fill="#393335"/>
<ellipse cx="669.5" cy="307.757" rx="3.5" ry="3.53743" fill="#393335"/>
<ellipse cx="689.5" cy="307.757" rx="3.5" ry="3.53743" fill="#393335"/>
<ellipse cx="129.5" cy="285.521" rx="3.5" ry="3.53743" fill="#393335"/>
<ellipse cx="149.5" cy="285.521" rx="3.5" ry="3.53743" fill="#393335"/>
<ellipse cx="169.5" cy="285.521" rx="3.5" ry="3.53743" fill="#393335"/>
<ellipse cx="189.5" cy="285.521" rx="3.5" ry="3.53743" fill="#393335"/>
<ellipse cx="209.5" cy="285.521" rx="3.5" ry="3.53743" fill="#393335"/>
<ellipse cx="229.5" cy="285.521" rx="3.5" ry="3.53743" fill="#393335"/>
<ellipse cx="249.5" cy="285.521" rx="3.5" ry="3.53743" fill="#393335"/>
<ellipse cx="269.5" cy="285.521" rx="3.5" ry="3.53743" fill="#393335"/>
<ellipse cx="289.5" cy="285.521" rx="3.5" ry="3.53743" fill="#393335"/>
<ellipse cx="309.5" cy="285.521" rx="3.5" ry="3.53743" fill="#393335"/>
<ellipse cx="329.5" cy="285.521" rx="3.5" ry="3.53743" fill="#393335"/>
<ellipse cx="349.5" cy="285.521" rx="3.5" ry="3.53743" fill="#393335"/>
<ellipse cx="369.5" cy="285.521" rx="3.5" ry="3.53743" fill="#393335"/>
<ellipse cx="389.5" cy="285.521" rx="3.5" ry="3.53743" fill="#393335"/>
<ellipse cx="409.5" cy="285.521" rx="3.5" ry="3.53743" fill="#393335"/>
<ellipse cx="429.5" cy="285.521" rx="3.5" ry="3.53743" fill="#393335"/>
<ellipse cx="449.5" cy="285.521" rx="3.5" ry="3.53743" fill="#393335"/>
<ellipse cx="469.5" cy="285.521" rx="3.5" ry="3.53743" fill="#393335"/>
<ellipse cx="489.5" cy="285.521" rx="3.5" ry="3.53743" fill="#393335"/>
<ellipse cx="509.5" cy="285.521" rx="3.5" ry="3.53743" fill="#393335"/>
<ellipse cx="529.5" cy="285.521" rx="3.5" ry="3.53743" fill="#393335"/>
<ellipse cx="549.5" cy="285.521" rx="3.5" ry="3.53743" fill="#393335"/>
<ellipse cx="569.5" cy="285.521" rx="3.5" ry="3.53743" fill="#393335"/>
<ellipse cx="589.5" cy="285.521" rx="3.5" ry="3.53743" fill="#393335"/>
<ellipse cx="609.5" cy="285.521" rx="3.5" ry="3.53743" fill="#393335"/>
<ellipse cx="629.5" cy="285.521" rx="3.5" ry="3.53743" fill="#393335"/>
<ellipse cx="649.5" cy="285.521" rx="3.5" ry="3.53743" fill="#393335"/>
<ellipse cx="669.5" cy="285.521" rx="3.5" ry="3.53743" fill="#393335"/>
<ellipse cx="689.5" cy="285.521" rx="3.5" ry="3.53743" fill="#393335"/>
<ellipse cx="129.5" cy="263.286" rx="3.5" ry="3.53743" fill="#393335"/>
<ellipse cx="149.5" cy="263.286" rx="3.5" ry="3.53743" fill="#393335"/>
<ellipse cx="169.5" cy="263.286" rx="3.5" ry="3.53743" fill="#393335"/>
<ellipse cx="189.5" cy="263.286" rx="3.5" ry="3.53743" fill="#393335"/>
<ellipse cx="209.5" cy="263.286" rx="3.5" ry="3.53743" fill="#393335"/>
<ellipse cx="229.5" cy="263.286" rx="3.5" ry="3.53743" fill="#393335"/>
<ellipse cx="249.5" cy="263.286" rx="3.5" ry="3.53743" fill="#393335"/>
<ellipse cx="269.5" cy="263.286" rx="3.5" ry="3.53743" fill="#393335"/>
<ellipse cx="289.5" cy="263.286" rx="3.5" ry="3.53743" fill="#393335"/>
<ellipse cx="309.5" cy="263.286" rx="3.5" ry="3.53743" fill="#393335"/>
<ellipse cx="329.5" cy="263.286" rx="3.5" ry="3.53743" fill="#393335"/>
<ellipse cx="349.5" cy="263.286" rx="3.5" ry="3.53743" fill="#393335"/>
<ellipse cx="369.5" cy="263.286" rx="3.5" ry="3.53743" fill="#393335"/>
<ellipse cx="389.5" cy="263.286" rx="3.5" ry="3.53743" fill="#393335"/>
<ellipse cx="409.5" cy="263.286" rx="3.5" ry="3.53743" fill="#393335"/>
<ellipse cx="429.5" cy="263.286" rx="3.5" ry="3.53743" fill="#393335"/>
<ellipse cx="449.5" cy="263.286" rx="3.5" ry="3.53743" fill="#393335"/>
<ellipse cx="469.5" cy="263.286" rx="3.5" ry="3.53743" fill="#393335"/>
<ellipse cx="489.5" cy="263.286" rx="3.5" ry="3.53743" fill="#393335"/>
<ellipse cx="509.5" cy="263.286" rx="3.5" ry="3.53743" fill="#393335"/>
<ellipse cx="529.5" cy="263.286" rx="3.5" ry="3.53743" fill="#393335"/>
<ellipse cx="549.5" cy="263.286" rx="3.5" ry="3.53743" fill="#393335"/>
<ellipse cx="569.5" cy="263.286" rx="3.5" ry="3.53743" fill="#393335"/>
<ellipse cx="589.5" cy="263.286" rx="3.5" ry="3.53743" fill="#393335"/>
<ellipse cx="609.5" cy="263.286" rx="3.5" ry="3.53743" fill="#393335"/>
<ellipse cx="629.5" cy="263.286" rx="3.5" ry="3.53743" fill="#393335"/>
<ellipse cx="649.5" cy="263.286" rx="3.5" ry="3.53743" fill="#393335"/>
<ellipse cx="669.5" cy="263.286" rx="3.5" ry="3.53743" fill="#393335"/>
<ellipse cx="689.5" cy="263.286" rx="3.5" ry="3.53743" fill="#393335"/>
<ellipse cx="129.5" cy="241.051" rx="3.5" ry="3.53743" fill="#393335"/>
<ellipse cx="149.5" cy="241.051" rx="3.5" ry="3.53743" fill="#393335"/>
<ellipse cx="169.5" cy="241.051" rx="3.5" ry="3.53743" fill="#393335"/>
<ellipse cx="189.5" cy="241.051" rx="3.5" ry="3.53743" fill="#393335"/>
<ellipse cx="209.5" cy="241.051" rx="3.5" ry="3.53743" fill="#393335"/>
<ellipse cx="229.5" cy="241.051" rx="3.5" ry="3.53743" fill="#393335"/>
<ellipse cx="249.5" cy="241.051" rx="3.5" ry="3.53743" fill="#393335"/>
<ellipse cx="269.5" cy="241.051" rx="3.5" ry="3.53743" fill="#393335"/>
<ellipse cx="289.5" cy="241.051" rx="3.5" ry="3.53743" fill="#393335"/>
<ellipse cx="309.5" cy="241.051" rx="3.5" ry="3.53743" fill="#393335"/>
<ellipse cx="329.5" cy="241.051" rx="3.5" ry="3.53743" fill="#393335"/>
<ellipse cx="349.5" cy="241.051" rx="3.5" ry="3.53743" fill="#393335"/>
<ellipse cx="369.5" cy="241.051" rx="3.5" ry="3.53743" fill="#393335"/>
<ellipse cx="389.5" cy="241.051" rx="3.5" ry="3.53743" fill="#393335"/>
<ellipse cx="409.5" cy="241.051" rx="3.5" ry="3.53743" fill="#393335"/>
<ellipse cx="429.5" cy="241.051" rx="3.5" ry="3.53743" fill="#393335"/>
<ellipse cx="449.5" cy="241.051" rx="3.5" ry="3.53743" fill="#393335"/>
<ellipse cx="469.5" cy="241.051" rx="3.5" ry="3.53743" fill="#393335"/>
<ellipse cx="489.5" cy="241.051" rx="3.5" ry="3.53743" fill="#393335"/>
<ellipse cx="509.5" cy="241.051" rx="3.5" ry="3.53743" fill="#393335"/>
<ellipse cx="529.5" cy="241.051" rx="3.5" ry="3.53743" fill="#393335"/>
<ellipse cx="549.5" cy="241.051" rx="3.5" ry="3.53743" fill="#393335"/>
<ellipse cx="569.5" cy="241.051" rx="3.5" ry="3.53743" fill="#393335"/>
<ellipse cx="589.5" cy="241.051" rx="3.5" ry="3.53743" fill="#393335"/>
<ellipse cx="609.5" cy="241.051" rx="3.5" ry="3.53743" fill="#393335"/>
<ellipse cx="629.5" cy="241.051" rx="3.5" ry="3.53743" fill="#393335"/>
<ellipse cx="649.5" cy="241.051" rx="3.5" ry="3.53743" fill="#393335"/>
<ellipse cx="669.5" cy="241.051" rx="3.5" ry="3.53743" fill="#393335"/>
<ellipse cx="689.5" cy="241.051" rx="3.5" ry="3.53743" fill="#393335"/>
<ellipse cx="129.5" cy="218.816" rx="3.5" ry="3.53743" fill="#393335"/>
<ellipse cx="149.5" cy="218.816" rx="3.5" ry="3.53743" fill="#393335"/>
<ellipse cx="169.5" cy="218.816" rx="3.5" ry="3.53743" fill="#393335"/>
<ellipse cx="189.5" cy="218.816" rx="3.5" ry="3.53743" fill="#393335"/>
<ellipse cx="209.5" cy="218.816" rx="3.5" ry="3.53743" fill="#393335"/>
<ellipse cx="229.5" cy="218.816" rx="3.5" ry="3.53743" fill="#393335"/>
<ellipse cx="249.5" cy="218.816" rx="3.5" ry="3.53743" fill="#393335"/>
<ellipse cx="269.5" cy="218.816" rx="3.5" ry="3.53743" fill="#393335"/>
<ellipse cx="289.5" cy="218.816" rx="3.5" ry="3.53743" fill="#393335"/>
<ellipse cx="309.5" cy="218.816" rx="3.5" ry="3.53743" fill="#393335"/>
<ellipse cx="329.5" cy="218.816" rx="3.5" ry="3.53743" fill="#393335"/>
<ellipse cx="349.5" cy="218.816" rx="3.5" ry="3.53743" fill="#393335"/>
<ellipse cx="369.5" cy="218.816" rx="3.5" ry="3.53743" fill="#393335"/>
<ellipse cx="389.5" cy="218.816" rx="3.5" ry="3.53743" fill="#393335"/>
<ellipse cx="409.5" cy="218.816" rx="3.5" ry="3.53743" fill="#393335"/>
<ellipse cx="429.5" cy="218.816" rx="3.5" ry="3.53743" fill="#393335"/>
<ellipse cx="449.5" cy="218.816" rx="3.5" ry="3.53743" fill="#393335"/>
<ellipse cx="469.5" cy="218.816" rx="3.5" ry="3.53743" fill="#393335"/>
<ellipse cx="489.5" cy="218.816" rx="3.5" ry="3.53743" fill="#393335"/>
<ellipse cx="509.5" cy="218.816" rx="3.5" ry="3.53743" fill="#393335"/>
<ellipse cx="529.5" cy="218.816" rx="3.5" ry="3.53743" fill="#393335"/>
<ellipse cx="549.5" cy="218.816" rx="3.5" ry="3.53743" fill="#393335"/>
<ellipse cx="569.5" cy="218.816" rx="3.5" ry="3.53743" fill="#393335"/>
<ellipse cx="589.5" cy="218.816" rx="3.5" ry="3.53743" fill="#393335"/>
<ellipse cx="609.5" cy="218.816" rx="3.5" ry="3.53743" fill="#393335"/>
<ellipse cx="629.5" cy="218.816" rx="3.5" ry="3.53743" fill="#393335"/>
<ellipse cx="649.5" cy="218.816" rx="3.5" ry="3.53743" fill="#393335"/>
<ellipse cx="669.5" cy="218.816" rx="3.5" ry="3.53743" fill="#393335"/>
<ellipse cx="689.5" cy="218.816" rx="3.5" ry="3.53743" fill="#393335"/>
<ellipse cx="129.5" cy="196.58" rx="3.5" ry="3.53743" fill="#393335"/>
<ellipse cx="149.5" cy="196.58" rx="3.5" ry="3.53743" fill="#393335"/>
<ellipse cx="169.5" cy="196.58" rx="3.5" ry="3.53743" fill="#393335"/>
<ellipse cx="189.5" cy="196.58" rx="3.5" ry="3.53743" fill="#393335"/>
<ellipse cx="209.5" cy="196.58" rx="3.5" ry="3.53743" fill="#393335"/>
<ellipse cx="229.5" cy="196.58" rx="3.5" ry="3.53743" fill="#393335"/>
<ellipse cx="249.5" cy="196.58" rx="3.5" ry="3.53743" fill="#393335"/>
<ellipse cx="269.5" cy="196.58" rx="3.5" ry="3.53743" fill="#393335"/>
<ellipse cx="289.5" cy="196.58" rx="3.5" ry="3.53743" fill="#393335"/>
<ellipse cx="309.5" cy="196.58" rx="3.5" ry="3.53743" fill="#393335"/>
<ellipse cx="329.5" cy="196.58" rx="3.5" ry="3.53743" fill="#393335"/>
<ellipse cx="349.5" cy="196.58" rx="3.5" ry="3.53743" fill="#393335"/>
<ellipse cx="369.5" cy="196.58" rx="3.5" ry="3.53743" fill="#393335"/>
<ellipse cx="389.5" cy="196.58" rx="3.5" ry="3.53743" fill="#393335"/>
<ellipse cx="409.5" cy="196.58" rx="3.5" ry="3.53743" fill="#393335"/>
<ellipse cx="429.5" cy="196.58" rx="3.5" ry="3.53743" fill="#393335"/>
<ellipse cx="449.5" cy="196.58" rx="3.5" ry="3.53743" fill="#393335"/>
<ellipse cx="469.5" cy="196.58" rx="3.5" ry="3.53743" fill="#393335"/>
<ellipse cx="489.5" cy="196.58" rx="3.5" ry="3.53743" fill="#393335"/>
<ellipse cx="509.5" cy="196.58" rx="3.5" ry="3.53743" fill="#393335"/>
<ellipse cx="529.5" cy="196.58" rx="3.5" ry="3.53743" fill="#393335"/>
<ellipse cx="549.5" cy="196.58" rx="3.5" ry="3.53743" fill="#393335"/>
<ellipse cx="569.5" cy="196.58" rx="3.5" ry="3.53743" fill="#393335"/>
<ellipse cx="589.5" cy="196.58" rx="3.5" ry="3.53743" fill="#393335"/>
<ellipse cx="609.5" cy="196.58" rx="3.5" ry="3.53743" fill="#393335"/>
<ellipse cx="629.5" cy="196.58" rx="3.5" ry="3.53743" fill="#393335"/>
<ellipse cx="649.5" cy="196.58" rx="3.5" ry="3.53743" fill="#393335"/>
<ellipse cx="669.5" cy="196.58" rx="3.5" ry="3.53743" fill="#393335"/>
<ellipse cx="689.5" cy="196.58" rx="3.5" ry="3.53743" fill="#393335"/>
<ellipse cx="129.5" cy="174.345" rx="3.5" ry="3.53743" fill="#393335"/>
<ellipse cx="149.5" cy="174.345" rx="3.5" ry="3.53743" fill="#393335"/>
<ellipse cx="169.5" cy="174.345" rx="3.5" ry="3.53743" fill="#393335"/>
<ellipse cx="189.5" cy="174.345" rx="3.5" ry="3.53743" fill="#393335"/>
<ellipse cx="209.5" cy="174.345" rx="3.5" ry="3.53743" fill="#393335"/>
<ellipse cx="229.5" cy="174.345" rx="3.5" ry="3.53743" fill="#393335"/>
<ellipse cx="249.5" cy="174.345" rx="3.5" ry="3.53743" fill="#393335"/>
<ellipse cx="269.5" cy="174.345" rx="3.5" ry="3.53743" fill="#393335"/>
<ellipse cx="289.5" cy="174.345" rx="3.5" ry="3.53743" fill="#393335"/>
<ellipse cx="309.5" cy="174.345" rx="3.5" ry="3.53743" fill="#393335"/>
<ellipse cx="329.5" cy="174.345" rx="3.5" ry="3.53743" fill="#393335"/>
<ellipse cx="349.5" cy="174.345" rx="3.5" ry="3.53743" fill="#393335"/>
<ellipse cx="369.5" cy="174.345" rx="3.5" ry="3.53743" fill="#393335"/>
<ellipse cx="389.5" cy="174.345" rx="3.5" ry="3.53743" fill="#393335"/>
<ellipse cx="409.5" cy="174.345" rx="3.5" ry="3.53743" fill="#393335"/>
<ellipse cx="429.5" cy="174.345" rx="3.5" ry="3.53743" fill="#393335"/>
<ellipse cx="449.5" cy="174.345" rx="3.5" ry="3.53743" fill="#393335"/>
<ellipse cx="469.5" cy="174.345" rx="3.5" ry="3.53743" fill="#393335"/>
<ellipse cx="489.5" cy="174.345" rx="3.5" ry="3.53743" fill="#393335"/>
<ellipse cx="509.5" cy="174.345" rx="3.5" ry="3.53743" fill="#393335"/>
<ellipse cx="529.5" cy="174.345" rx="3.5" ry="3.53743" fill="#393335"/>
<ellipse cx="549.5" cy="174.345" rx="3.5" ry="3.53743" fill="#393335"/>
<ellipse cx="569.5" cy="174.345" rx="3.5" ry="3.53743" fill="#393335"/>
<ellipse cx="589.5" cy="174.345" rx="3.5" ry="3.53743" fill="#393335"/>
<ellipse cx="609.5" cy="174.345" rx="3.5" ry="3.53743" fill="#393335"/>
<ellipse cx="629.5" cy="174.345" rx="3.5" ry="3.53743" fill="#393335"/>
<ellipse cx="649.5" cy="174.345" rx="3.5" ry="3.53743" fill="#393335"/>
<ellipse cx="669.5" cy="174.345" rx="3.5" ry="3.53743" fill="#393335"/>
<ellipse cx="689.5" cy="174.345" rx="3.5" ry="3.53743" fill="#393335"/>
<ellipse cx="129.5" cy="152.11" rx="3.5" ry="3.53743" fill="#393335"/>
<ellipse cx="149.5" cy="152.11" rx="3.5" ry="3.53743" fill="#393335"/>
<ellipse cx="169.5" cy="152.11" rx="3.5" ry="3.53743" fill="#393335"/>
<ellipse cx="189.5" cy="152.11" rx="3.5" ry="3.53743" fill="#393335"/>
<ellipse cx="209.5" cy="152.11" rx="3.5" ry="3.53743" fill="#393335"/>
<ellipse cx="229.5" cy="152.11" rx="3.5" ry="3.53743" fill="#393335"/>
<ellipse cx="249.5" cy="152.11" rx="3.5" ry="3.53743" fill="#393335"/>
<ellipse cx="269.5" cy="152.11" rx="3.5" ry="3.53743" fill="#393335"/>
<ellipse cx="289.5" cy="152.11" rx="3.5" ry="3.53743" fill="#393335"/>
<ellipse cx="309.5" cy="152.11" rx="3.5" ry="3.53743" fill="#393335"/>
<ellipse cx="329.5" cy="152.11" rx="3.5" ry="3.53743" fill="#393335"/>
<ellipse cx="349.5" cy="152.11" rx="3.5" ry="3.53743" fill="#393335"/>
<ellipse cx="369.5" cy="152.11" rx="3.5" ry="3.53743" fill="#393335"/>
<ellipse cx="389.5" cy="152.11" rx="3.5" ry="3.53743" fill="#393335"/>
<ellipse cx="409.5" cy="152.11" rx="3.5" ry="3.53743" fill="#393335"/>
<ellipse cx="429.5" cy="152.11" rx="3.5" ry="3.53743" fill="#393335"/>
<ellipse cx="449.5" cy="152.11" rx="3.5" ry="3.53743" fill="#393335"/>
<ellipse cx="469.5" cy="152.11" rx="3.5" ry="3.53743" fill="#393335"/>
<ellipse cx="489.5" cy="152.11" rx="3.5" ry="3.53743" fill="#393335"/>
<ellipse cx="509.5" cy="152.11" rx="3.5" ry="3.53743" fill="#393335"/>
<ellipse cx="529.5" cy="152.11" rx="3.5" ry="3.53743" fill="#393335"/>
<ellipse cx="549.5" cy="152.11" rx="3.5" ry="3.53743" fill="#393335"/>
<ellipse cx="569.5" cy="152.11" rx="3.5" ry="3.53743" fill="#393335"/>
<ellipse cx="589.5" cy="152.11" rx="3.5" ry="3.53743" fill="#393335"/>
<ellipse cx="609.5" cy="152.11" rx="3.5" ry="3.53743" fill="#393335"/>
<ellipse cx="629.5" cy="152.11" rx="3.5" ry="3.53743" fill="#393335"/>
<ellipse cx="649.5" cy="152.11" rx="3.5" ry="3.53743" fill="#393335"/>
<ellipse cx="669.5" cy="152.11" rx="3.5" ry="3.53743" fill="#393335"/>
<ellipse cx="689.5" cy="152.11" rx="3.5" ry="3.53743" fill="#393335"/>
<ellipse cx="129.5" cy="129.874" rx="3.5" ry="3.53743" fill="#393335"/>
<ellipse cx="149.5" cy="129.874" rx="3.5" ry="3.53743" fill="#393335"/>
<ellipse cx="169.5" cy="129.874" rx="3.5" ry="3.53743" fill="#393335"/>
<ellipse cx="189.5" cy="129.874" rx="3.5" ry="3.53743" fill="#393335"/>
<ellipse cx="209.5" cy="129.874" rx="3.5" ry="3.53743" fill="#393335"/>
<ellipse cx="229.5" cy="129.874" rx="3.5" ry="3.53743" fill="#393335"/>
<ellipse cx="249.5" cy="129.874" rx="3.5" ry="3.53743" fill="#393335"/>
<ellipse cx="269.5" cy="129.874" rx="3.5" ry="3.53743" fill="#393335"/>
<ellipse cx="289.5" cy="129.874" rx="3.5" ry="3.53743" fill="#393335"/>
<ellipse cx="309.5" cy="129.874" rx="3.5" ry="3.53743" fill="#393335"/>
<ellipse cx="329.5" cy="129.874" rx="3.5" ry="3.53743" fill="#393335"/>
<ellipse cx="349.5" cy="129.874" rx="3.5" ry="3.53743" fill="#393335"/>
<ellipse cx="369.5" cy="129.874" rx="3.5" ry="3.53743" fill="#393335"/>
<ellipse cx="389.5" cy="129.874" rx="3.5" ry="3.53743" fill="#393335"/>
<ellipse cx="409.5" cy="129.874" rx="3.5" ry="3.53743" fill="#393335"/>
<ellipse cx="429.5" cy="129.874" rx="3.5" ry="3.53743" fill="#393335"/>
<ellipse cx="449.5" cy="129.874" rx="3.5" ry="3.53743" fill="#393335"/>
<ellipse cx="469.5" cy="129.874" rx="3.5" ry="3.53743" fill="#393335"/>
<ellipse cx="489.5" cy="129.874" rx="3.5" ry="3.53743" fill="#393335"/>
<ellipse cx="509.5" cy="129.874" rx="3.5" ry="3.53743" fill="#393335"/>
<ellipse cx="529.5" cy="129.874" rx="3.5" ry="3.53743" fill="#393335"/>
<ellipse cx="549.5" cy="129.874" rx="3.5" ry="3.53743" fill="#393335"/>
<ellipse cx="569.5" cy="129.874" rx="3.5" ry="3.53743" fill="#393335"/>
<ellipse cx="589.5" cy="129.874" rx="3.5" ry="3.53743" fill="#393335"/>
<ellipse cx="609.5" cy="129.874" rx="3.5" ry="3.53743" fill="#393335"/>
<ellipse cx="629.5" cy="129.874" rx="3.5" ry="3.53743" fill="#393335"/>
<ellipse cx="649.5" cy="129.874" rx="3.5" ry="3.53743" fill="#393335"/>
<ellipse cx="669.5" cy="129.874" rx="3.5" ry="3.53743" fill="#393335"/>
<ellipse cx="689.5" cy="129.874" rx="3.5" ry="3.53743" fill="#393335"/>
<ellipse cx="689.5" cy="714.058" rx="3.5" ry="3.53743" transform="rotate(-180 689.5 714.058)" fill="#393335"/>
<ellipse cx="669.5" cy="714.058" rx="3.5" ry="3.53743" transform="rotate(-180 669.5 714.058)" fill="#393335"/>
<ellipse cx="649.5" cy="714.058" rx="3.5" ry="3.53743" transform="rotate(-180 649.5 714.058)" fill="#393335"/>
<ellipse cx="629.5" cy="714.058" rx="3.5" ry="3.53743" transform="rotate(-180 629.5 714.058)" fill="#393335"/>
<ellipse cx="609.5" cy="714.058" rx="3.5" ry="3.53743" transform="rotate(-180 609.5 714.058)" fill="#393335"/>
<ellipse cx="589.5" cy="714.058" rx="3.5" ry="3.53743" transform="rotate(-180 589.5 714.058)" fill="#393335"/>
<ellipse cx="289.5" cy="714.058" rx="3.5" ry="3.53743" transform="rotate(-180 289.5 714.058)" fill="#393335"/>
<ellipse cx="269.5" cy="714.058" rx="3.5" ry="3.53743" transform="rotate(-180 269.5 714.058)" fill="#393335"/>
<ellipse cx="249.5" cy="714.058" rx="3.5" ry="3.53743" transform="rotate(-180 249.5 714.058)" fill="#393335"/>
<ellipse cx="229.5" cy="714.058" rx="3.5" ry="3.53743" transform="rotate(-180 229.5 714.058)" fill="#393335"/>
<ellipse cx="209.5" cy="714.058" rx="3.5" ry="3.53743" transform="rotate(-180 209.5 714.058)" fill="#393335"/>
<ellipse cx="189.5" cy="714.058" rx="3.5" ry="3.53743" transform="rotate(-180 189.5 714.058)" fill="#393335"/>
<ellipse cx="169.5" cy="714.058" rx="3.5" ry="3.53743" transform="rotate(-180 169.5 714.058)" fill="#393335"/>
<ellipse cx="149.5" cy="714.058" rx="3.5" ry="3.53743" transform="rotate(-180 149.5 714.058)" fill="#393335"/>
<ellipse cx="129.5" cy="714.058" rx="3.5" ry="3.53743" transform="rotate(-180 129.5 714.058)" fill="#393335"/>
<ellipse cx="689.5" cy="736.294" rx="3.5" ry="3.53743" transform="rotate(-180 689.5 736.294)" fill="#393335"/>
<ellipse cx="669.5" cy="736.294" rx="3.5" ry="3.53743" transform="rotate(-180 669.5 736.294)" fill="#393335"/>
<ellipse cx="649.5" cy="736.294" rx="3.5" ry="3.53743" transform="rotate(-180 649.5 736.294)" fill="#393335"/>
<ellipse cx="629.5" cy="736.294" rx="3.5" ry="3.53743" transform="rotate(-180 629.5 736.294)" fill="#393335"/>
<ellipse cx="609.5" cy="736.294" rx="3.5" ry="3.53743" transform="rotate(-180 609.5 736.294)" fill="#393335"/>
<ellipse cx="589.5" cy="736.294" rx="3.5" ry="3.53743" transform="rotate(-180 589.5 736.294)" fill="#393335"/>
<ellipse cx="289.5" cy="736.294" rx="3.5" ry="3.53743" transform="rotate(-180 289.5 736.294)" fill="#393335"/>
<ellipse cx="269.5" cy="736.294" rx="3.5" ry="3.53743" transform="rotate(-180 269.5 736.294)" fill="#393335"/>
<ellipse cx="249.5" cy="736.294" rx="3.5" ry="3.53743" transform="rotate(-180 249.5 736.294)" fill="#393335"/>
<ellipse cx="229.5" cy="736.294" rx="3.5" ry="3.53743" transform="rotate(-180 229.5 736.294)" fill="#393335"/>
<ellipse cx="209.5" cy="736.294" rx="3.5" ry="3.53743" transform="rotate(-180 209.5 736.294)" fill="#393335"/>
<ellipse cx="189.5" cy="736.294" rx="3.5" ry="3.53743" transform="rotate(-180 189.5 736.294)" fill="#393335"/>
<ellipse cx="169.5" cy="736.294" rx="3.5" ry="3.53743" transform="rotate(-180 169.5 736.294)" fill="#393335"/>
<ellipse cx="149.5" cy="736.294" rx="3.5" ry="3.53743" transform="rotate(-180 149.5 736.294)" fill="#393335"/>
<ellipse cx="129.5" cy="736.294" rx="3.5" ry="3.53743" transform="rotate(-180 129.5 736.294)" fill="#393335"/>
<ellipse cx="689.5" cy="758.529" rx="3.5" ry="3.53743" transform="rotate(-180 689.5 758.529)" fill="#393335"/>
<ellipse cx="669.5" cy="758.529" rx="3.5" ry="3.53743" transform="rotate(-180 669.5 758.529)" fill="#393335"/>
<ellipse cx="649.5" cy="758.529" rx="3.5" ry="3.53743" transform="rotate(-180 649.5 758.529)" fill="#393335"/>
<ellipse cx="629.5" cy="758.529" rx="3.5" ry="3.53743" transform="rotate(-180 629.5 758.529)" fill="#393335"/>
<ellipse cx="609.5" cy="758.529" rx="3.5" ry="3.53743" transform="rotate(-180 609.5 758.529)" fill="#393335"/>
<ellipse cx="589.5" cy="758.529" rx="3.5" ry="3.53743" transform="rotate(-180 589.5 758.529)" fill="#393335"/>
<ellipse cx="289.5" cy="758.529" rx="3.5" ry="3.53743" transform="rotate(-180 289.5 758.529)" fill="#393335"/>
<ellipse cx="269.5" cy="758.529" rx="3.5" ry="3.53743" transform="rotate(-180 269.5 758.529)" fill="#393335"/>
<ellipse cx="249.5" cy="758.529" rx="3.5" ry="3.53743" transform="rotate(-180 249.5 758.529)" fill="#393335"/>
<ellipse cx="229.5" cy="758.529" rx="3.5" ry="3.53743" transform="rotate(-180 229.5 758.529)" fill="#393335"/>
<ellipse cx="209.5" cy="758.529" rx="3.5" ry="3.53743" transform="rotate(-180 209.5 758.529)" fill="#393335"/>
<ellipse cx="189.5" cy="758.529" rx="3.5" ry="3.53743" transform="rotate(-180 189.5 758.529)" fill="#393335"/>
<ellipse cx="169.5" cy="758.529" rx="3.5" ry="3.53743" transform="rotate(-180 169.5 758.529)" fill="#393335"/>
<ellipse cx="149.5" cy="758.529" rx="3.5" ry="3.53743" transform="rotate(-180 149.5 758.529)" fill="#393335"/>
<ellipse cx="129.5" cy="758.529" rx="3.5" ry="3.53743" transform="rotate(-180 129.5 758.529)" fill="#393335"/>
<ellipse cx="689.5" cy="780.764" rx="3.5" ry="3.53743" transform="rotate(-180 689.5 780.764)" fill="#393335"/>
<ellipse cx="669.5" cy="780.764" rx="3.5" ry="3.53743" transform="rotate(-180 669.5 780.764)" fill="#393335"/>
<ellipse cx="649.5" cy="780.764" rx="3.5" ry="3.53743" transform="rotate(-180 649.5 780.764)" fill="#393335"/>
<ellipse cx="629.5" cy="780.764" rx="3.5" ry="3.53743" transform="rotate(-180 629.5 780.764)" fill="#393335"/>
<ellipse cx="609.5" cy="780.764" rx="3.5" ry="3.53743" transform="rotate(-180 609.5 780.764)" fill="#393335"/>
<ellipse cx="589.5" cy="780.764" rx="3.5" ry="3.53743" transform="rotate(-180 589.5 780.764)" fill="#393335"/>
<ellipse cx="289.5" cy="780.764" rx="3.5" ry="3.53743" transform="rotate(-180 289.5 780.764)" fill="#393335"/>
<ellipse cx="269.5" cy="780.764" rx="3.5" ry="3.53743" transform="rotate(-180 269.5 780.764)" fill="#393335"/>
<ellipse cx="249.5" cy="780.764" rx="3.5" ry="3.53743" transform="rotate(-180 249.5 780.764)" fill="#393335"/>
<ellipse cx="229.5" cy="780.764" rx="3.5" ry="3.53743" transform="rotate(-180 229.5 780.764)" fill="#393335"/>
<ellipse cx="209.5" cy="780.764" rx="3.5" ry="3.53743" transform="rotate(-180 209.5 780.764)" fill="#393335"/>
<ellipse cx="189.5" cy="780.764" rx="3.5" ry="3.53743" transform="rotate(-180 189.5 780.764)" fill="#393335"/>
<ellipse cx="169.5" cy="780.764" rx="3.5" ry="3.53743" transform="rotate(-180 169.5 780.764)" fill="#393335"/>
<ellipse cx="149.5" cy="780.764" rx="3.5" ry="3.53743" transform="rotate(-180 149.5 780.764)" fill="#393335"/>
<ellipse cx="129.5" cy="780.764" rx="3.5" ry="3.53743" transform="rotate(-180 129.5 780.764)" fill="#393335"/>
<ellipse cx="689.5" cy="803" rx="3.5" ry="3.53743" transform="rotate(-180 689.5 803)" fill="#393335"/>
<ellipse cx="669.5" cy="803" rx="3.5" ry="3.53743" transform="rotate(-180 669.5 803)" fill="#393335"/>
<ellipse cx="649.5" cy="803" rx="3.5" ry="3.53743" transform="rotate(-180 649.5 803)" fill="#393335"/>
<ellipse cx="629.5" cy="803" rx="3.5" ry="3.53743" transform="rotate(-180 629.5 803)" fill="#393335"/>
<ellipse cx="609.5" cy="803" rx="3.5" ry="3.53743" transform="rotate(-180 609.5 803)" fill="#393335"/>
<ellipse cx="589.5" cy="803" rx="3.5" ry="3.53743" transform="rotate(-180 589.5 803)" fill="#393335"/>
<ellipse cx="289.5" cy="803" rx="3.5" ry="3.53743" transform="rotate(-180 289.5 803)" fill="#393335"/>
<ellipse cx="269.5" cy="803" rx="3.5" ry="3.53743" transform="rotate(-180 269.5 803)" fill="#393335"/>
<ellipse cx="249.5" cy="803" rx="3.5" ry="3.53743" transform="rotate(-180 249.5 803)" fill="#393335"/>
<ellipse cx="229.5" cy="803" rx="3.5" ry="3.53743" transform="rotate(-180 229.5 803)" fill="#393335"/>
<ellipse cx="209.5" cy="803" rx="3.5" ry="3.53743" transform="rotate(-180 209.5 803)" fill="#393335"/>
<ellipse cx="189.5" cy="803" rx="3.5" ry="3.53743" transform="rotate(-180 189.5 803)" fill="#393335"/>
<ellipse cx="169.5" cy="803" rx="3.5" ry="3.53743" transform="rotate(-180 169.5 803)" fill="#393335"/>
<ellipse cx="149.5" cy="803" rx="3.5" ry="3.53743" transform="rotate(-180 149.5 803)" fill="#393335"/>
<ellipse cx="129.5" cy="803" rx="3.5" ry="3.53743" transform="rotate(-180 129.5 803)" fill="#393335"/>
<ellipse cx="689.5" cy="825.235" rx="3.5" ry="3.53743" transform="rotate(-180 689.5 825.235)" fill="#393335"/>
<ellipse cx="669.5" cy="825.235" rx="3.5" ry="3.53743" transform="rotate(-180 669.5 825.235)" fill="#393335"/>
<ellipse cx="649.5" cy="825.235" rx="3.5" ry="3.53743" transform="rotate(-180 649.5 825.235)" fill="#393335"/>
<ellipse cx="629.5" cy="825.235" rx="3.5" ry="3.53743" transform="rotate(-180 629.5 825.235)" fill="#393335"/>
<ellipse cx="609.5" cy="825.235" rx="3.5" ry="3.53743" transform="rotate(-180 609.5 825.235)" fill="#393335"/>
<ellipse cx="589.5" cy="825.235" rx="3.5" ry="3.53743" transform="rotate(-180 589.5 825.235)" fill="#393335"/>
<ellipse cx="569.5" cy="825.235" rx="3.5" ry="3.53743" transform="rotate(-180 569.5 825.235)" fill="#393335"/>
<ellipse cx="549.5" cy="825.235" rx="3.5" ry="3.53743" transform="rotate(-180 549.5 825.235)" fill="#393335"/>
<ellipse cx="529.5" cy="825.235" rx="3.5" ry="3.53743" transform="rotate(-180 529.5 825.235)" fill="#393335"/>
<ellipse cx="509.5" cy="825.235" rx="3.5" ry="3.53743" transform="rotate(-180 509.5 825.235)" fill="#393335"/>
<ellipse cx="489.5" cy="825.235" rx="3.5" ry="3.53743" transform="rotate(-180 489.5 825.235)" fill="#393335"/>
<ellipse cx="469.5" cy="825.235" rx="3.5" ry="3.53743" transform="rotate(-180 469.5 825.235)" fill="#393335"/>
<ellipse cx="449.5" cy="825.235" rx="3.5" ry="3.53743" transform="rotate(-180 449.5 825.235)" fill="#393335"/>
<ellipse cx="429.5" cy="825.235" rx="3.5" ry="3.53743" transform="rotate(-180 429.5 825.235)" fill="#393335"/>
<ellipse cx="409.5" cy="825.235" rx="3.5" ry="3.53743" transform="rotate(-180 409.5 825.235)" fill="#393335"/>
<ellipse cx="389.5" cy="825.235" rx="3.5" ry="3.53743" transform="rotate(-180 389.5 825.235)" fill="#393335"/>
<ellipse cx="369.5" cy="825.235" rx="3.5" ry="3.53743" transform="rotate(-180 369.5 825.235)" fill="#393335"/>
<ellipse cx="349.5" cy="825.235" rx="3.5" ry="3.53743" transform="rotate(-180 349.5 825.235)" fill="#393335"/>
<ellipse cx="329.5" cy="825.235" rx="3.5" ry="3.53743" transform="rotate(-180 329.5 825.235)" fill="#393335"/>
<ellipse cx="309.5" cy="825.235" rx="3.5" ry="3.53743" transform="rotate(-180 309.5 825.235)" fill="#393335"/>
<ellipse cx="289.5" cy="825.235" rx="3.5" ry="3.53743" transform="rotate(-180 289.5 825.235)" fill="#393335"/>
<ellipse cx="269.5" cy="825.235" rx="3.5" ry="3.53743" transform="rotate(-180 269.5 825.235)" fill="#393335"/>
<ellipse cx="249.5" cy="825.235" rx="3.5" ry="3.53743" transform="rotate(-180 249.5 825.235)" fill="#393335"/>
<ellipse cx="229.5" cy="825.235" rx="3.5" ry="3.53743" transform="rotate(-180 229.5 825.235)" fill="#393335"/>
<ellipse cx="209.5" cy="825.235" rx="3.5" ry="3.53743" transform="rotate(-180 209.5 825.235)" fill="#393335"/>
<ellipse cx="189.5" cy="825.235" rx="3.5" ry="3.53743" transform="rotate(-180 189.5 825.235)" fill="#393335"/>
<ellipse cx="169.5" cy="825.235" rx="3.5" ry="3.53743" transform="rotate(-180 169.5 825.235)" fill="#393335"/>
<ellipse cx="149.5" cy="825.235" rx="3.5" ry="3.53743" transform="rotate(-180 149.5 825.235)" fill="#393335"/>
<ellipse cx="129.5" cy="825.235" rx="3.5" ry="3.53743" transform="rotate(-180 129.5 825.235)" fill="#393335"/>
<ellipse cx="689.5" cy="847.469" rx="3.5" ry="3.53743" transform="rotate(-180 689.5 847.469)" fill="#393335"/>
<ellipse cx="669.5" cy="847.469" rx="3.5" ry="3.53743" transform="rotate(-180 669.5 847.469)" fill="#393335"/>
<ellipse cx="649.5" cy="847.469" rx="3.5" ry="3.53743" transform="rotate(-180 649.5 847.469)" fill="#393335"/>
<ellipse cx="629.5" cy="847.469" rx="3.5" ry="3.53743" transform="rotate(-180 629.5 847.469)" fill="#393335"/>
<ellipse cx="609.5" cy="847.469" rx="3.5" ry="3.53743" transform="rotate(-180 609.5 847.469)" fill="#393335"/>
<ellipse cx="589.5" cy="847.469" rx="3.5" ry="3.53743" transform="rotate(-180 589.5 847.469)" fill="#393335"/>
<ellipse cx="569.5" cy="847.47" rx="3.5" ry="3.53743" transform="rotate(-180 569.5 847.47)" fill="#393335"/>
<ellipse cx="549.5" cy="847.47" rx="3.5" ry="3.53743" transform="rotate(-180 549.5 847.47)" fill="#393335"/>
<ellipse cx="529.5" cy="847.47" rx="3.5" ry="3.53743" transform="rotate(-180 529.5 847.47)" fill="#393335"/>
<ellipse cx="509.5" cy="847.469" rx="3.5" ry="3.53743" transform="rotate(-180 509.5 847.469)" fill="#393335"/>
<ellipse cx="489.5" cy="847.469" rx="3.5" ry="3.53743" transform="rotate(-180 489.5 847.469)" fill="#393335"/>
<ellipse cx="469.5" cy="847.469" rx="3.5" ry="3.53743" transform="rotate(-180 469.5 847.469)" fill="#393335"/>
<ellipse cx="449.5" cy="847.469" rx="3.5" ry="3.53743" transform="rotate(-180 449.5 847.469)" fill="#393335"/>
<ellipse cx="429.5" cy="847.469" rx="3.5" ry="3.53743" transform="rotate(-180 429.5 847.469)" fill="#393335"/>
<ellipse cx="409.5" cy="847.469" rx="3.5" ry="3.53743" transform="rotate(-180 409.5 847.469)" fill="#393335"/>
<ellipse cx="389.5" cy="847.47" rx="3.5" ry="3.53743" transform="rotate(-180 389.5 847.47)" fill="#393335"/>
<ellipse cx="369.5" cy="847.47" rx="3.5" ry="3.53743" transform="rotate(-180 369.5 847.47)" fill="#393335"/>
<ellipse cx="349.5" cy="847.47" rx="3.5" ry="3.53743" transform="rotate(-180 349.5 847.47)" fill="#393335"/>
<ellipse cx="329.5" cy="847.469" rx="3.5" ry="3.53743" transform="rotate(-180 329.5 847.469)" fill="#393335"/>
<ellipse cx="309.5" cy="847.469" rx="3.5" ry="3.53743" transform="rotate(-180 309.5 847.469)" fill="#393335"/>
<ellipse cx="289.5" cy="847.469" rx="3.5" ry="3.53743" transform="rotate(-180 289.5 847.469)" fill="#393335"/>
<ellipse cx="269.5" cy="847.469" rx="3.5" ry="3.53743" transform="rotate(-180 269.5 847.469)" fill="#393335"/>
<ellipse cx="249.5" cy="847.469" rx="3.5" ry="3.53743" transform="rotate(-180 249.5 847.469)" fill="#393335"/>
<ellipse cx="229.5" cy="847.469" rx="3.5" ry="3.53743" transform="rotate(-180 229.5 847.469)" fill="#393335"/>
<ellipse cx="209.5" cy="847.47" rx="3.5" ry="3.53743" transform="rotate(-180 209.5 847.47)" fill="#393335"/>
<ellipse cx="189.5" cy="847.47" rx="3.5" ry="3.53743" transform="rotate(-180 189.5 847.47)" fill="#393335"/>
<ellipse cx="169.5" cy="847.469" rx="3.5" ry="3.53743" transform="rotate(-180 169.5 847.469)" fill="#393335"/>
<ellipse cx="149.5" cy="847.469" rx="3.5" ry="3.53743" transform="rotate(-180 149.5 847.469)" fill="#393335"/>
<ellipse cx="129.5" cy="847.469" rx="3.5" ry="3.53743" transform="rotate(-180 129.5 847.469)" fill="#393335"/>
<ellipse cx="689.5" cy="869.705" rx="3.5" ry="3.53743" transform="rotate(-180 689.5 869.705)" fill="#393335"/>
<ellipse cx="669.5" cy="869.705" rx="3.5" ry="3.53743" transform="rotate(-180 669.5 869.705)" fill="#393335"/>
<ellipse cx="649.5" cy="869.705" rx="3.5" ry="3.53743" transform="rotate(-180 649.5 869.705)" fill="#393335"/>
<ellipse cx="629.5" cy="869.705" rx="3.5" ry="3.53743" transform="rotate(-180 629.5 869.705)" fill="#393335"/>
<ellipse cx="609.5" cy="869.705" rx="3.5" ry="3.53743" transform="rotate(-180 609.5 869.705)" fill="#393335"/>
<ellipse cx="589.5" cy="869.705" rx="3.5" ry="3.53743" transform="rotate(-180 589.5 869.705)" fill="#393335"/>
<ellipse cx="569.5" cy="869.705" rx="3.5" ry="3.53743" transform="rotate(-180 569.5 869.705)" fill="#393335"/>
<ellipse cx="549.5" cy="869.705" rx="3.5" ry="3.53743" transform="rotate(-180 549.5 869.705)" fill="#393335"/>
<ellipse cx="529.5" cy="869.705" rx="3.5" ry="3.53743" transform="rotate(-180 529.5 869.705)" fill="#393335"/>
<ellipse cx="509.5" cy="869.705" rx="3.5" ry="3.53743" transform="rotate(-180 509.5 869.705)" fill="#393335"/>
<ellipse cx="489.5" cy="869.705" rx="3.5" ry="3.53743" transform="rotate(-180 489.5 869.705)" fill="#393335"/>
<ellipse cx="469.5" cy="869.705" rx="3.5" ry="3.53743" transform="rotate(-180 469.5 869.705)" fill="#393335"/>
<ellipse cx="449.5" cy="869.705" rx="3.5" ry="3.53743" transform="rotate(-180 449.5 869.705)" fill="#393335"/>
<ellipse cx="429.5" cy="869.705" rx="3.5" ry="3.53743" transform="rotate(-180 429.5 869.705)" fill="#393335"/>
<ellipse cx="409.5" cy="869.705" rx="3.5" ry="3.53743" transform="rotate(-180 409.5 869.705)" fill="#393335"/>
<ellipse cx="389.5" cy="869.705" rx="3.5" ry="3.53743" transform="rotate(-180 389.5 869.705)" fill="#393335"/>
<ellipse cx="369.5" cy="869.705" rx="3.5" ry="3.53743" transform="rotate(-180 369.5 869.705)" fill="#393335"/>
<ellipse cx="349.5" cy="869.705" rx="3.5" ry="3.53743" transform="rotate(-180 349.5 869.705)" fill="#393335"/>
<ellipse cx="329.5" cy="869.705" rx="3.5" ry="3.53743" transform="rotate(-180 329.5 869.705)" fill="#393335"/>
<ellipse cx="309.5" cy="869.705" rx="3.5" ry="3.53743" transform="rotate(-180 309.5 869.705)" fill="#393335"/>
<ellipse cx="289.5" cy="869.705" rx="3.5" ry="3.53743" transform="rotate(-180 289.5 869.705)" fill="#393335"/>
<ellipse cx="269.5" cy="869.705" rx="3.5" ry="3.53743" transform="rotate(-180 269.5 869.705)" fill="#393335"/>
<ellipse cx="249.5" cy="869.705" rx="3.5" ry="3.53743" transform="rotate(-180 249.5 869.705)" fill="#393335"/>
<ellipse cx="229.5" cy="869.705" rx="3.5" ry="3.53743" transform="rotate(-180 229.5 869.705)" fill="#393335"/>
<ellipse cx="209.5" cy="869.705" rx="3.5" ry="3.53743" transform="rotate(-180 209.5 869.705)" fill="#393335"/>
<ellipse cx="189.5" cy="869.705" rx="3.5" ry="3.53743" transform="rotate(-180 189.5 869.705)" fill="#393335"/>
<ellipse cx="169.5" cy="869.705" rx="3.5" ry="3.53743" transform="rotate(-180 169.5 869.705)" fill="#393335"/>
<ellipse cx="149.5" cy="869.705" rx="3.5" ry="3.53743" transform="rotate(-180 149.5 869.705)" fill="#393335"/>
<ellipse cx="129.5" cy="869.705" rx="3.5" ry="3.53743" transform="rotate(-180 129.5 869.705)" fill="#393335"/>
<ellipse cx="689.5" cy="891.94" rx="3.5" ry="3.53743" transform="rotate(-180 689.5 891.94)" fill="#393335"/>
<ellipse cx="669.5" cy="891.94" rx="3.5" ry="3.53743" transform="rotate(-180 669.5 891.94)" fill="#393335"/>
<ellipse cx="649.5" cy="891.94" rx="3.5" ry="3.53743" transform="rotate(-180 649.5 891.94)" fill="#393335"/>
<ellipse cx="629.5" cy="891.94" rx="3.5" ry="3.53743" transform="rotate(-180 629.5 891.94)" fill="#393335"/>
<ellipse cx="609.5" cy="891.94" rx="3.5" ry="3.53743" transform="rotate(-180 609.5 891.94)" fill="#393335"/>
<ellipse cx="589.5" cy="891.94" rx="3.5" ry="3.53743" transform="rotate(-180 589.5 891.94)" fill="#393335"/>
<ellipse cx="569.5" cy="891.94" rx="3.5" ry="3.53743" transform="rotate(-180 569.5 891.94)" fill="#393335"/>
<ellipse cx="549.5" cy="891.94" rx="3.5" ry="3.53743" transform="rotate(-180 549.5 891.94)" fill="#393335"/>
<ellipse cx="529.5" cy="891.94" rx="3.5" ry="3.53743" transform="rotate(-180 529.5 891.94)" fill="#393335"/>
<ellipse cx="509.5" cy="891.94" rx="3.5" ry="3.53743" transform="rotate(-180 509.5 891.94)" fill="#393335"/>
<ellipse cx="489.5" cy="891.94" rx="3.5" ry="3.53743" transform="rotate(-180 489.5 891.94)" fill="#393335"/>
<ellipse cx="469.5" cy="891.94" rx="3.5" ry="3.53743" transform="rotate(-180 469.5 891.94)" fill="#393335"/>
<ellipse cx="449.5" cy="891.94" rx="3.5" ry="3.53743" transform="rotate(-180 449.5 891.94)" fill="#393335"/>
<ellipse cx="429.5" cy="891.94" rx="3.5" ry="3.53743" transform="rotate(-180 429.5 891.94)" fill="#393335"/>
<ellipse cx="409.5" cy="891.94" rx="3.5" ry="3.53743" transform="rotate(-180 409.5 891.94)" fill="#393335"/>
<ellipse cx="389.5" cy="891.94" rx="3.5" ry="3.53743" transform="rotate(-180 389.5 891.94)" fill="#393335"/>
<ellipse cx="369.5" cy="891.94" rx="3.5" ry="3.53743" transform="rotate(-180 369.5 891.94)" fill="#393335"/>
<ellipse cx="349.5" cy="891.94" rx="3.5" ry="3.53743" transform="rotate(-180 349.5 891.94)" fill="#393335"/>
<ellipse cx="329.5" cy="891.94" rx="3.5" ry="3.53743" transform="rotate(-180 329.5 891.94)" fill="#393335"/>
<ellipse cx="309.5" cy="891.94" rx="3.5" ry="3.53743" transform="rotate(-180 309.5 891.94)" fill="#393335"/>
<ellipse cx="289.5" cy="891.94" rx="3.5" ry="3.53743" transform="rotate(-180 289.5 891.94)" fill="#393335"/>
<ellipse cx="269.5" cy="891.94" rx="3.5" ry="3.53743" transform="rotate(-180 269.5 891.94)" fill="#393335"/>
<ellipse cx="249.5" cy="891.94" rx="3.5" ry="3.53743" transform="rotate(-180 249.5 891.94)" fill="#393335"/>
<ellipse cx="229.5" cy="891.94" rx="3.5" ry="3.53743" transform="rotate(-180 229.5 891.94)" fill="#393335"/>
<ellipse cx="209.5" cy="891.94" rx="3.5" ry="3.53743" transform="rotate(-180 209.5 891.94)" fill="#393335"/>
<ellipse cx="189.5" cy="891.94" rx="3.5" ry="3.53743" transform="rotate(-180 189.5 891.94)" fill="#393335"/>
<ellipse cx="169.5" cy="891.94" rx="3.5" ry="3.53743" transform="rotate(-180 169.5 891.94)" fill="#393335"/>
<ellipse cx="149.5" cy="891.94" rx="3.5" ry="3.53743" transform="rotate(-180 149.5 891.94)" fill="#393335"/>
<ellipse cx="129.5" cy="891.94" rx="3.5" ry="3.53743" transform="rotate(-180 129.5 891.94)" fill="#393335"/>
<ellipse cx="689.5" cy="914.175" rx="3.5" ry="3.53743" transform="rotate(-180 689.5 914.175)" fill="#393335"/>
<ellipse cx="669.5" cy="914.175" rx="3.5" ry="3.53743" transform="rotate(-180 669.5 914.175)" fill="#393335"/>
<ellipse cx="649.5" cy="914.175" rx="3.5" ry="3.53743" transform="rotate(-180 649.5 914.175)" fill="#393335"/>
<ellipse cx="629.5" cy="914.175" rx="3.5" ry="3.53743" transform="rotate(-180 629.5 914.175)" fill="#393335"/>
<ellipse cx="609.5" cy="914.175" rx="3.5" ry="3.53743" transform="rotate(-180 609.5 914.175)" fill="#393335"/>
<ellipse cx="589.5" cy="914.175" rx="3.5" ry="3.53743" transform="rotate(-180 589.5 914.175)" fill="#393335"/>
<ellipse cx="569.5" cy="914.175" rx="3.5" ry="3.53743" transform="rotate(-180 569.5 914.175)" fill="#393335"/>
<ellipse cx="549.5" cy="914.175" rx="3.5" ry="3.53743" transform="rotate(-180 549.5 914.175)" fill="#393335"/>
<ellipse cx="529.5" cy="914.175" rx="3.5" ry="3.53743" transform="rotate(-180 529.5 914.175)" fill="#393335"/>
<ellipse cx="509.5" cy="914.175" rx="3.5" ry="3.53743" transform="rotate(-180 509.5 914.175)" fill="#393335"/>
<ellipse cx="489.5" cy="914.175" rx="3.5" ry="3.53743" transform="rotate(-180 489.5 914.175)" fill="#393335"/>
<ellipse cx="469.5" cy="914.175" rx="3.5" ry="3.53743" transform="rotate(-180 469.5 914.175)" fill="#393335"/>
<ellipse cx="449.5" cy="914.175" rx="3.5" ry="3.53743" transform="rotate(-180 449.5 914.175)" fill="#393335"/>
<ellipse cx="429.5" cy="914.175" rx="3.5" ry="3.53743" transform="rotate(-180 429.5 914.175)" fill="#393335"/>
<ellipse cx="409.5" cy="914.175" rx="3.5" ry="3.53743" transform="rotate(-180 409.5 914.175)" fill="#393335"/>
<ellipse cx="389.5" cy="914.175" rx="3.5" ry="3.53743" transform="rotate(-180 389.5 914.175)" fill="#393335"/>
<ellipse cx="369.5" cy="914.175" rx="3.5" ry="3.53743" transform="rotate(-180 369.5 914.175)" fill="#393335"/>
<ellipse cx="349.5" cy="914.175" rx="3.5" ry="3.53743" transform="rotate(-180 349.5 914.175)" fill="#393335"/>
<ellipse cx="329.5" cy="914.175" rx="3.5" ry="3.53743" transform="rotate(-180 329.5 914.175)" fill="#393335"/>
<ellipse cx="309.5" cy="914.175" rx="3.5" ry="3.53743" transform="rotate(-180 309.5 914.175)" fill="#393335"/>
<ellipse cx="289.5" cy="914.175" rx="3.5" ry="3.53743" transform="rotate(-180 289.5 914.175)" fill="#393335"/>
<ellipse cx="269.5" cy="914.175" rx="3.5" ry="3.53743" transform="rotate(-180 269.5 914.175)" fill="#393335"/>
<ellipse cx="249.5" cy="914.175" rx="3.5" ry="3.53743" transform="rotate(-180 249.5 914.175)" fill="#393335"/>
<ellipse cx="229.5" cy="914.175" rx="3.5" ry="3.53743" transform="rotate(-180 229.5 914.175)" fill="#393335"/>
<ellipse cx="209.5" cy="914.175" rx="3.5" ry="3.53743" transform="rotate(-180 209.5 914.175)" fill="#393335"/>
<ellipse cx="189.5" cy="914.175" rx="3.5" ry="3.53743" transform="rotate(-180 189.5 914.175)" fill="#393335"/>
<ellipse cx="169.5" cy="914.175" rx="3.5" ry="3.53743" transform="rotate(-180 169.5 914.175)" fill="#393335"/>
<ellipse cx="149.5" cy="914.175" rx="3.5" ry="3.53743" transform="rotate(-180 149.5 914.175)" fill="#393335"/>
<ellipse cx="129.5" cy="914.175" rx="3.5" ry="3.53743" transform="rotate(-180 129.5 914.175)" fill="#393335"/>
<ellipse cx="689.5" cy="936.411" rx="3.5" ry="3.53743" transform="rotate(-180 689.5 936.411)" fill="#393335"/>
<ellipse cx="669.5" cy="936.411" rx="3.5" ry="3.53743" transform="rotate(-180 669.5 936.411)" fill="#393335"/>
<ellipse cx="649.5" cy="936.411" rx="3.5" ry="3.53743" transform="rotate(-180 649.5 936.411)" fill="#393335"/>
<ellipse cx="629.5" cy="936.411" rx="3.5" ry="3.53743" transform="rotate(-180 629.5 936.411)" fill="#393335"/>
<ellipse cx="609.5" cy="936.411" rx="3.5" ry="3.53743" transform="rotate(-180 609.5 936.411)" fill="#393335"/>
<ellipse cx="589.5" cy="936.411" rx="3.5" ry="3.53743" transform="rotate(-180 589.5 936.411)" fill="#393335"/>
<ellipse cx="569.5" cy="936.411" rx="3.5" ry="3.53743" transform="rotate(-180 569.5 936.411)" fill="#393335"/>
<ellipse cx="549.5" cy="936.411" rx="3.5" ry="3.53743" transform="rotate(-180 549.5 936.411)" fill="#393335"/>
<ellipse cx="529.5" cy="936.411" rx="3.5" ry="3.53743" transform="rotate(-180 529.5 936.411)" fill="#393335"/>
<ellipse cx="509.5" cy="936.411" rx="3.5" ry="3.53743" transform="rotate(-180 509.5 936.411)" fill="#393335"/>
<ellipse cx="489.5" cy="936.411" rx="3.5" ry="3.53743" transform="rotate(-180 489.5 936.411)" fill="#393335"/>
<ellipse cx="469.5" cy="936.411" rx="3.5" ry="3.53743" transform="rotate(-180 469.5 936.411)" fill="#393335"/>
<ellipse cx="449.5" cy="936.411" rx="3.5" ry="3.53743" transform="rotate(-180 449.5 936.411)" fill="#393335"/>
<ellipse cx="429.5" cy="936.411" rx="3.5" ry="3.53743" transform="rotate(-180 429.5 936.411)" fill="#393335"/>
<ellipse cx="409.5" cy="936.411" rx="3.5" ry="3.53743" transform="rotate(-180 409.5 936.411)" fill="#393335"/>
<ellipse cx="389.5" cy="936.411" rx="3.5" ry="3.53743" transform="rotate(-180 389.5 936.411)" fill="#393335"/>
<ellipse cx="369.5" cy="936.411" rx="3.5" ry="3.53743" transform="rotate(-180 369.5 936.411)" fill="#393335"/>
<ellipse cx="349.5" cy="936.411" rx="3.5" ry="3.53743" transform="rotate(-180 349.5 936.411)" fill="#393335"/>
<ellipse cx="329.5" cy="936.411" rx="3.5" ry="3.53743" transform="rotate(-180 329.5 936.411)" fill="#393335"/>
<ellipse cx="309.5" cy="936.411" rx="3.5" ry="3.53743" transform="rotate(-180 309.5 936.411)" fill="#393335"/>
<ellipse cx="289.5" cy="936.411" rx="3.5" ry="3.53743" transform="rotate(-180 289.5 936.411)" fill="#393335"/>
<ellipse cx="269.5" cy="936.411" rx="3.5" ry="3.53743" transform="rotate(-180 269.5 936.411)" fill="#393335"/>
<ellipse cx="249.5" cy="936.411" rx="3.5" ry="3.53743" transform="rotate(-180 249.5 936.411)" fill="#393335"/>
<ellipse cx="229.5" cy="936.411" rx="3.5" ry="3.53743" transform="rotate(-180 229.5 936.411)" fill="#393335"/>
<ellipse cx="209.5" cy="936.411" rx="3.5" ry="3.53743" transform="rotate(-180 209.5 936.411)" fill="#393335"/>
<ellipse cx="189.5" cy="936.411" rx="3.5" ry="3.53743" transform="rotate(-180 189.5 936.411)" fill="#393335"/>
<ellipse cx="169.5" cy="936.411" rx="3.5" ry="3.53743" transform="rotate(-180 169.5 936.411)" fill="#393335"/>
<ellipse cx="149.5" cy="936.411" rx="3.5" ry="3.53743" transform="rotate(-180 149.5 936.411)" fill="#393335"/>
<ellipse cx="129.5" cy="936.411" rx="3.5" ry="3.53743" transform="rotate(-180 129.5 936.411)" fill="#393335"/>
<ellipse cx="689.5" cy="958.646" rx="3.5" ry="3.53743" transform="rotate(-180 689.5 958.646)" fill="#393335"/>
<ellipse cx="669.5" cy="958.646" rx="3.5" ry="3.53743" transform="rotate(-180 669.5 958.646)" fill="#393335"/>
<ellipse cx="649.5" cy="958.646" rx="3.5" ry="3.53743" transform="rotate(-180 649.5 958.646)" fill="#393335"/>
<ellipse cx="629.5" cy="958.646" rx="3.5" ry="3.53743" transform="rotate(-180 629.5 958.646)" fill="#393335"/>
<ellipse cx="609.5" cy="958.646" rx="3.5" ry="3.53743" transform="rotate(-180 609.5 958.646)" fill="#393335"/>
<ellipse cx="589.5" cy="958.646" rx="3.5" ry="3.53743" transform="rotate(-180 589.5 958.646)" fill="#393335"/>
<ellipse cx="569.5" cy="958.646" rx="3.5" ry="3.53743" transform="rotate(-180 569.5 958.646)" fill="#393335"/>
<ellipse cx="549.5" cy="958.646" rx="3.5" ry="3.53743" transform="rotate(-180 549.5 958.646)" fill="#393335"/>
<ellipse cx="529.5" cy="958.646" rx="3.5" ry="3.53743" transform="rotate(-180 529.5 958.646)" fill="#393335"/>
<ellipse cx="509.5" cy="958.646" rx="3.5" ry="3.53743" transform="rotate(-180 509.5 958.646)" fill="#393335"/>
<ellipse cx="489.5" cy="958.646" rx="3.5" ry="3.53743" transform="rotate(-180 489.5 958.646)" fill="#393335"/>
<ellipse cx="469.5" cy="958.646" rx="3.5" ry="3.53743" transform="rotate(-180 469.5 958.646)" fill="#393335"/>
<ellipse cx="449.5" cy="958.646" rx="3.5" ry="3.53743" transform="rotate(-180 449.5 958.646)" fill="#393335"/>
<ellipse cx="429.5" cy="958.646" rx="3.5" ry="3.53743" transform="rotate(-180 429.5 958.646)" fill="#393335"/>
<ellipse cx="409.5" cy="958.646" rx="3.5" ry="3.53743" transform="rotate(-180 409.5 958.646)" fill="#393335"/>
<ellipse cx="389.5" cy="958.646" rx="3.5" ry="3.53743" transform="rotate(-180 389.5 958.646)" fill="#393335"/>
<ellipse cx="369.5" cy="958.646" rx="3.5" ry="3.53743" transform="rotate(-180 369.5 958.646)" fill="#393335"/>
<ellipse cx="349.5" cy="958.646" rx="3.5" ry="3.53743" transform="rotate(-180 349.5 958.646)" fill="#393335"/>
<ellipse cx="329.5" cy="958.646" rx="3.5" ry="3.53743" transform="rotate(-180 329.5 958.646)" fill="#393335"/>
<ellipse cx="309.5" cy="958.646" rx="3.5" ry="3.53743" transform="rotate(-180 309.5 958.646)" fill="#393335"/>
<ellipse cx="289.5" cy="958.646" rx="3.5" ry="3.53743" transform="rotate(-180 289.5 958.646)" fill="#393335"/>
<ellipse cx="269.5" cy="958.646" rx="3.5" ry="3.53743" transform="rotate(-180 269.5 958.646)" fill="#393335"/>
<ellipse cx="249.5" cy="958.646" rx="3.5" ry="3.53743" transform="rotate(-180 249.5 958.646)" fill="#393335"/>
<ellipse cx="229.5" cy="958.646" rx="3.5" ry="3.53743" transform="rotate(-180 229.5 958.646)" fill="#393335"/>
<ellipse cx="209.5" cy="958.646" rx="3.5" ry="3.53743" transform="rotate(-180 209.5 958.646)" fill="#393335"/>
<ellipse cx="189.5" cy="958.646" rx="3.5" ry="3.53743" transform="rotate(-180 189.5 958.646)" fill="#393335"/>
<ellipse cx="169.5" cy="958.646" rx="3.5" ry="3.53743" transform="rotate(-180 169.5 958.646)" fill="#393335"/>
<ellipse cx="149.5" cy="958.646" rx="3.5" ry="3.53743" transform="rotate(-180 149.5 958.646)" fill="#393335"/>
<ellipse cx="129.5" cy="958.646" rx="3.5" ry="3.53743" transform="rotate(-180 129.5 958.646)" fill="#393335"/>
<ellipse cx="689.5" cy="980.882" rx="3.5" ry="3.53743" transform="rotate(-180 689.5 980.882)" fill="#393335"/>
<ellipse cx="669.5" cy="980.882" rx="3.5" ry="3.53743" transform="rotate(-180 669.5 980.882)" fill="#393335"/>
<ellipse cx="649.5" cy="980.882" rx="3.5" ry="3.53743" transform="rotate(-180 649.5 980.882)" fill="#393335"/>
<ellipse cx="629.5" cy="980.882" rx="3.5" ry="3.53743" transform="rotate(-180 629.5 980.882)" fill="#393335"/>
<ellipse cx="609.5" cy="980.882" rx="3.5" ry="3.53743" transform="rotate(-180 609.5 980.882)" fill="#393335"/>
<ellipse cx="589.5" cy="980.882" rx="3.5" ry="3.53743" transform="rotate(-180 589.5 980.882)" fill="#393335"/>
<ellipse cx="569.5" cy="980.882" rx="3.5" ry="3.53743" transform="rotate(-180 569.5 980.882)" fill="#393335"/>
<ellipse cx="549.5" cy="980.882" rx="3.5" ry="3.53743" transform="rotate(-180 549.5 980.882)" fill="#393335"/>
<ellipse cx="529.5" cy="980.882" rx="3.5" ry="3.53743" transform="rotate(-180 529.5 980.882)" fill="#393335"/>
<ellipse cx="509.5" cy="980.882" rx="3.5" ry="3.53743" transform="rotate(-180 509.5 980.882)" fill="#393335"/>
<ellipse cx="489.5" cy="980.882" rx="3.5" ry="3.53743" transform="rotate(-180 489.5 980.882)" fill="#393335"/>
<ellipse cx="469.5" cy="980.882" rx="3.5" ry="3.53743" transform="rotate(-180 469.5 980.882)" fill="#393335"/>
<ellipse cx="449.5" cy="980.882" rx="3.5" ry="3.53743" transform="rotate(-180 449.5 980.882)" fill="#393335"/>
<ellipse cx="429.5" cy="980.882" rx="3.5" ry="3.53743" transform="rotate(-180 429.5 980.882)" fill="#393335"/>
<ellipse cx="409.5" cy="980.882" rx="3.5" ry="3.53743" transform="rotate(-180 409.5 980.882)" fill="#393335"/>
<ellipse cx="389.5" cy="980.882" rx="3.5" ry="3.53743" transform="rotate(-180 389.5 980.882)" fill="#393335"/>
<ellipse cx="369.5" cy="980.882" rx="3.5" ry="3.53743" transform="rotate(-180 369.5 980.882)" fill="#393335"/>
<ellipse cx="349.5" cy="980.882" rx="3.5" ry="3.53743" transform="rotate(-180 349.5 980.882)" fill="#393335"/>
<ellipse cx="329.5" cy="980.882" rx="3.5" ry="3.53743" transform="rotate(-180 329.5 980.882)" fill="#393335"/>
<ellipse cx="309.5" cy="980.882" rx="3.5" ry="3.53743" transform="rotate(-180 309.5 980.882)" fill="#393335"/>
<ellipse cx="289.5" cy="980.882" rx="3.5" ry="3.53743" transform="rotate(-180 289.5 980.882)" fill="#393335"/>
<ellipse cx="269.5" cy="980.882" rx="3.5" ry="3.53743" transform="rotate(-180 269.5 980.882)" fill="#393335"/>
<ellipse cx="249.5" cy="980.882" rx="3.5" ry="3.53743" transform="rotate(-180 249.5 980.882)" fill="#393335"/>
<ellipse cx="229.5" cy="980.882" rx="3.5" ry="3.53743" transform="rotate(-180 229.5 980.882)" fill="#393335"/>
<ellipse cx="209.5" cy="980.882" rx="3.5" ry="3.53743" transform="rotate(-180 209.5 980.882)" fill="#393335"/>
<ellipse cx="189.5" cy="980.882" rx="3.5" ry="3.53743" transform="rotate(-180 189.5 980.882)" fill="#393335"/>
<ellipse cx="169.5" cy="980.882" rx="3.5" ry="3.53743" transform="rotate(-180 169.5 980.882)" fill="#393335"/>
<ellipse cx="149.5" cy="980.882" rx="3.5" ry="3.53743" transform="rotate(-180 149.5 980.882)" fill="#393335"/>
<ellipse cx="129.5" cy="980.882" rx="3.5" ry="3.53743" transform="rotate(-180 129.5 980.882)" fill="#393335"/>
<ellipse cx="689.5" cy="1003.12" rx="3.5" ry="3.53743" transform="rotate(-180 689.5 1003.12)" fill="#393335"/>
<ellipse cx="669.5" cy="1003.12" rx="3.5" ry="3.53743" transform="rotate(-180 669.5 1003.12)" fill="#393335"/>
<ellipse cx="649.5" cy="1003.12" rx="3.5" ry="3.53743" transform="rotate(-180 649.5 1003.12)" fill="#393335"/>
<ellipse cx="629.5" cy="1003.12" rx="3.5" ry="3.53743" transform="rotate(-180 629.5 1003.12)" fill="#393335"/>
<ellipse cx="609.5" cy="1003.12" rx="3.5" ry="3.53743" transform="rotate(-180 609.5 1003.12)" fill="#393335"/>
<ellipse cx="589.5" cy="1003.12" rx="3.5" ry="3.53743" transform="rotate(-180 589.5 1003.12)" fill="#393335"/>
<ellipse cx="569.5" cy="1003.12" rx="3.5" ry="3.53743" transform="rotate(-180 569.5 1003.12)" fill="#393335"/>
<ellipse cx="549.5" cy="1003.12" rx="3.5" ry="3.53743" transform="rotate(-180 549.5 1003.12)" fill="#393335"/>
<ellipse cx="529.5" cy="1003.12" rx="3.5" ry="3.53743" transform="rotate(-180 529.5 1003.12)" fill="#393335"/>
<ellipse cx="509.5" cy="1003.12" rx="3.5" ry="3.53743" transform="rotate(-180 509.5 1003.12)" fill="#393335"/>
<ellipse cx="489.5" cy="1003.12" rx="3.5" ry="3.53743" transform="rotate(-180 489.5 1003.12)" fill="#393335"/>
<ellipse cx="469.5" cy="1003.12" rx="3.5" ry="3.53743" transform="rotate(-180 469.5 1003.12)" fill="#393335"/>
<ellipse cx="449.5" cy="1003.12" rx="3.5" ry="3.53743" transform="rotate(-180 449.5 1003.12)" fill="#393335"/>
<ellipse cx="429.5" cy="1003.12" rx="3.5" ry="3.53743" transform="rotate(-180 429.5 1003.12)" fill="#393335"/>
<ellipse cx="409.5" cy="1003.12" rx="3.5" ry="3.53743" transform="rotate(-180 409.5 1003.12)" fill="#393335"/>
<ellipse cx="389.5" cy="1003.12" rx="3.5" ry="3.53743" transform="rotate(-180 389.5 1003.12)" fill="#393335"/>
<ellipse cx="369.5" cy="1003.12" rx="3.5" ry="3.53743" transform="rotate(-180 369.5 1003.12)" fill="#393335"/>
<ellipse cx="349.5" cy="1003.12" rx="3.5" ry="3.53743" transform="rotate(-180 349.5 1003.12)" fill="#393335"/>
<ellipse cx="329.5" cy="1003.12" rx="3.5" ry="3.53743" transform="rotate(-180 329.5 1003.12)" fill="#393335"/>
<ellipse cx="309.5" cy="1003.12" rx="3.5" ry="3.53743" transform="rotate(-180 309.5 1003.12)" fill="#393335"/>
<ellipse cx="289.5" cy="1003.12" rx="3.5" ry="3.53743" transform="rotate(-180 289.5 1003.12)" fill="#393335"/>
<ellipse cx="269.5" cy="1003.12" rx="3.5" ry="3.53743" transform="rotate(-180 269.5 1003.12)" fill="#393335"/>
<ellipse cx="249.5" cy="1003.12" rx="3.5" ry="3.53743" transform="rotate(-180 249.5 1003.12)" fill="#393335"/>
<ellipse cx="229.5" cy="1003.12" rx="3.5" ry="3.53743" transform="rotate(-180 229.5 1003.12)" fill="#393335"/>
<ellipse cx="209.5" cy="1003.12" rx="3.5" ry="3.53743" transform="rotate(-180 209.5 1003.12)" fill="#393335"/>
<ellipse cx="189.5" cy="1003.12" rx="3.5" ry="3.53743" transform="rotate(-180 189.5 1003.12)" fill="#393335"/>
<ellipse cx="169.5" cy="1003.12" rx="3.5" ry="3.53743" transform="rotate(-180 169.5 1003.12)" fill="#393335"/>
<ellipse cx="149.5" cy="1003.12" rx="3.5" ry="3.53743" transform="rotate(-180 149.5 1003.12)" fill="#393335"/>
<ellipse cx="129.5" cy="1003.12" rx="3.5" ry="3.53743" transform="rotate(-180 129.5 1003.12)" fill="#393335"/>
<rect x="64" y="59.4707" width="694" height="1015.06" rx="15" stroke="#393335" stroke-width="30"/>
<rect x="108" y="104.059" width="606" height="925.882" rx="26" stroke="#393335" stroke-width="8"/>
<path d="M13.9179 552.933L396.783 165.974C404.61 158.063 417.39 158.063 425.217 165.974L808.082 552.933C815.793 560.726 815.793 573.274 808.082 581.067L425.217 968.027C417.39 975.938 404.61 975.938 396.783 968.027L13.9179 581.067C6.20741 573.274 6.20744 560.726 13.9179 552.933Z" fill="#F1F7EE"/>
<path d="M54.9589 559.967L403.891 207.302C407.805 203.347 414.195 203.347 418.109 207.302L767.041 559.967C770.896 563.863 770.896 570.137 767.041 574.033L418.109 926.698C414.195 930.653 407.805 930.653 403.891 926.698L54.9589 574.033C51.1037 570.137 51.1037 563.863 54.9589 559.967Z" stroke="#393335" stroke-width="8"/>
<path d="M207.703 561.204L192.151 498.24H186.535C185.455 498.24 184.915 497.7 184.915 496.62V491.112C184.915 490.032 185.455 489.492 186.535 489.492H213.535C214.615 489.492 215.155 490.032 215.155 491.112V496.62C215.155 497.7 214.615 498.24 213.535 498.24H205.867L217.423 548.46L233.191 491.004C233.479 489.996 234.163 489.492 235.243 489.492H244.099C245.179 489.492 245.863 489.996 246.151 491.004L261.811 548.784L274.231 498.24H267.103C266.023 498.24 265.483 497.7 265.483 496.62V491.112C265.483 490.032 266.023 489.492 267.103 489.492H289.891C290.971 489.492 291.511 490.032 291.511 491.112V496.62C291.511 497.7 290.971 498.24 289.891 498.24H284.167L267.535 561.204C267.247 562.284 266.563 562.824 265.483 562.824H255.331C254.251 562.824 253.567 562.32 253.279 561.312L238.159 507.528L223.687 561.312C223.399 562.32 222.715 562.824 221.635 562.824H209.755C208.675 562.824 207.991 562.284 207.703 561.204ZM318.834 530.748V526.968C318.834 521.856 317.394 518.652 314.514 517.356C313.146 516.78 311.166 516.492 308.574 516.492C303.678 516.492 300.726 518.796 299.718 523.404C299.502 524.484 298.962 525.024 298.098 525.024H291.186C290.034 525.024 289.53 524.484 289.674 523.404C289.962 518.148 292.086 514.296 296.046 511.848C300.006 509.4 305.046 508.176 311.166 508.176C324.054 508.176 330.498 514.08 330.498 525.888V554.292H335.142C336.222 554.292 336.762 554.832 336.762 555.912V561.204C336.762 562.284 336.222 562.824 335.142 562.824H322.398C321.462 562.824 320.922 562.284 320.778 561.204L320.022 556.236C316.134 561.492 310.518 564.12 303.174 564.12C298.566 564.12 294.75 562.932 291.726 560.556C288.702 558.108 287.19 554.22 287.19 548.892C287.19 541.908 290.106 537.12 295.938 534.528C300.762 532.296 306.522 531.072 313.218 530.856C314.586 530.856 316.458 530.82 318.834 530.748ZM319.05 546.516V538.2C312.138 538.2 307.89 538.524 306.306 539.172C304.722 539.82 303.318 540.468 302.094 541.116C299.79 542.34 298.638 544.572 298.638 547.812C298.638 552.78 301.482 555.264 307.17 555.264C310.914 555.264 313.83 554.4 315.918 552.672C318.006 550.872 319.05 548.82 319.05 546.516ZM359.43 518.22V545.436C359.43 548.82 359.862 551.268 360.726 552.78C361.59 554.292 363.21 555.048 365.586 555.048C367.962 555.048 370.266 554.544 372.498 553.536C373.29 553.248 373.866 553.536 374.226 554.4L376.17 559.368C376.242 559.584 376.278 559.908 376.278 560.34C376.278 560.7 375.918 561.096 375.198 561.528C371.742 563.256 367.638 564.12 362.886 564.12C356.478 564.12 352.266 562.464 350.25 559.152C348.81 556.992 347.982 554.904 347.766 552.888C347.478 550.152 347.334 547.272 347.334 544.248V518.22H341.178C340.098 518.22 339.558 517.68 339.558 516.6V510.984C339.558 509.904 340.098 509.364 341.178 509.364H347.334V494.784C347.334 493.704 347.874 493.164 348.954 493.164H357.81C358.89 493.164 359.43 493.704 359.43 494.784V509.364H370.338C371.418 509.364 371.958 509.904 371.958 510.984V516.6C371.958 517.68 371.418 518.22 370.338 518.22H359.43ZM406.425 564.12C397.857 564.12 391.557 561.636 387.525 556.668C383.565 551.628 381.585 545.004 381.585 536.796C381.585 528.516 383.709 521.676 387.957 516.276C392.205 510.876 398.325 508.176 406.317 508.176C410.277 508.176 413.661 508.932 416.469 510.444C419.349 511.884 421.545 513.864 423.057 516.384C425.937 521.28 427.377 526.932 427.377 533.34C427.377 536.364 427.233 538.02 426.945 538.308C426.657 538.596 426.117 538.74 425.325 538.74H393.573C393.933 543.924 395.193 547.956 397.353 550.836C399.585 553.644 403.401 555.048 408.801 555.048C412.761 555.048 416.829 554.112 421.005 552.24C422.013 551.736 422.733 552.024 423.165 553.104L425.217 558.072C425.577 558.936 425.253 559.656 424.245 560.232C419.493 562.824 413.553 564.12 406.425 564.12ZM393.573 530.748H416.037C416.181 521.748 412.653 517.248 405.453 517.248C401.205 517.248 398.181 518.616 396.381 521.352C394.653 524.016 393.717 527.148 393.573 530.748ZM452.245 518.652C453.469 515.772 455.449 513.324 458.185 511.308C460.921 509.22 463.909 508.176 467.149 508.176C470.389 508.176 472.873 508.464 474.601 509.04C475.465 509.328 475.897 509.976 475.897 510.984V525.564C475.897 526.644 475.357 527.184 474.277 527.184H467.257C466.177 527.184 465.673 526.644 465.745 525.564L466.177 519.3C465.817 519.228 465.205 519.192 464.341 519.192C461.029 519.192 458.293 520.56 456.133 523.296C453.973 525.96 452.893 529.56 452.893 534.096V554.292H464.773C465.853 554.292 466.393 554.832 466.393 555.912V561.204C466.393 562.284 465.853 562.824 464.773 562.824H435.073C433.993 562.824 433.453 562.284 433.453 561.204V555.912C433.453 554.832 433.993 554.292 435.073 554.292H440.797V518.22H434.965C433.885 518.22 433.345 517.68 433.345 516.6V510.984C433.345 509.904 433.885 509.364 434.965 509.364H449.221C450.229 509.364 450.841 509.904 451.057 510.984L452.245 518.652ZM501.943 518.112V554.292H513.391C514.471 554.292 515.011 554.832 515.011 555.912V561.204C515.011 562.284 514.471 562.824 513.391 562.824H483.151C482.071 562.824 481.531 562.284 481.531 561.204V555.912C481.531 554.832 482.071 554.292 483.151 554.292H489.847V518.112H483.151C482.071 518.112 481.531 517.572 481.531 516.492V510.984C481.531 509.904 482.071 509.364 483.151 509.364H489.847V498.888C489.847 490.248 492.547 484.74 497.947 482.364C500.179 481.356 503.239 480.852 507.127 480.852C511.015 480.852 514.975 481.752 519.007 483.552C519.655 483.84 519.979 484.2 519.979 484.632C519.979 485.064 519.943 485.388 519.871 485.604L518.251 491.004C517.891 491.868 517.279 492.12 516.415 491.76C513.535 490.464 510.799 489.816 508.207 489.816C505.615 489.816 503.923 490.68 503.131 492.408C502.339 494.064 501.943 497.088 501.943 501.48V509.364H515.011C516.091 509.364 516.631 509.904 516.631 510.984V516.492C516.631 517.572 516.091 518.112 515.011 518.112H501.943ZM551.92 530.748V526.968C551.92 521.856 550.48 518.652 547.6 517.356C546.232 516.78 544.252 516.492 541.66 516.492C536.764 516.492 533.812 518.796 532.804 523.404C532.588 524.484 532.048 525.024 531.184 525.024H524.272C523.12 525.024 522.616 524.484 522.76 523.404C523.048 518.148 525.172 514.296 529.132 511.848C533.092 509.4 538.132 508.176 544.252 508.176C557.14 508.176 563.584 514.08 563.584 525.888V554.292H568.228C569.308 554.292 569.848 554.832 569.848 555.912V561.204C569.848 562.284 569.308 562.824 568.228 562.824H555.484C554.548 562.824 554.008 562.284 553.864 561.204L553.108 556.236C549.22 561.492 543.604 564.12 536.26 564.12C531.652 564.12 527.836 562.932 524.812 560.556C521.788 558.108 520.276 554.22 520.276 548.892C520.276 541.908 523.192 537.12 529.024 534.528C533.848 532.296 539.608 531.072 546.304 530.856C547.672 530.856 549.544 530.82 551.92 530.748ZM552.136 546.516V538.2C545.224 538.2 540.976 538.524 539.392 539.172C537.808 539.82 536.404 540.468 535.18 541.116C532.876 542.34 531.724 544.572 531.724 547.812C531.724 552.78 534.568 555.264 540.256 555.264C544 555.264 546.916 554.4 549.004 552.672C551.092 550.872 552.136 548.82 552.136 546.516ZM595.381 483.876V554.292H602.185C603.265 554.292 603.805 554.832 603.805 555.912V561.204C603.805 562.284 603.265 562.824 602.185 562.824H576.481C575.401 562.824 574.861 562.284 574.861 561.204V555.912C574.861 554.832 575.401 554.292 576.481 554.292H583.285V491.112H577.453C576.373 491.112 575.833 490.572 575.833 489.492V483.876C575.833 482.796 576.373 482.256 577.453 482.256H593.761C594.841 482.256 595.381 482.796 595.381 483.876ZM627.127 483.876V554.292H633.931C635.011 554.292 635.551 554.832 635.551 555.912V561.204C635.551 562.284 635.011 562.824 633.931 562.824H608.227C607.147 562.824 606.607 562.284 606.607 561.204V555.912C606.607 554.832 607.147 554.292 608.227 554.292H615.031V491.112H609.199C608.119 491.112 607.579 490.572 607.579 489.492V483.876C607.579 482.796 608.119 482.256 609.199 482.256H625.507C626.587 482.256 627.127 482.796 627.127 483.876Z" fill="#393335"/>
<path d="M197.895 614.833C203.356 614.577 207.41 614.449 210.055 614.449C212.7 614.449 214.663 614.513 215.943 614.641C217.266 614.726 218.759 614.939 220.423 615.281C222.087 615.622 223.559 616.091 224.839 616.689C226.162 617.243 227.484 618.054 228.807 619.121C230.13 620.187 231.239 621.425 232.135 622.833C234.098 626.075 235.079 630.257 235.079 635.377C235.079 643.099 232.946 648.859 228.679 652.657C224.412 656.411 218.588 658.289 211.207 658.289H197.895C197.255 658.289 196.935 657.969 196.935 657.329V654.193C196.935 653.553 197.255 653.233 197.895 653.233H201.223V620.017H197.895C197.255 620.017 196.935 619.697 196.935 619.057V615.793C196.935 615.153 197.255 614.833 197.895 614.833ZM212.615 653.297C217.308 653.297 220.935 651.761 223.495 648.689C226.098 645.617 227.399 641.414 227.399 636.081C227.399 630.747 226.183 626.694 223.751 623.921C221.362 621.147 217.607 619.761 212.487 619.761H208.391V653.297H212.615ZM250.613 632.113C251.338 630.406 252.511 628.955 254.133 627.761C255.754 626.523 257.525 625.905 259.445 625.905C261.365 625.905 262.837 626.075 263.861 626.417C264.373 626.587 264.629 626.971 264.629 627.569V636.209C264.629 636.849 264.309 637.169 263.669 637.169H259.509C258.869 637.169 258.57 636.849 258.613 636.209L258.869 632.497C258.655 632.454 258.293 632.433 257.781 632.433C255.818 632.433 254.197 633.243 252.917 634.865C251.637 636.443 250.997 638.577 250.997 641.265V653.233H258.037C258.677 653.233 258.997 653.553 258.997 654.193V657.329C258.997 657.969 258.677 658.289 258.037 658.289H240.437C239.797 658.289 239.477 657.969 239.477 657.329V654.193C239.477 653.553 239.797 653.233 240.437 653.233H243.829V631.857H240.373C239.733 631.857 239.413 631.537 239.413 630.897V627.569C239.413 626.929 239.733 626.609 240.373 626.609H248.821C249.418 626.609 249.781 626.929 249.909 627.569L250.613 632.113ZM279.872 653.233H283.904C284.544 653.233 284.864 653.553 284.864 654.193V657.329C284.864 657.969 284.544 658.289 283.904 658.289H268.672C268.032 658.289 267.712 657.969 267.712 657.329V654.193C267.712 653.553 268.032 653.233 268.672 653.233C268.672 653.233 270.016 653.233 272.704 653.233V631.857H269.248C268.608 631.857 268.288 631.537 268.288 630.897V627.569C268.288 626.929 268.608 626.609 269.248 626.609H278.912C279.552 626.609 279.872 626.929 279.872 627.569V653.233ZM272.128 620.913C271.317 620.059 270.911 618.971 270.911 617.649C270.911 616.326 271.317 615.238 272.128 614.385C272.981 613.489 274.09 613.041 275.456 613.041C276.864 613.041 277.973 613.489 278.784 614.385C279.637 615.238 280.064 616.326 280.064 617.649C280.064 618.971 279.637 620.059 278.784 620.913C277.93 621.766 276.8 622.193 275.392 622.193C274.026 622.193 272.938 621.766 272.128 620.913ZM287.1 630.961V627.569C287.1 626.929 287.42 626.609 288.06 626.609H296.764C297.319 626.609 297.66 626.929 297.788 627.569L298.364 631.281C300.753 627.697 304.167 625.905 308.604 625.905C315.217 625.905 318.524 629.531 318.524 636.785V653.233H322.236C322.876 653.233 323.196 653.553 323.196 654.193V657.329C323.196 657.969 322.876 658.289 322.236 658.289H308.284C307.644 658.289 307.324 657.969 307.324 657.329V654.193C307.324 653.553 307.644 653.233 308.284 653.233H311.356V639.985C311.356 637.297 311.015 635.334 310.332 634.097C309.649 632.859 308.241 632.241 306.108 632.241C303.975 632.241 302.204 632.881 300.796 634.161C299.388 635.441 298.684 636.891 298.684 638.513V653.233H302.652C303.292 653.233 303.612 653.553 303.612 654.193V657.329C303.612 657.969 303.292 658.289 302.652 658.289H288.124C287.484 658.289 287.164 657.969 287.164 657.329V654.193C287.164 653.553 287.484 653.233 288.124 653.233H291.516V631.857H288.06C287.42 631.857 287.1 631.558 287.1 630.961ZM337.309 611.505V637.041H340.573L350.493 627.313C350.962 626.843 351.517 626.609 352.157 626.609H357.149C357.789 626.609 358.109 626.929 358.109 627.569V630.897C358.109 631.537 357.789 631.857 357.149 631.857H353.245L346.205 638.705L354.973 653.233H358.749C359.389 653.233 359.709 653.553 359.709 654.193V657.329C359.709 657.969 359.389 658.289 358.749 658.289H350.493C349.896 658.289 349.405 658.011 349.021 657.457L339.421 641.969H337.309V653.233H340.701C341.341 653.233 341.661 653.553 341.661 654.193V657.329C341.661 657.969 341.341 658.289 340.701 658.289H326.749C326.109 658.289 325.789 657.969 325.789 657.329V654.193C325.789 653.553 326.109 653.233 326.749 653.233H330.141V615.729H326.685C326.045 615.729 325.725 615.409 325.725 614.769V611.505C325.725 610.865 326.045 610.545 326.685 610.545H336.349C336.989 610.545 337.309 610.865 337.309 611.505ZM373.559 653.233H377.591C378.231 653.233 378.551 653.553 378.551 654.193V657.329C378.551 657.969 378.231 658.289 377.591 658.289H362.359C361.719 658.289 361.399 657.969 361.399 657.329V654.193C361.399 653.553 361.719 653.233 362.359 653.233C362.359 653.233 363.703 653.233 366.391 653.233V631.857H362.935C362.295 631.857 361.975 631.537 361.975 630.897V627.569C361.975 626.929 362.295 626.609 362.935 626.609H372.599C373.239 626.609 373.559 626.929 373.559 627.569V653.233ZM365.815 620.913C365.004 620.059 364.599 618.971 364.599 617.649C364.599 616.326 365.004 615.238 365.815 614.385C366.668 613.489 367.778 613.041 369.143 613.041C370.551 613.041 371.66 613.489 372.471 614.385C373.324 615.238 373.751 616.326 373.751 617.649C373.751 618.971 373.324 620.059 372.471 620.913C371.618 621.766 370.487 622.193 369.079 622.193C367.714 622.193 366.626 621.766 365.815 620.913ZM380.788 630.961V627.569C380.788 626.929 381.108 626.609 381.748 626.609H390.452C391.006 626.609 391.348 626.929 391.476 627.569L392.052 631.281C394.441 627.697 397.854 625.905 402.292 625.905C408.905 625.905 412.212 629.531 412.212 636.785V653.233H415.924C416.564 653.233 416.884 653.553 416.884 654.193V657.329C416.884 657.969 416.564 658.289 415.924 658.289H401.972C401.332 658.289 401.012 657.969 401.012 657.329V654.193C401.012 653.553 401.332 653.233 401.972 653.233H405.044V639.985C405.044 637.297 404.702 635.334 404.02 634.097C403.337 632.859 401.929 632.241 399.796 632.241C397.662 632.241 395.892 632.881 394.484 634.161C393.076 635.441 392.372 636.891 392.372 638.513V653.233H396.34C396.98 653.233 397.3 653.553 397.3 654.193V657.329C397.3 657.969 396.98 658.289 396.34 658.289H381.812C381.172 658.289 380.852 657.969 380.852 657.329V654.193C380.852 653.553 381.172 653.233 381.812 653.233H385.204V631.857H381.748C381.108 631.857 380.788 631.558 380.788 630.961ZM449.173 631.857V654.577C449.173 657.307 449.066 659.846 448.853 662.193C448.511 665.819 447.167 668.635 444.821 670.641C442.517 672.646 439.231 673.649 434.965 673.649C430.698 673.649 427.114 673.009 424.213 671.729C423.701 671.515 423.53 671.089 423.701 670.449L424.853 667.057C425.023 666.459 425.45 666.289 426.133 666.545C428.735 667.611 431.359 668.145 434.005 668.145C436.693 668.145 438.698 667.505 440.021 666.225C441.343 664.945 442.005 662.683 442.005 659.441V654.449C440.127 657.521 437.098 659.057 432.917 659.057C428.735 659.057 425.535 657.713 423.317 655.025C421.141 652.337 420.053 648.262 420.053 642.801C420.053 637.297 421.333 633.115 423.893 630.257C426.495 627.355 429.738 625.905 433.621 625.905C437.546 625.905 440.703 627.291 443.093 630.065L443.733 627.569C443.946 626.929 444.33 626.609 444.885 626.609H452.693C453.333 626.609 453.653 626.929 453.653 627.569V630.897C453.653 631.537 453.333 631.857 452.693 631.857H449.173ZM442.005 646.321V634.929C441.834 634.673 441.557 634.353 441.173 633.969C440.831 633.585 440.042 633.094 438.805 632.497C437.61 631.857 436.309 631.537 434.901 631.537C432.639 631.537 430.805 632.39 429.397 634.097C427.989 635.761 427.285 638.449 427.285 642.161C427.285 645.873 427.797 648.71 428.821 650.673C429.845 652.593 431.829 653.553 434.773 653.553C436.65 653.553 438.314 652.891 439.765 651.569C441.258 650.246 442.005 648.497 442.005 646.321ZM498.485 631.857V654.577C498.485 657.307 498.378 659.846 498.165 662.193C497.824 665.819 496.48 668.635 494.133 670.641C491.829 672.646 488.544 673.649 484.277 673.649C480.01 673.649 476.426 673.009 473.525 671.729C473.013 671.515 472.842 671.089 473.013 670.449L474.165 667.057C474.336 666.459 474.762 666.289 475.445 666.545C478.048 667.611 480.672 668.145 483.317 668.145C486.005 668.145 488.01 667.505 489.333 666.225C490.656 664.945 491.317 662.683 491.317 659.441V654.449C489.44 657.521 486.41 659.057 482.229 659.057C478.048 659.057 474.848 657.713 472.629 655.025C470.453 652.337 469.365 648.262 469.365 642.801C469.365 637.297 470.645 633.115 473.205 630.257C475.808 627.355 479.05 625.905 482.933 625.905C486.858 625.905 490.016 627.291 492.405 630.065L493.045 627.569C493.258 626.929 493.642 626.609 494.197 626.609H502.005C502.645 626.609 502.965 626.929 502.965 627.569V630.897C502.965 631.537 502.645 631.857 502.005 631.857H498.485ZM491.317 646.321V634.929C491.146 634.673 490.869 634.353 490.485 633.969C490.144 633.585 489.354 633.094 488.117 632.497C486.922 631.857 485.621 631.537 484.213 631.537C481.952 631.537 480.117 632.39 478.709 634.097C477.301 635.761 476.597 638.449 476.597 642.161C476.597 645.873 477.109 648.71 478.133 650.673C479.157 652.593 481.141 653.553 484.085 653.553C485.962 653.553 487.626 652.891 489.077 651.569C490.57 650.246 491.317 648.497 491.317 646.321ZM524.617 639.281V637.041C524.617 634.011 523.764 632.113 522.057 631.345C521.246 631.003 520.073 630.833 518.537 630.833C515.636 630.833 513.886 632.198 513.289 634.929C513.161 635.569 512.841 635.889 512.329 635.889H508.233C507.55 635.889 507.252 635.569 507.337 634.929C507.508 631.814 508.766 629.531 511.113 628.081C513.46 626.63 516.446 625.905 520.073 625.905C527.71 625.905 531.529 629.403 531.529 636.401V653.233H534.281C534.921 653.233 535.241 653.553 535.241 654.193V657.329C535.241 657.969 534.921 658.289 534.281 658.289H526.729C526.174 658.289 525.854 657.969 525.769 657.329L525.321 654.385C523.017 657.499 519.689 659.057 515.337 659.057C512.606 659.057 510.345 658.353 508.553 656.945C506.761 655.494 505.865 653.19 505.865 650.033C505.865 645.894 507.593 643.057 511.049 641.521C513.908 640.198 517.321 639.473 521.289 639.345C522.1 639.345 523.209 639.323 524.617 639.281ZM524.745 648.625V643.697C520.649 643.697 518.132 643.889 517.193 644.273C516.254 644.657 515.422 645.041 514.697 645.425C513.332 646.15 512.649 647.473 512.649 649.393C512.649 652.337 514.334 653.809 517.705 653.809C519.924 653.809 521.652 653.297 522.889 652.273C524.126 651.206 524.745 649.99 524.745 648.625ZM538.788 630.897V627.569C538.788 626.929 539.108 626.609 539.748 626.609H548.516C549.07 626.609 549.39 626.929 549.476 627.569L549.988 631.281C552.206 627.697 555.534 625.905 559.972 625.905C564.409 625.905 567.332 627.782 568.74 631.537C571.044 627.782 574.393 625.905 578.788 625.905C585.401 625.905 588.708 629.531 588.708 636.785V653.233H592.356C592.996 653.233 593.316 653.553 593.316 654.193V657.329C593.316 657.969 592.996 658.289 592.356 658.289H578.276C577.636 658.289 577.316 657.969 577.316 657.329V654.193C577.316 653.553 577.636 653.233 578.276 653.233H581.54V639.985C581.54 637.297 581.198 635.334 580.516 634.097C579.833 632.859 578.446 632.241 576.356 632.241C574.308 632.241 572.665 632.795 571.428 633.905C570.19 635.014 569.572 636.315 569.572 637.809V653.233H572.644C573.284 653.233 573.604 653.553 573.604 654.193V657.329C573.604 657.969 573.284 658.289 572.644 658.289H559.524C558.884 658.289 558.564 657.969 558.564 657.329V654.193C558.564 653.553 558.884 653.233 559.524 653.233H562.404V639.985C562.404 637.297 562.062 635.334 561.38 634.097C560.697 632.859 559.289 632.241 557.156 632.241C555.065 632.241 553.401 632.881 552.164 634.161C550.969 635.398 550.372 636.849 550.372 638.513V653.233H554.276C554.916 653.233 555.236 653.553 555.236 654.193V657.329C555.236 657.969 554.916 658.289 554.276 658.289H539.812C539.172 658.289 538.852 657.969 538.852 657.329V654.193C538.852 653.553 539.172 653.233 539.812 653.233H543.204V631.857H539.748C539.108 631.857 538.788 631.537 538.788 630.897ZM611.273 659.057C606.195 659.057 602.462 657.585 600.073 654.641C597.726 651.654 596.553 647.729 596.553 642.865C596.553 637.958 597.811 633.905 600.329 630.705C602.846 627.505 606.473 625.905 611.208 625.905C613.555 625.905 615.561 626.353 617.225 627.249C618.931 628.102 620.233 629.275 621.129 630.769C622.835 633.67 623.689 637.019 623.689 640.817C623.689 642.609 623.603 643.59 623.433 643.761C623.262 643.931 622.942 644.017 622.473 644.017H603.657C603.87 647.089 604.617 649.478 605.897 651.185C607.219 652.849 609.481 653.681 612.681 653.681C615.027 653.681 617.438 653.126 619.913 652.017C620.51 651.718 620.937 651.889 621.193 652.529L622.409 655.473C622.622 655.985 622.43 656.411 621.833 656.753C619.017 658.289 615.497 659.057 611.273 659.057ZM603.657 639.281H616.969C617.054 633.947 614.963 631.281 610.697 631.281C608.179 631.281 606.387 632.091 605.321 633.713C604.297 635.291 603.742 637.147 603.657 639.281Z" fill="#393335"/>
</svg>
