<svg width="822" height="1134" fill="none" xmlns="http://www.w3.org/2000/svg"><rect y="12" width="822" height="1122" rx="50" fill="#F1F7EE"/><path d="m246.151 1100.1-2.4.1c-9.266 0-16.433-2.9-21.5-8.7-5-5.87-7.5-14.43-7.5-25.7 0-5.4.667-10.23 2-14.5 1.4-4.33 3.134-7.83 5.2-10.5a28.198 28.198 0 0 1 7.5-6.6c5.067-3.2 10.534-4.8 16.4-4.8 2.467 0 4.834.2 7.1.6 2.267.4 4.834 1.3 7.7 2.7 2.867 1.4 5.3 3.27 7.3 5.6 2.067 2.27 3.8 5.53 5.2 9.8 1.467 4.27 2.2 9.23 2.2 14.9 0 8.4-1.5 15.43-4.5 21.1-3 5.6-7.1 9.8-12.3 12.6 1.267 4.6 4.3 8.97 9.1 13.1.734.6.8 1.3.2 2.1l-2.3 2.8c-.333.4-.7.6-1.1.6-.333 0-.7-.1-1.1-.3-8.8-4.53-14.533-9.5-17.2-14.9Zm-1.2-9.3c11.934 0 17.9-8.77 17.9-26.3s-6.066-26.3-18.2-26.3c-4.266 0-7.8 1.17-10.6 3.5-2.733 2.33-4.633 5.23-5.7 8.7-1.066 3.4-1.6 7.37-1.6 11.9 0 19 6.067 28.5 18.2 28.5Zm85.738.3h4.4c1 0 1.5.5 1.5 1.5v4.9c0 1-.5 1.5-1.5 1.5h-11.2c-.8 0-1.3-.5-1.5-1.5l-.9-5.6c-4.266 5.53-9.866 8.3-16.8 8.3-10.8 0-16.2-5.67-16.2-17v-25.5h-5.3c-1 0-1.5-.5-1.5-1.5v-5.2c0-1 .5-1.5 1.5-1.5h15c1 0 1.5.5 1.5 1.5v29.2c0 4 .5 6.87 1.5 8.6 1.067 1.67 3.267 2.5 6.6 2.5 3.4 0 6.2-1 8.4-3s3.3-4.27 3.3-6.8v-23.8h-6.3c-1 0-1.5-.5-1.5-1.5v-5.2c0-1 .5-1.5 1.5-1.5h16c1 0 1.5.5 1.5 1.5v40.1Zm35.364 9.1c-7.934 0-13.767-2.3-17.5-6.9-3.667-4.67-5.5-10.8-5.5-18.4 0-7.67 1.966-14 5.9-19 3.933-5 9.6-7.5 17-7.5 3.666 0 6.8.7 9.4 2.1 2.666 1.33 4.7 3.17 6.1 5.5 2.666 4.53 4 9.77 4 15.7 0 2.8-.134 4.33-.4 4.6-.267.27-.767.4-1.5.4h-29.4c.333 4.8 1.5 8.53 3.5 11.2 2.066 2.6 5.6 3.9 10.6 3.9 3.666 0 7.433-.87 11.3-2.6.933-.47 1.6-.2 2 .8l1.9 4.6c.333.8.033 1.47-.9 2-4.4 2.4-9.9 3.6-16.5 3.6Zm-11.9-30.9h20.8c.133-8.33-3.134-12.5-9.8-12.5-3.934 0-6.734 1.27-8.4 3.8-1.6 2.47-2.467 5.37-2.6 8.7Zm38.949-5.5c0-4.4 1.7-8.07 5.1-11 3.4-2.93 7.7-4.4 12.9-4.4s9.7.6 13.5 1.8c.933.27 1.4.87 1.4 1.8v10.6c0 1-.5 1.5-1.5 1.5h-5.8c-1.067 0-1.5-.5-1.3-1.5l.5-5.1c-2-1.07-4.2-1.6-6.6-1.6-5.333 0-8 1.87-8 5.6 0 1.93.867 3.47 2.6 4.6 1.733 1.13 3.833 2.07 6.3 2.8a81.61 81.61 0 0 1 7.4 2.4c2.533.87 4.667 2.4 6.4 4.6 1.733 2.13 2.6 4.87 2.6 8.2 0 5.07-1.767 9.03-5.3 11.9-3.533 2.8-8.5 4.2-14.9 4.2-4.467 0-9.167-.67-14.1-2-.867-.27-1.3-.9-1.3-1.9v-10.6c0-1 .5-1.5 1.5-1.5h5.8c1 0 1.467.5 1.4 1.5l-.3 5.2c1.8 1.33 4.367 2 7.7 2 5.933 0 8.9-2.1 8.9-6.3 0-2.13-.867-3.8-2.6-5-1.667-1.27-3.733-2.23-6.2-2.9a184.3 184.3 0 0 1-7.3-2.2c-2.467-.87-4.567-2.33-6.3-4.4-1.667-2.13-2.5-4.9-2.5-8.3Zm57.464-6.1v25.2c0 3.13.4 5.4 1.2 6.8.8 1.4 2.3 2.1 4.5 2.1s4.333-.47 6.4-1.4c.733-.27 1.267 0 1.6.8l1.8 4.6c.067.2.1.5.1.9 0 .33-.333.7-1 1.1-3.2 1.6-7 2.4-11.4 2.4-5.933 0-9.833-1.53-11.7-4.6-1.333-2-2.1-3.93-2.3-5.8-.267-2.53-.4-5.2-.4-8v-24.1h-5.7c-1 0-1.5-.5-1.5-1.5v-5.2c0-1 .5-1.5 1.5-1.5h5.7V1036c0-1 .5-1.5 1.5-1.5h8.2c1 0 1.5.5 1.5 1.5v13.5h10.1c1 0 1.5.5 1.5 1.5v5.2c0 1-.5 1.5-1.5 1.5h-10.1Zm37.614 33.4h6.3c1 0 1.5.5 1.5 1.5v4.9c0 1-.5 1.5-1.5 1.5h-23.8c-1 0-1.5-.5-1.5-1.5v-4.9c0-1 .5-1.5 1.5-1.5h6.3v-33.4h-5.4c-1 0-1.5-.5-1.5-1.5v-5.2c0-1 .5-1.5 1.5-1.5h15.1c1 0 1.5.5 1.5 1.5v40.1Zm-12.1-50.5c-1.267-1.33-1.9-3.03-1.9-5.1s.633-3.77 1.9-5.1c1.333-1.4 3.067-2.1 5.2-2.1 2.2 0 3.933.7 5.2 2.1 1.333 1.33 2 3.03 2 5.1s-.667 3.77-2 5.1c-1.333 1.33-3.1 2-5.3 2-2.133 0-3.833-.67-5.1-2Zm24.395 34.4c0-5 .766-9.33 2.3-13 1.533-3.67 3.533-6.43 6-8.3 4.733-3.53 9.866-5.3 15.4-5.3 4.066 0 7.5.63 10.3 1.9 2.8 1.27 4.966 2.73 6.5 4.4 1.6 1.67 2.933 4.07 4 7.2 1.133 3.13 1.7 6.8 1.7 11 0 8.93-2.267 15.73-6.8 20.4-4.467 4.6-10.2 6.9-17.2 6.9s-12.467-2.1-16.4-6.3c-3.867-4.27-5.8-10.57-5.8-18.9Zm23 17c4 0 6.9-1.47 8.7-4.4 1.866-3 2.8-7.43 2.8-13.3 0-5.87-.934-10.27-2.8-13.2-1.8-3-4.767-4.5-8.9-4.5-7.667 0-11.5 5.4-11.5 16.2 0 12.8 3.9 19.2 11.7 19.2Zm29.222-35.7v-5.3c0-1 .5-1.5 1.5-1.5h13.6c.867 0 1.4.5 1.6 1.5l.9 5.8c3.734-5.6 9.067-8.4 16-8.4 10.334 0 15.5 5.67 15.5 17v25.7h5.8c1 0 1.5.5 1.5 1.5v4.9c0 1-.5 1.5-1.5 1.5h-21.8c-1 0-1.5-.5-1.5-1.5v-4.9c0-1 .5-1.5 1.5-1.5h4.8v-20.7c0-4.2-.533-7.27-1.6-9.2-1.066-1.93-3.266-2.9-6.6-2.9-3.333 0-6.1 1-8.3 3-2.2 2-3.3 4.27-3.3 6.8v23h6.2c1 0 1.5.5 1.5 1.5v4.9c0 1-.5 1.5-1.5 1.5h-22.7c-1 0-1.5-.5-1.5-1.5v-4.9c0-1 .5-1.5 1.5-1.5h5.3v-33.4h-5.4c-1 0-1.5-.47-1.5-1.4ZM133.243 300.3l-7.2.3c-27.8 0-49.3-8.7-64.5-26.1-15-17.6-22.5-43.3-22.5-77.1 0-16.2 2-30.7 6-43.5 4.2-13 9.4-23.5 15.6-31.5 6.4-8 13.9-14.6 22.5-19.8 15.2-9.6 31.6-14.4 49.2-14.4 7.4 0 14.5.6 21.3 1.8 6.8 1.2 14.5 3.9 23.1 8.1 8.6 4.2 15.9 9.8 21.9 16.8 6.2 6.8 11.4 16.6 15.6 29.4 4.4 12.8 6.6 27.7 6.6 44.7 0 25.2-4.5 46.3-13.5 63.3-9 16.8-21.3 29.4-36.9 37.8 3.8 13.8 12.9 26.9 27.3 39.3 2.2 1.8 2.4 3.9.6 6.3l-6.9 8.4c-1 1.2-2.1 1.8-3.3 1.8-1 0-2.1-.3-3.3-.9-26.4-13.6-43.6-28.5-51.6-44.7Zm-3.6-27.9c35.8 0 53.7-26.3 53.7-78.9 0-52.6-18.2-78.9-54.6-78.9-12.8 0-23.4 3.5-31.8 10.5-8.2 7-13.9 15.7-17.1 26.1-3.2 10.2-4.8 22.1-4.8 35.7 0 57 18.2 85.5 54.6 85.5ZM418.8 718.4l-9.6.4c-37.067 0-65.733-11.6-86-34.8-20-23.467-30-57.733-30-102.8 0-21.6 2.667-40.933 8-58 5.6-17.333 12.533-31.333 20.8-42 8.533-10.667 18.533-19.467 30-26.4 20.267-12.8 42.133-19.2 65.6-19.2 9.867 0 19.333.8 28.4 2.4 9.067 1.6 19.333 5.2 30.8 10.8 11.467 5.6 21.2 13.067 29.2 22.4 8.267 9.067 15.2 22.133 20.8 39.2 5.867 17.067 8.8 36.933 8.8 59.6 0 33.6-6 61.733-18 84.4-12 22.4-28.4 39.2-49.2 50.4 5.067 18.4 17.2 35.867 36.4 52.4 2.933 2.4 3.2 5.2.8 8.4l-9.2 11.2c-1.333 1.6-2.8 2.4-4.4 2.4-1.333 0-2.8-.4-4.4-1.2-35.2-18.133-58.133-38-68.8-59.6Zm-4.8-37.2c47.733 0 71.6-35.067 71.6-105.2 0-70.133-24.267-105.2-72.8-105.2-17.067 0-31.2 4.667-42.4 14-10.933 9.333-18.533 20.933-22.8 34.8-4.267 13.6-6.4 29.467-6.4 47.6 0 76 24.267 114 72.8 114Z" fill="#000"/><path d="m344.492 358.908 28.663 51.219c30.873-9.103 50.551-7.778 87.639 0l28.662-51.218-38.218 27.926L439.377 336l-22.403 46.745L394.571 336l-11.861 50.834-38.218-27.926Z" fill="#F7081D"/><path d="m133.425 410.731-16.311 16.182c-1.268 1.258-.377 3.42 1.409 3.42h32.622c1.785 0 2.676-2.162 1.408-3.42l-16.311-16.182a1.999 1.999 0 0 0-2.817 0Z" fill="#231F20"/><circle cx="101.667" cy="386" r="16.667" fill="#393335"/><circle cx="168.333" cy="386" r="16.667" fill="#231F20"/><path d="M133.485 377.414a2 2 0 0 1 2.829 0l7.071 7.071a2 2 0 0 1 0 2.829l-7.071 7.071a2 2 0 0 1-2.829 0l-7.071-7.071a2 2 0 0 1 0-2.829l7.071-7.071Z" fill="#231F20"/><mask id="a" style="mask-type:alpha" maskUnits="userSpaceOnUse" x="125" y="376" width="10" height="20"><path fill="#D9D9D9" d="M125.667 376.666H135v18.667h-9.333z"/></mask><g mask="url(#a)"><rect x="134.899" y="376" width="14" height="14" rx="2" transform="rotate(45 134.899 376)" fill="#393335"/></g><circle cx="135" cy="352.667" r="16.667" fill="#231F20"/><mask id="b" style="mask-type:alpha" maskUnits="userSpaceOnUse" x="118" y="336" width="17" height="34"><path fill="#D9D9D9" d="M118.332 336h16.667v33.333h-16.667z"/></mask><g mask="url(#b)"><circle cx="134.999" cy="352.667" r="16.667" fill="#393335"/></g><mask id="c" style="mask-type:alpha" maskUnits="userSpaceOnUse" x="115" y="409" width="20" height="22"><path fill="#D9D9D9" d="M115.447 409.743h19.274v20.67h-19.274z"/></mask><g mask="url(#c)"><path d="m133.425 410.731-16.311 16.182c-1.268 1.258-.377 3.42 1.409 3.42h32.622c1.785 0 2.676-2.162 1.408-3.42l-16.311-16.182a1.999 1.999 0 0 0-2.817 0Z" fill="#393335"/></g></svg>